{"glyphs":{"0":{"ha":556,"x_min":-82,"x_max":611,"o":"m 611 611 q 598 518 611 567 q 560 416 584 468 q 503 313 536 365 q 430 215 469 262 q 346 127 390 168 q 255 57 301 87 q 161 10 208 27 q 68 -7 113 -7 q -43 26 -4 -7 q -82 119 -82 60 q -66 205 -82 158 q -20 300 -49 251 q 47 399 8 349 q 132 495 86 449 q 227 582 177 542 q 326 653 276 623 q 424 700 376 683 q 514 717 472 717 q 560 708 542 717 q 590 685 579 700 q 606 652 601 671 q 611 611 611 633 m 164 75 q 255 100 207 75 q 350 168 303 126 q 439 266 397 210 q 514 381 482 321 q 566 500 547 440 q 585 612 585 560 q 582 643 585 628 q 573 668 580 657 q 555 685 567 679 q 526 692 544 692 q 437 665 485 692 q 340 594 389 638 q 245 494 291 550 q 165 380 200 438 q 108 267 129 322 q 87 169 87 211 q 108 98 87 121 q 164 75 128 75 z "},"1":{"ha":463,"x_min":0,"x_max":505,"o":"m 363 613 q 349 628 363 628 q 297 606 331 628 q 217 544 262 585 q 120 446 172 504 q 17 316 68 388 l 0 329 q 111 469 56 408 q 216 573 166 529 q 309 647 265 617 q 388 694 353 676 q 448 720 423 713 q 483 727 472 727 q 499 722 492 727 q 505 701 505 717 q 491 650 505 690 q 443 536 477 610 q 354 351 410 462 q 214 89 298 241 q 191 52 201 67 q 168 29 180 38 q 145 14 157 19 q 118 4 133 8 q 99 -2 110 1 q 76 -10 88 -6 q 51 -16 63 -13 q 29 -18 39 -18 q 11 -15 19 -18 q 4 -1 4 -11 q 14 24 4 8 q 153 249 95 156 q 249 407 210 343 q 311 509 288 471 q 345 569 333 548 q 359 600 356 591 q 363 613 363 608 z "},"2":{"ha":620,"x_min":-99,"x_max":687,"o":"m -99 33 q -33 110 -69 74 q 50 178 3 147 q 142 241 94 209 q 235 306 190 273 q 323 374 281 339 q 395 444 364 408 q 444 519 426 481 q 463 598 463 557 q 447 639 463 626 q 404 651 431 651 q 309 622 359 651 q 209 545 260 593 q 110 438 159 498 q 17 316 61 378 l 0 329 q 130 497 68 425 q 252 618 192 569 q 369 692 311 667 q 485 717 426 717 q 545 709 519 717 q 590 687 572 701 q 618 656 608 674 q 628 617 628 638 q 602 541 628 578 q 532 465 576 503 q 430 389 488 426 q 308 312 372 351 q 178 234 244 273 q 54 154 113 194 l 58 149 q 113 178 85 165 q 173 192 140 192 q 232 180 205 192 q 284 152 260 167 q 330 125 308 138 q 371 113 351 113 q 430 130 399 113 q 492 177 460 147 q 556 245 524 206 q 620 329 588 285 q 637 352 628 340 q 653 375 646 365 q 672 399 663 388 l 687 389 q 669 362 678 375 q 651 336 661 350 q 631 308 641 322 q 542 192 588 249 q 451 91 497 135 q 363 20 406 47 q 284 -7 320 -7 q 243 2 262 -7 q 208 25 224 11 q 177 54 192 38 q 147 84 163 70 q 116 106 132 97 q 81 115 99 115 q 52 110 65 115 q 26 90 39 104 q 1 51 14 76 q -26 -12 -12 26 q -56 4 -42 -4 q -79 19 -69 13 q -99 33 -90 26 z "},"3":{"ha":656,"x_min":-211,"x_max":656,"o":"m 656 617 q 639 549 656 582 q 595 485 623 516 q 530 427 567 455 q 451 375 493 399 q 364 329 409 350 q 276 291 319 308 l 279 283 q 301 288 289 285 q 326 291 312 290 q 358 293 341 293 q 424 284 394 293 q 476 256 454 275 q 510 208 498 238 q 523 138 523 179 q 496 4 523 71 q 424 -125 469 -63 q 319 -240 379 -187 q 194 -332 260 -293 q 59 -394 128 -372 q -71 -417 -9 -417 q -136 -407 -110 -417 q -180 -380 -163 -397 q -204 -342 -197 -363 q -211 -297 -211 -320 q -206 -240 -211 -269 q -190 -178 -200 -210 l -165 -185 q -180 -243 -174 -215 q -185 -298 -185 -272 q -180 -332 -185 -315 q -161 -362 -174 -349 q -127 -384 -148 -376 q -73 -392 -106 -392 q 22 -371 -27 -392 q 118 -315 72 -351 q 207 -230 165 -279 q 281 -123 249 -181 q 332 -3 313 -66 q 350 125 350 60 q 327 209 350 181 q 266 238 303 238 q 215 226 244 238 q 160 201 186 215 q 96 166 128 185 q 85 191 90 178 q 78 216 81 204 q 72 242 74 229 q 217 292 154 264 q 326 352 280 320 q 404 417 372 383 q 455 482 435 450 q 482 544 474 515 q 490 598 490 574 q 475 639 490 626 q 432 651 459 651 q 327 622 382 651 q 218 545 272 593 q 113 438 164 498 q 17 316 61 378 l 0 329 q 132 497 68 425 q 260 618 197 569 q 385 692 323 667 q 513 717 448 717 q 618 691 581 717 q 656 617 656 666 z "},"4":{"ha":746,"x_min":-118,"x_max":813,"o":"m 286 831 q 318 778 307 810 q 330 703 330 747 q 313 598 330 652 q 259 481 295 543 q 167 346 223 418 q 33 188 111 274 l 40 181 q 77 199 57 191 q 117 210 94 205 q 165 216 140 216 q 205 210 186 216 q 241 196 224 205 q 273 176 258 188 q 303 153 289 165 q 355 253 328 201 q 408 354 382 304 q 457 451 433 404 q 501 536 481 497 q 535 604 521 575 q 558 647 550 633 q 577 669 565 660 q 605 683 590 678 q 635 689 619 688 q 664 691 651 691 q 682 687 676 691 q 688 672 688 683 q 686 661 688 667 q 682 649 685 656 q 663 602 677 634 q 630 526 649 570 q 586 430 610 483 q 535 321 562 377 q 482 207 509 265 q 431 97 456 150 q 529 116 486 99 q 608 164 572 133 q 677 236 644 194 q 746 329 710 278 q 763 352 753 340 q 779 375 772 365 q 797 399 788 388 l 813 389 q 794 362 803 375 q 777 336 787 350 q 757 308 767 322 q 677 204 714 249 q 602 130 640 160 q 519 86 563 101 q 418 72 475 72 q 382 -4 399 31 q 352 -67 365 -39 q 329 -113 338 -94 q 316 -139 320 -132 q 291 -177 303 -162 q 266 -201 279 -192 q 240 -217 253 -210 q 209 -228 226 -223 q 163 -237 187 -235 q 128 -239 140 -239 q 110 -226 112 -239 q 112 -213 110 -221 q 123 -189 115 -206 q 146 -145 131 -173 q 186 -70 161 -117 q 231 13 203 -40 q 292 130 258 65 q 262 153 277 142 q 232 173 247 164 q 198 187 216 182 q 161 192 181 192 q 92 179 122 192 q 41 142 63 166 q 3 85 19 118 q -29 15 -14 53 q -42 16 -30 13 q -69 25 -54 19 q -99 36 -85 30 q -118 49 -113 43 q 26 215 -37 140 q 136 352 89 290 q 214 464 183 414 q 266 557 246 515 q 294 635 285 599 q 302 703 302 670 q 293 769 302 742 q 266 815 283 797 l 286 831 z "},"5":{"ha":597,"x_min":-253,"x_max":622,"o":"m 210 367 q 301 358 256 367 q 382 328 346 350 q 440 270 417 307 q 462 175 462 233 q 436 59 462 117 q 368 -55 411 0 q 268 -158 325 -110 q 147 -241 210 -206 q 16 -298 83 -277 q -112 -318 -51 -318 q -178 -308 -151 -318 q -222 -281 -205 -298 q -245 -243 -238 -265 q -253 -199 -253 -222 q -247 -141 -253 -171 q -231 -79 -242 -111 l -206 -86 q -221 -144 -216 -116 q -226 -199 -226 -173 q -221 -234 -226 -217 q -203 -264 -216 -251 q -168 -285 -190 -277 q -115 -293 -147 -293 q -21 -276 -69 -293 q 72 -227 27 -258 q 156 -152 117 -196 q 225 -56 196 -108 q 272 55 255 -4 q 289 177 289 115 q 256 297 289 259 q 170 335 223 335 q 114 325 138 335 q 72 298 89 315 q 47 260 56 281 q 37 218 38 240 q -12 232 3 218 q -27 271 -28 247 q -21 297 -26 283 q -3 328 -15 310 l 235 717 q 298 699 265 706 q 365 686 327 692 q 445 681 402 681 q 520 686 489 681 q 573 698 552 692 q 614 715 597 706 l 622 701 q 507 645 572 669 q 373 607 451 624 q 194 590 294 590 l 26 324 l 33 319 q 81 342 54 332 q 137 359 104 351 q 210 367 169 367 z "},"6":{"ha":635,"x_min":-30,"x_max":855,"o":"m 635 594 q 623 504 635 552 q 587 405 610 456 q 533 305 565 355 q 464 209 501 255 q 384 124 426 163 q 297 55 342 84 q 208 10 253 26 q 119 -7 163 -7 q 50 5 78 -7 q 4 39 22 17 q -22 93 -14 61 q -30 166 -30 125 q -15 276 -30 215 q 27 403 -1 337 q 94 539 54 470 q 184 672 134 608 q 294 793 234 736 q 422 892 354 849 q 566 958 490 934 q 722 983 641 983 q 855 890 831 983 l 834 885 q 797 941 823 921 q 722 962 771 962 q 599 935 662 962 q 477 858 536 908 q 364 738 417 808 q 267 581 310 667 l 272 578 q 341 626 306 604 q 410 664 376 648 q 477 689 444 680 q 540 697 510 697 q 585 689 567 697 q 615 667 603 681 q 631 634 626 653 q 635 594 635 615 m 206 73 q 291 98 246 73 q 381 164 337 122 q 466 258 426 205 q 537 370 506 312 q 586 485 568 428 q 605 593 605 543 q 602 624 605 610 q 592 650 599 639 q 571 666 584 660 q 538 672 558 672 q 439 649 488 672 q 344 587 390 626 q 260 497 299 548 q 191 390 220 446 q 145 276 162 333 q 128 167 128 218 q 149 96 128 119 q 206 73 170 73 z "},"7":{"ha":592,"x_min":-132,"x_max":762,"o":"m 26 -174 q 30 -212 26 -197 q 37 -237 33 -227 q 48 -256 42 -249 l -104 -312 q -118 -292 -112 -304 q -128 -265 -124 -281 q -132 -228 -132 -249 q -111 -149 -132 -193 q -54 -56 -90 -106 q 31 47 -18 -7 q 137 156 81 101 q 256 267 194 212 q 379 374 317 322 q 499 474 440 426 q 608 563 558 522 l 601 569 q 568 548 585 558 q 532 531 550 538 q 496 519 513 523 q 465 515 478 515 q 413 527 436 515 q 369 555 390 540 q 329 583 348 570 q 290 596 310 596 q 231 575 261 596 q 168 518 201 555 q 98 429 135 481 q 17 316 61 378 l 0 329 q 120 497 68 425 q 217 618 173 569 q 301 692 262 667 q 383 717 341 717 q 422 709 404 717 q 453 690 439 701 q 482 666 468 679 q 509 641 495 652 q 540 622 524 630 q 576 615 556 615 q 603 619 590 615 q 628 637 617 624 q 647 673 639 650 q 659 731 655 696 l 762 686 q 713 633 738 660 q 663 583 690 610 q 609 535 635 557 q 411 368 497 442 q 259 233 324 294 q 150 121 194 172 q 78 22 106 69 q 39 -73 51 -26 q 26 -174 26 -121 z "},"8":{"ha":721,"x_min":-53,"x_max":838,"o":"m 642 983 q 786 950 735 983 q 838 858 838 917 q 815 777 838 815 q 751 706 792 739 q 657 644 711 673 q 540 590 603 615 q 578 527 560 559 q 611 461 597 495 q 634 392 625 428 q 642 320 642 357 q 633 242 642 282 q 601 164 623 201 q 547 93 580 126 q 467 36 514 60 q 358 -3 419 11 q 220 -17 297 -17 q 106 -5 156 -17 q 19 33 55 8 q -35 94 -16 58 q -53 179 -53 131 q -32 274 -53 222 q 38 378 -10 325 q 166 481 87 431 q 360 572 245 531 q 334 636 344 603 q 324 708 324 669 q 339 787 324 750 q 377 855 353 824 q 433 909 401 885 q 500 950 465 933 q 572 975 535 966 q 642 983 608 983 m 473 291 q 463 364 473 330 q 438 429 453 398 q 405 489 423 460 q 372 548 388 518 q 242 472 294 518 q 157 373 190 426 q 110 265 124 319 q 96 164 96 210 q 103 100 96 129 q 127 51 111 72 q 168 19 143 31 q 229 8 194 8 q 329 29 284 8 q 407 87 374 49 q 456 176 439 124 q 473 291 474 228 m 584 944 q 532 935 558 944 q 484 909 506 926 q 449 867 463 892 q 435 808 435 842 q 443 763 435 786 q 464 715 451 740 q 493 664 476 690 q 527 610 509 638 q 607 659 574 633 q 661 715 640 686 q 691 774 682 744 q 701 835 701 805 q 670 919 701 893 q 584 944 640 944 z "},"9":{"ha":672,"x_min":-260,"x_max":649,"o":"m -239 -175 q -224 -207 -233 -193 q -200 -232 -215 -222 q -163 -247 -185 -242 q -110 -252 -141 -252 q -7 -231 -60 -252 q 99 -170 47 -210 q 200 -75 152 -131 q 288 49 249 -19 q 232 22 259 31 q 181 12 205 12 q 104 21 142 12 q 35 52 66 31 q -14 108 5 73 q -33 193 -33 142 q -10 306 -33 247 q 52 424 13 366 q 144 535 92 483 q 254 628 196 588 q 373 693 312 669 q 490 717 433 717 q 608 671 567 717 q 649 526 649 626 q 622 364 649 452 q 547 188 596 276 q 430 16 498 99 q 277 -132 361 -67 q 95 -234 192 -196 q -109 -273 -3 -273 q -212 -249 -177 -273 q -260 -181 -248 -226 l -239 -175 m 181 37 q 265 67 221 37 q 351 145 308 97 q 431 257 393 194 q 499 385 469 319 q 545 514 528 451 q 562 627 562 577 q 559 652 562 640 q 550 674 557 665 q 533 689 544 683 q 504 694 522 694 q 440 678 474 694 q 372 632 406 661 q 303 565 338 603 q 239 482 269 526 q 182 391 208 438 q 137 298 156 344 q 107 210 118 252 q 97 135 97 168 q 116 61 97 86 q 181 37 136 37 z "}," ":{"ha":347,"x_min":0,"x_max":0,"o":""},"!":{"ha":454,"x_min":-1,"x_max":723,"o":"m 172 228 q 260 385 218 305 q 341 543 303 465 q 413 694 379 622 q 475 828 447 767 q 528 938 504 890 q 570 1015 551 986 q 600 1043 582 1033 q 635 1058 617 1053 q 669 1064 653 1063 q 692 1065 685 1065 q 722 1047 723 1065 q 712 1018 722 1035 q 610 855 670 946 q 481 660 550 763 q 336 444 411 556 q 190 219 262 332 l 172 228 m -1 34 q 5 70 -1 50 q 22 107 10 90 q 51 135 33 124 q 94 147 69 147 q 141 131 124 147 q 158 93 158 114 q 151 59 158 76 q 129 26 144 41 q 93 3 115 12 q 44 -6 72 -6 q 13 4 26 -6 q -1 34 -1 15 z "},"\"":{"ha":429,"x_min":208,"x_max":638,"o":"m 408 982 q 401 928 408 956 q 380 874 393 901 q 351 821 367 847 q 318 772 335 795 q 228 667 278 718 l 208 687 q 265 749 240 718 q 305 807 289 779 q 330 858 322 835 q 338 897 338 881 q 333 922 338 910 q 310 933 328 933 q 288 928 298 933 q 272 917 278 924 q 243 967 243 933 q 251 1000 243 984 q 272 1029 259 1017 q 303 1048 285 1041 q 341 1056 321 1056 q 391 1038 374 1056 q 408 982 408 1021 m 638 1003 q 630 949 638 976 q 609 895 622 922 q 580 842 597 868 q 547 793 564 816 q 458 688 508 739 l 438 708 q 494 769 469 739 q 534 828 518 800 q 559 878 551 856 q 567 917 567 901 q 562 942 567 931 q 539 953 557 953 q 517 949 527 953 q 501 938 508 945 q 472 988 472 954 q 480 1021 472 1005 q 501 1050 488 1038 q 532 1069 515 1062 q 570 1076 550 1076 q 620 1059 603 1076 q 638 1003 638 1042 z "},"#":{"ha":724,"x_min":53,"x_max":694,"o":"m 395 240 l 214 240 l 103 46 l 79 58 l 184 240 l 53 240 l 53 265 l 198 265 l 295 434 l 136 434 l 136 458 l 309 458 l 412 636 l 433 624 l 338 458 l 520 458 l 627 643 l 648 631 l 549 458 l 694 458 l 694 434 l 535 434 l 439 265 l 611 265 l 611 240 l 425 240 l 318 53 l 294 65 l 395 240 m 228 265 l 409 265 l 506 434 l 324 434 l 228 265 z "},"$":{"ha":533,"x_min":-24,"x_max":560,"o":"m 519 539 q 515 567 519 553 q 501 592 510 581 q 475 609 491 603 q 437 615 460 615 q 393 606 413 615 q 359 581 374 597 q 336 544 344 565 q 328 501 328 524 q 336 443 328 470 q 351 388 343 415 q 367 333 360 361 q 374 276 374 306 q 356 197 374 233 q 303 135 337 161 q 222 94 269 109 q 117 78 174 79 l 12 -106 l -12 -93 l 90 79 q 41 94 62 83 q 6 118 19 106 q -24 149 -12 132 l -6 163 q 22 131 6 144 q 58 110 36 119 q 109 101 80 101 q 205 140 173 101 q 237 252 237 178 q 232 306 237 281 q 223 353 228 330 q 213 399 217 376 q 208 450 208 423 q 228 529 208 494 q 279 588 247 564 q 351 624 310 612 q 436 637 392 637 l 539 818 l 560 806 l 465 634 q 499 620 485 630 q 524 598 514 611 q 538 570 533 585 q 542 539 542 555 l 519 539 z "},"%":{"ha":974,"x_min":66,"x_max":915,"o":"m 817 778 q 768 776 794 773 q 716 788 742 779 q 663 807 690 796 q 611 828 637 818 q 563 845 586 838 q 518 852 539 852 q 484 837 494 852 q 474 800 474 822 q 477 774 474 787 q 484 745 481 760 q 492 712 488 730 q 496 672 495 694 l 496 668 q 483 599 496 636 q 448 524 470 562 q 397 452 426 487 q 335 390 367 417 q 267 347 302 363 q 200 331 233 331 q 139 349 160 331 q 117 400 117 367 q 133 463 117 428 q 174 534 149 498 q 234 605 200 571 q 303 666 267 640 q 376 709 340 693 q 443 726 412 726 q 471 719 459 726 q 458 759 465 740 q 451 800 451 778 q 455 828 451 815 q 467 851 459 841 q 488 867 476 861 q 518 873 501 873 q 576 863 545 873 q 638 840 606 853 q 701 816 669 828 q 764 801 733 804 q 821 806 794 797 q 872 843 849 815 l 915 808 q 817 715 869 767 q 715 611 772 672 q 597 478 658 551 l 84 -133 l 66 -116 l 817 778 m 833 329 q 820 260 833 297 q 785 185 807 223 q 734 113 763 148 q 672 51 704 78 q 604 8 639 24 q 537 -8 569 -8 q 476 10 497 -8 q 454 61 454 28 q 470 124 454 89 q 511 195 485 159 q 570 266 537 232 q 640 327 604 301 q 713 370 676 354 q 780 387 749 387 q 821 369 810 387 q 833 329 833 352 m 601 61 q 650 74 625 61 q 698 109 675 87 q 742 158 722 131 q 778 216 763 186 q 802 275 793 245 q 811 328 811 304 q 804 356 811 344 q 781 367 797 367 q 736 354 760 367 q 689 319 713 340 q 642 269 665 297 q 602 213 619 241 q 574 157 585 184 q 564 108 564 129 q 574 73 564 85 q 601 61 584 61 m 265 400 q 313 413 288 400 q 361 448 338 426 q 405 497 385 469 q 441 555 426 525 q 465 614 456 584 q 474 667 474 643 q 467 695 474 683 q 444 706 460 706 q 400 693 424 706 q 352 658 376 679 q 305 608 328 636 q 265 551 283 580 q 238 495 248 523 q 227 447 227 468 q 237 412 227 424 q 265 400 247 400 z "},"&":{"ha":919,"x_min":-66,"x_max":1290,"o":"m 1290 838 q 1231 768 1269 796 q 1141 719 1192 740 q 1032 684 1090 699 q 916 653 974 669 q 890 514 914 585 q 825 375 866 443 q 726 246 783 308 q 602 133 669 184 q 673 6 635 65 q 752 -99 710 -54 q 838 -169 794 -143 q 930 -194 883 -194 q 983 -189 958 -194 q 1029 -175 1008 -184 q 1069 -156 1051 -167 q 1102 -133 1088 -144 q 1163 -70 1137 -105 l 1180 -82 q 1115 -149 1153 -120 q 1080 -174 1099 -162 q 1036 -195 1060 -186 q 984 -211 1012 -205 q 926 -217 957 -217 q 793 -195 856 -217 q 677 -136 731 -174 q 577 -47 623 -99 q 493 64 531 4 q 340 2 419 24 q 177 -19 260 -19 q 67 -7 113 -19 q -8 27 22 5 q -52 81 -37 49 q -66 150 -66 112 q -49 241 -66 197 q -4 325 -33 285 q 63 401 24 365 q 144 468 101 438 q 234 524 188 499 q 324 567 280 549 q 320 650 320 611 q 346 792 320 730 q 414 897 372 854 q 513 961 457 939 q 628 983 568 983 q 715 960 682 983 q 760 902 749 938 q 759 820 771 866 q 709 728 747 774 q 608 638 672 681 q 453 564 544 595 q 477 466 463 517 q 509 362 492 415 q 548 257 527 310 q 592 153 568 204 q 706 256 653 199 q 800 377 760 313 q 866 510 841 441 q 894 647 891 578 q 805 618 849 634 q 724 581 761 603 q 658 531 688 560 q 613 463 629 502 l 589 469 q 648 551 611 517 q 730 608 684 584 q 827 649 775 632 q 932 680 879 665 q 1037 708 985 694 q 1134 740 1089 722 q 1214 783 1178 758 q 1272 844 1250 808 l 1290 838 m 327 544 q 224 481 269 519 q 150 397 180 442 q 106 299 121 351 q 91 194 91 247 q 100 124 91 156 q 129 70 109 92 q 181 37 149 49 q 258 25 213 25 q 368 40 313 25 q 481 85 424 56 q 423 196 449 138 q 378 313 398 254 q 346 431 359 372 q 327 544 333 489 m 628 960 q 539 943 576 960 q 477 897 501 926 q 440 830 452 867 q 428 752 428 792 q 448 587 428 688 q 590 652 532 614 q 684 732 649 691 q 731 815 719 774 q 736 888 744 856 q 700 940 728 920 q 628 960 673 960 z "},"'":{"ha":200,"x_min":208,"x_max":408,"o":"m 408 982 q 401 928 408 956 q 380 874 393 901 q 351 821 367 847 q 318 772 335 795 q 228 667 278 718 l 208 687 q 265 749 240 718 q 305 807 289 779 q 330 858 322 835 q 338 897 338 881 q 333 922 338 910 q 310 933 328 933 q 288 928 298 933 q 272 917 278 924 q 243 967 243 933 q 251 1000 243 984 q 272 1029 259 1017 q 303 1048 285 1041 q 341 1056 321 1056 q 391 1038 374 1056 q 408 982 408 1021 z "},"(":{"ha":431,"x_min":-15,"x_max":635,"o":"m 635 1054 q 553 1028 599 1049 q 456 970 507 1006 q 352 882 405 933 q 250 767 299 831 q 156 627 200 703 q 80 464 113 551 q 28 279 47 376 q 9 75 9 181 q 15 -25 9 18 q 29 -99 22 -69 q 50 -159 38 -133 l 33 -169 q 8 -106 19 -143 q -8 -29 -1 -75 q -15 78 -15 17 q 4 285 -15 186 q 57 474 24 385 q 136 641 91 563 q 233 784 182 719 q 339 901 284 849 q 446 990 394 953 q 547 1049 499 1027 q 633 1074 594 1070 l 635 1054 z "},")":{"ha":476,"x_min":-174,"x_max":477,"o":"m -174 -149 q -91 -122 -137 -144 q 6 -64 -45 -101 q 110 23 57 -28 q 212 138 163 74 q 306 278 262 202 q 382 442 349 355 q 434 627 415 529 q 453 831 453 724 q 446 931 453 888 q 432 1004 440 974 q 412 1065 423 1039 l 429 1074 q 453 1011 442 1048 q 469 934 462 980 q 477 828 477 889 q 458 620 477 719 q 405 432 438 521 q 325 265 371 342 q 229 122 280 187 q 123 4 178 56 q 16 -85 68 -48 q -85 -143 -37 -122 q -171 -169 -133 -165 l -174 -149 z "},"*":{"ha":587,"x_min":228,"x_max":555,"o":"m 555 838 l 553 811 l 433 819 l 393 826 l 409 784 l 440 656 l 415 647 l 383 780 l 378 821 l 347 790 l 243 705 l 228 725 l 333 809 l 368 833 l 329 852 l 234 908 l 251 931 l 342 876 l 381 846 l 391 885 l 433 997 l 458 988 l 415 877 l 394 842 l 437 845 l 555 838 z "},"+":{"ha":761,"x_min":147,"x_max":572,"o":"m 147 367 l 350 367 l 350 554 l 376 554 l 376 367 l 572 367 l 572 344 l 376 344 l 376 160 l 350 160 l 350 344 l 147 344 l 147 367 z "},",":{"ha":306,"x_min":-78,"x_max":122,"o":"m 122 117 q 115 63 122 90 q 94 9 107 36 q 65 -44 81 -18 q 32 -93 49 -70 q -58 -199 -8 -147 l -78 -178 q 14 -67 -14 -116 q 41 13 41 -19 q 36 38 41 26 q 13 49 31 49 q -9 44 1 49 q -26 33 -19 40 q -54 83 -54 49 q -44 125 -54 105 q -19 159 -35 144 q 15 182 -4 174 q 55 190 35 190 q 105 173 88 190 q 122 117 122 156 z "},"-":{"ha":655,"x_min":139,"x_max":551,"o":"m 139 380 l 551 380 l 551 356 l 139 356 l 139 380 z "},".":{"ha":306,"x_min":-15,"x_max":144,"o":"m -15 34 q -9 70 -15 50 q 8 107 -3 90 q 38 135 19 124 q 81 147 56 147 q 127 131 110 147 q 144 93 144 114 q 137 59 144 76 q 115 26 130 41 q 80 3 101 12 q 31 -6 58 -6 q -1 4 12 -6 q -15 34 -15 15 z "},"/":{"ha":495,"x_min":-105,"x_max":646,"o":"m 625 1079 l 646 1067 l -81 -213 l -105 -201 l 625 1079 z "},":":{"ha":431,"x_min":-11,"x_max":418,"o":"m -11 56 q -3 91 -11 67 q 24 140 6 115 q 70 184 42 165 q 140 203 99 203 q 169 192 156 203 q 183 157 183 181 q 173 115 183 137 q 141 75 162 93 q 90 45 120 57 q 22 33 60 33 q -1 38 10 33 q -11 56 -11 42 m 224 502 q 232 536 224 513 q 258 585 240 560 q 305 630 276 610 q 375 649 334 649 q 404 638 390 649 q 418 603 418 627 q 407 561 418 583 q 376 521 397 539 q 325 491 355 503 q 256 478 294 478 q 234 483 244 478 q 224 502 224 488 z "},";":{"ha":452,"x_min":-64,"x_max":418,"o":"m 224 502 q 232 536 224 513 q 258 585 240 560 q 305 630 276 610 q 375 649 334 649 q 404 638 390 649 q 418 603 418 627 q 407 561 418 583 q 376 521 397 539 q 325 491 355 503 q 256 478 294 478 q 234 483 244 478 q 224 502 224 488 m 136 117 q 128 63 136 90 q 108 9 121 36 q 79 -44 95 -18 q 46 -93 63 -70 q -44 -199 6 -147 l -64 -178 q 27 -67 0 -116 q 55 13 55 -19 q 50 38 55 26 q 26 49 44 49 q 5 44 15 49 q -12 33 -5 40 q -40 83 -40 49 q -31 125 -40 105 q -6 159 -21 144 q 29 182 10 174 q 69 190 49 190 q 119 173 102 190 q 136 117 136 156 z "},"<":{"ha":466,"x_min":84,"x_max":390,"o":"m 317 113 l 84 359 l 373 632 l 390 615 l 120 358 l 334 131 l 317 113 z "},"=":{"ha":565,"x_min":99,"x_max":476,"o":"m 99 444 l 476 444 l 476 420 l 99 420 l 99 444 m 99 278 l 476 278 l 476 254 l 99 254 l 99 278 z "},">":{"ha":466,"x_min":91,"x_max":397,"o":"m 165 632 l 397 386 l 108 113 l 91 131 l 361 387 l 147 615 l 165 632 z "},"?":{"ha":608,"x_min":-1,"x_max":772,"o":"m 368 337 q 334 294 352 317 q 294 251 315 271 q 248 218 273 231 q 194 205 224 205 q 134 225 158 205 q 109 288 109 245 q 132 385 109 341 q 192 467 155 428 q 277 540 229 506 q 375 609 325 575 q 472 680 424 644 q 557 757 520 716 q 617 845 594 798 q 640 951 640 893 q 631 1002 640 981 q 606 1039 622 1024 q 568 1061 590 1053 q 520 1068 546 1068 q 457 1058 488 1068 q 400 1027 426 1047 q 354 975 374 1006 q 325 904 335 944 l 306 908 q 339 985 317 951 q 391 1043 361 1019 q 456 1078 421 1066 q 528 1091 492 1091 q 626 1078 581 1091 q 702 1041 670 1066 q 753 977 735 1015 q 772 888 772 939 q 744 781 772 830 q 672 691 717 733 q 570 615 627 650 q 453 548 513 580 q 336 485 394 515 q 234 424 279 455 q 162 359 190 392 q 135 288 135 326 q 152 240 135 253 q 196 226 169 226 q 270 258 232 226 q 350 348 308 290 l 368 337 m -1 34 q 5 70 -1 50 q 22 107 10 90 q 51 135 33 124 q 94 147 69 147 q 141 131 124 147 q 158 93 158 114 q 151 59 158 76 q 129 26 144 41 q 93 3 115 12 q 44 -6 72 -6 q 13 4 26 -6 q -1 34 -1 15 z "},"@":{"ha":1276,"x_min":166,"x_max":1233,"o":"m 1017 -7 q 894 -86 953 -54 q 779 -136 834 -117 q 675 -163 724 -155 q 583 -171 625 -171 q 423 -141 498 -171 q 290 -59 347 -112 q 199 68 233 -6 q 166 229 166 142 q 190 398 166 311 q 258 567 214 485 q 367 723 303 649 q 511 851 431 797 q 687 939 592 906 q 890 971 782 971 q 1019 953 957 971 q 1129 898 1081 935 q 1205 803 1176 861 q 1233 665 1233 745 q 1218 547 1233 606 q 1176 432 1203 487 q 1108 330 1148 377 q 1016 247 1067 282 q 902 191 965 211 q 769 171 840 171 q 731 176 747 171 q 706 191 715 182 q 692 214 697 201 q 688 242 688 226 q 695 285 688 262 q 712 332 701 308 q 735 376 722 355 q 762 415 749 398 q 761 417 762 417 q 761 417 761 417 q 760 418 760 417 q 730 386 749 410 q 684 332 710 362 q 628 268 658 301 q 566 208 597 235 q 502 162 534 180 q 441 144 470 144 q 400 159 413 144 q 388 200 388 174 q 400 260 388 226 q 432 334 412 295 q 481 414 453 373 q 542 494 509 455 q 612 567 576 533 q 686 628 649 602 q 760 669 723 654 q 830 685 797 685 q 849 684 839 685 q 867 679 859 683 q 881 668 876 675 q 887 647 887 660 l 887 638 l 891 638 q 902 657 894 646 q 928 674 910 668 q 956 680 940 676 q 986 685 972 683 q 1011 690 1001 688 q 1023 692 1022 692 q 1033 690 1028 692 q 1037 682 1037 688 q 1033 669 1037 678 q 1021 650 1031 666 q 998 611 1012 635 q 967 557 985 587 q 932 495 950 527 q 896 433 914 464 q 864 376 878 402 q 839 331 849 350 q 824 306 828 313 q 816 290 821 299 q 808 271 812 281 q 801 251 803 261 q 798 232 798 241 q 803 216 798 222 q 822 210 808 210 q 919 230 874 210 q 1001 284 964 250 q 1065 361 1038 317 q 1112 455 1093 406 q 1141 553 1131 503 q 1151 649 1151 603 q 1130 769 1151 716 q 1070 859 1108 822 q 977 916 1031 897 q 856 936 922 936 q 691 912 768 936 q 548 845 613 888 q 432 740 483 801 q 345 606 381 679 q 290 448 309 532 q 272 274 272 364 q 286 141 272 199 q 326 40 300 83 q 386 -34 351 -4 q 462 -84 421 -65 q 549 -111 503 -103 q 641 -119 594 -119 q 823 -86 730 -119 q 1008 11 917 -52 l 1017 -7 m 552 406 q 523 342 533 370 q 513 293 513 313 q 542 261 513 261 q 588 276 564 260 q 638 319 612 292 q 693 383 665 347 q 753 460 722 419 q 791 510 771 483 q 827 563 810 537 q 855 611 844 589 q 866 646 866 633 q 863 655 866 651 q 856 660 860 658 q 847 662 852 662 q 837 663 842 663 q 787 649 814 663 q 732 615 760 636 q 676 566 703 594 q 625 510 649 539 q 582 455 601 482 q 552 406 563 427 z "},"A":{"ha":1100,"x_min":-70,"x_max":1252,"o":"m 1206 1091 q 1241 1079 1231 1091 q 1252 1048 1252 1067 q 1236 987 1252 1033 q 1193 874 1219 941 q 1131 724 1166 807 q 1057 553 1095 641 q 981 376 1019 465 q 909 210 942 288 q 1013 251 964 221 q 1100 329 1063 281 q 1117 352 1108 340 q 1134 374 1126 364 q 1151 399 1143 387 l 1167 389 q 1149 362 1158 376 q 1131 336 1142 350 q 1111 308 1121 322 q 1015 225 1069 254 q 897 183 960 195 l 863 100 q 848 72 856 85 q 827 48 840 59 q 795 26 814 36 q 747 8 776 16 q 717 -1 728 2 q 697 -5 705 -3 q 683 -7 689 -6 q 672 -7 677 -7 q 654 6 654 -7 q 657 21 654 11 q 668 49 660 31 q 690 94 676 67 q 724 162 703 122 l 765 242 q 692 288 725 261 q 629 343 659 315 q 568 395 599 371 q 505 435 538 420 q 360 265 437 356 q 195 66 284 174 q 159 26 180 47 q 113 -12 138 6 q 61 -42 88 -31 q 9 -54 35 -54 q -49 -32 -28 -54 q -69 27 -70 -10 q -48 112 -67 65 q 7 209 -28 160 q 90 304 42 258 q 193 387 137 351 q 311 445 249 423 q 438 467 373 467 q 469 466 453 467 q 499 462 485 465 q 705 695 615 596 q 865 864 795 794 q 987 978 935 933 q 1079 1047 1039 1022 q 1149 1082 1119 1072 q 1206 1091 1180 1091 m 1149 1030 q 1146 1041 1149 1038 q 1137 1044 1142 1044 q 1106 1036 1126 1044 q 1055 1003 1087 1027 q 976 938 1023 980 q 866 831 930 897 q 717 674 801 766 q 524 457 632 582 q 606 424 569 445 q 674 377 643 403 q 732 326 705 352 q 784 280 758 301 q 948 600 879 465 q 1062 825 1017 734 q 1128 965 1107 915 q 1149 1030 1149 1015 m 181 85 q 341 277 267 189 q 483 443 416 365 q 438 449 462 449 q 317 427 376 449 q 203 369 257 405 q 105 288 150 333 q 26 197 59 243 q -25 106 -7 150 q -44 30 -44 63 q -31 -15 -44 1 q 12 -30 -19 -30 q 57 -19 33 -30 q 102 8 80 -8 q 144 45 124 25 q 181 85 165 66 z "},"B":{"ha":1273,"x_min":0,"x_max":1340,"o":"m 1272 291 q 1219 230 1247 256 q 1157 184 1192 203 q 1076 152 1122 165 q 971 132 1031 139 q 883 75 930 101 q 785 31 836 49 q 678 1 733 12 q 565 -9 623 -9 q 444 5 484 -9 q 403 52 403 18 q 418 81 403 65 q 474 111 433 97 q 584 133 514 124 q 764 142 654 142 q 827 143 797 142 q 884 145 857 144 q 955 239 926 189 q 1004 340 985 290 q 1033 435 1024 390 q 1042 516 1042 481 q 1033 590 1042 559 q 1011 641 1025 620 q 886 622 951 622 q 812 661 812 622 q 820 685 812 672 q 846 708 829 697 q 888 725 863 718 q 945 732 913 732 q 1003 728 972 732 q 1067 715 1035 725 q 1118 777 1095 742 q 1157 848 1141 811 q 1181 920 1172 884 q 1189 990 1189 957 q 1181 1043 1189 1022 q 1159 1074 1174 1063 q 1122 1089 1144 1085 q 1069 1093 1099 1093 q 898 1063 987 1093 q 719 980 808 1032 q 544 857 631 927 q 380 707 458 787 q 237 542 303 627 q 124 375 172 457 q 49 219 76 293 q 22 85 22 144 q 37 33 22 49 q 72 17 51 17 q 109 23 90 17 q 149 46 127 28 q 200 96 172 64 q 266 179 228 128 q 329 267 292 215 q 411 382 366 319 q 506 518 456 446 q 608 668 556 591 q 713 824 660 745 q 816 978 766 903 q 835 999 823 990 q 865 1013 847 1008 q 887 1017 874 1015 q 912 1020 899 1019 q 935 1022 924 1021 q 949 1022 945 1022 q 962 1019 957 1022 q 967 1009 967 1017 q 964 1000 967 1006 q 958 990 961 995 l 437 197 q 350 95 394 135 q 261 32 306 55 q 171 1 217 10 q 81 -7 126 -7 q 51 -2 65 -7 q 25 13 36 2 q 7 39 14 23 q 0 79 0 56 q 27 223 0 144 q 104 386 55 301 q 220 558 153 471 q 367 725 288 644 q 535 877 447 806 q 715 1000 624 947 q 898 1082 807 1052 q 1075 1113 990 1113 q 1179 1105 1133 1113 q 1257 1081 1225 1098 q 1306 1034 1289 1063 q 1323 962 1323 1006 q 1308 892 1323 928 q 1266 818 1293 855 q 1202 748 1240 782 q 1119 688 1165 715 q 1153 659 1138 676 q 1180 620 1169 642 q 1198 568 1192 597 q 1204 503 1204 540 q 1190 419 1204 464 q 1149 330 1176 375 q 1085 240 1123 285 q 1000 156 1047 195 q 1090 176 1051 163 q 1158 208 1128 190 q 1212 252 1188 227 q 1258 309 1235 277 l 1273 329 q 1290 352 1281 340 q 1307 374 1299 364 q 1324 399 1316 387 l 1340 389 q 1322 362 1331 376 q 1304 336 1314 350 q 1284 308 1294 322 l 1272 291 m 565 7 q 655 16 613 7 q 734 40 697 24 q 804 77 772 56 q 864 124 836 99 q 815 123 840 124 q 763 123 790 123 q 592 115 658 123 q 488 97 526 108 q 437 73 451 85 q 424 51 424 60 q 460 17 424 27 q 565 7 497 7 m 893 638 q 945 644 920 638 q 994 662 970 650 q 950 687 974 680 q 900 694 926 694 q 850 685 870 694 q 829 660 829 676 q 835 649 829 653 q 849 642 840 644 q 870 639 858 640 q 893 638 881 638 z "},"C":{"ha":669,"x_min":-29,"x_max":951,"o":"m 680 308 q 562 165 620 224 q 444 67 504 105 q 321 11 384 28 q 189 -7 258 -7 q 29 40 87 -7 q -29 178 -29 87 q -6 314 -29 241 q 59 463 17 387 q 157 615 100 539 q 280 761 214 691 q 420 891 347 831 q 569 996 494 951 q 719 1066 644 1040 q 862 1091 794 1091 q 928 1071 905 1091 q 951 1014 951 1051 q 945 970 951 994 q 927 921 939 946 q 899 872 916 896 q 859 831 881 849 q 808 801 836 813 q 746 790 779 790 q 703 802 721 790 q 686 840 686 814 q 697 881 686 861 q 729 912 708 901 q 740 901 733 906 q 753 895 745 898 q 772 892 761 892 q 840 901 810 892 q 889 927 869 910 q 919 966 909 944 q 929 1014 929 988 q 911 1057 929 1043 q 860 1071 894 1071 q 751 1047 809 1071 q 633 981 693 1023 q 513 882 572 939 q 398 760 453 826 q 297 623 344 694 q 216 480 250 551 q 161 341 181 409 q 142 215 142 273 q 150 142 142 175 q 175 86 158 110 q 219 50 192 63 q 283 38 246 38 q 358 52 316 38 q 449 98 401 66 q 550 183 497 131 q 656 310 602 235 l 669 329 q 684 350 675 338 q 700 373 692 362 q 714 391 708 383 q 720 399 720 399 l 735 389 q 717 362 726 375 q 700 336 710 350 q 680 308 690 322 z "},"D":{"ha":1319,"x_min":0,"x_max":1408,"o":"m 1318 291 q 1247 211 1289 250 q 1145 141 1204 172 q 1009 91 1087 110 q 831 72 931 72 q 805 72 819 72 q 775 73 791 72 q 607 12 689 33 q 453 -9 525 -9 q 415 -6 433 -9 q 383 3 397 -3 q 362 20 369 9 q 354 47 354 31 q 361 68 354 57 q 385 88 367 78 q 435 102 403 97 q 517 108 467 108 q 555 107 533 108 q 603 105 577 106 q 658 101 629 103 q 714 97 686 99 q 848 189 781 135 q 977 305 915 242 q 1091 438 1038 368 q 1184 582 1144 508 q 1245 728 1223 655 q 1268 872 1268 802 q 1251 966 1268 925 q 1206 1035 1235 1007 q 1137 1077 1176 1063 q 1051 1091 1097 1091 q 892 1062 976 1091 q 722 983 808 1033 q 549 865 635 933 q 386 719 464 797 q 241 557 308 641 q 125 390 174 472 q 48 229 76 307 q 20 85 20 151 q 35 32 20 49 q 69 15 49 15 q 109 20 88 15 q 154 43 130 26 q 207 92 178 60 q 269 179 235 125 q 326 265 292 215 q 400 376 359 315 q 487 506 440 437 q 584 648 534 574 q 684 799 633 722 q 785 951 735 876 q 805 972 792 963 q 835 986 817 981 q 859 991 844 988 q 889 995 874 993 q 917 998 904 997 q 934 999 930 999 q 947 997 942 999 q 951 986 951 994 q 949 977 951 983 q 942 967 946 972 l 435 197 q 348 95 392 135 q 259 32 304 55 q 169 1 215 10 q 78 -7 124 -7 q 49 -2 63 -7 q 24 13 35 2 q 7 39 13 23 q 0 79 0 56 q 27 223 0 144 q 103 386 55 301 q 219 558 152 471 q 366 725 286 644 q 533 876 445 806 q 713 1000 622 947 q 896 1082 805 1052 q 1073 1113 988 1113 q 1323 1044 1238 1113 q 1408 835 1408 975 q 1385 688 1408 761 q 1321 544 1362 614 q 1223 408 1280 474 q 1101 284 1167 342 q 961 177 1035 226 q 813 91 888 128 l 832 91 q 1005 110 929 91 q 1137 160 1080 129 q 1235 230 1194 190 q 1305 309 1276 269 l 1319 329 q 1336 352 1327 340 q 1353 375 1345 365 q 1371 399 1362 388 l 1386 389 q 1368 362 1377 375 q 1350 336 1360 350 q 1331 308 1340 322 l 1318 291 m 517 88 q 443 84 471 88 q 400 74 415 81 q 381 60 385 68 q 376 45 376 53 q 397 18 376 26 q 453 9 418 9 q 563 27 504 9 q 683 78 621 45 q 589 85 634 82 q 517 88 544 88 z "},"E":{"ha":642,"x_min":-37,"x_max":895,"o":"m 653 308 q 568 194 613 251 q 470 93 524 138 q 352 21 417 49 q 210 -7 288 -7 q 24 41 85 -7 q -37 179 -37 88 q -23 267 -37 220 q 17 365 -9 315 q 80 465 43 415 q 164 560 117 515 q 264 646 210 606 q 379 715 319 685 q 349 799 349 753 q 364 867 349 833 q 406 934 378 902 q 470 995 433 967 q 555 1045 508 1024 q 655 1078 601 1066 q 767 1090 708 1090 q 824 1083 799 1090 q 864 1061 848 1075 q 888 1028 880 1047 q 895 987 895 1009 q 887 936 895 963 q 864 889 879 910 q 829 853 849 867 q 783 839 808 839 q 753 849 765 839 q 741 874 741 860 q 748 897 741 885 q 769 915 755 909 q 776 909 772 912 q 795 904 783 904 q 825 910 810 904 q 851 927 840 916 q 869 953 863 938 q 876 987 876 968 q 766 1073 876 1073 q 648 1049 701 1073 q 556 988 594 1025 q 497 904 518 950 q 476 815 476 858 q 484 755 476 781 q 558 770 521 765 q 635 776 596 776 q 695 761 672 776 q 717 719 717 745 q 709 690 717 705 q 683 665 701 676 q 636 647 665 653 q 564 640 607 640 q 475 652 515 640 q 408 686 436 665 q 293 591 345 647 q 202 472 240 535 q 143 342 164 408 q 122 215 122 276 q 132 141 122 174 q 163 85 143 108 q 209 50 182 62 q 269 38 236 38 q 381 64 328 38 q 478 133 433 91 q 565 227 524 175 q 642 329 606 279 q 658 352 649 340 q 675 375 667 365 q 693 399 684 388 l 708 389 q 690 362 699 375 q 673 336 683 350 q 653 308 663 322 m 613 667 q 647 671 632 667 q 673 683 663 676 q 690 700 684 690 q 696 719 696 710 q 681 746 696 735 q 633 756 665 756 q 563 749 597 756 q 495 730 528 742 q 543 682 513 698 q 613 667 574 667 z "},"F":{"ha":1008,"x_min":0,"x_max":1514,"o":"m 904 596 q 778 577 840 589 l 583 265 q 473 134 531 187 q 356 51 414 82 q 242 6 297 19 q 140 -7 186 -7 q 73 2 100 -7 q 30 27 47 11 q 7 63 14 42 q 0 108 0 84 q 20 184 0 144 q 80 267 41 225 q 173 352 118 310 q 298 433 228 394 q 451 506 368 472 q 628 566 535 540 l 788 828 q 859 929 822 885 q 936 1007 897 973 q 824 1038 879 1022 q 716 1067 769 1053 q 611 1088 663 1080 q 512 1097 560 1097 q 409 1085 452 1097 q 339 1051 367 1073 q 299 998 312 1029 q 285 928 285 967 q 291 892 285 908 q 308 867 297 876 q 292 840 303 848 q 263 833 281 833 q 223 852 238 833 q 208 903 208 872 q 226 974 208 937 q 282 1043 244 1011 q 377 1095 319 1074 q 515 1115 435 1115 q 625 1108 568 1115 q 740 1090 681 1101 q 858 1066 798 1079 q 976 1040 917 1052 q 1084 1103 1030 1079 q 1191 1140 1139 1127 q 1290 1158 1243 1153 q 1376 1163 1338 1163 q 1477 1142 1440 1163 q 1514 1084 1514 1122 q 1496 1032 1514 1056 q 1446 992 1478 1009 q 1366 967 1413 976 q 1259 958 1318 958 q 1153 964 1205 958 q 1050 981 1101 970 q 993 914 1021 949 q 941 838 966 878 l 794 603 q 923 619 856 613 q 974 672 947 648 q 1030 713 1001 696 q 1088 740 1058 730 q 1144 749 1117 749 q 1195 732 1178 749 q 1212 691 1212 715 q 1198 650 1212 666 q 1160 626 1185 635 q 1101 613 1136 617 q 1024 606 1067 608 q 987 603 1006 605 q 949 601 968 602 q 912 522 926 564 q 899 436 899 480 q 910 383 899 402 q 944 357 922 364 q 938 341 943 350 q 925 325 933 333 q 907 313 917 318 q 883 308 896 308 q 839 325 856 308 q 822 379 822 342 q 844 490 822 433 q 904 596 867 546 m 610 537 q 370 444 478 498 q 185 332 262 391 q 67 215 109 274 q 25 107 25 156 q 30 72 25 88 q 48 42 35 55 q 83 23 60 30 q 140 15 106 15 q 197 19 168 15 q 258 40 226 24 q 322 87 289 56 q 389 172 354 118 l 610 537 m 1376 1143 q 1226 1110 1299 1143 q 1088 1017 1154 1078 q 1185 1003 1138 1008 q 1278 998 1233 998 q 1360 1002 1322 998 q 1429 1017 1399 1007 q 1476 1043 1459 1027 q 1494 1084 1494 1060 q 1463 1129 1494 1115 q 1376 1143 1432 1143 m 1145 728 q 1097 721 1121 728 q 1049 699 1072 713 q 1004 665 1025 685 q 965 622 983 646 q 994 624 979 624 q 1024 626 1008 625 q 1104 632 1072 627 q 1155 644 1136 636 q 1182 664 1174 652 q 1190 692 1190 676 q 1178 718 1190 708 q 1145 728 1165 728 z "},"G":{"ha":829,"x_min":-101,"x_max":1182,"o":"m 867 1091 q 955 1061 928 1091 q 981 983 981 1032 l 985 981 q 993 993 990 988 q 997 1000 996 997 q 1000 1005 999 1003 q 1024 1035 1011 1023 q 1058 1052 1038 1047 q 1091 1060 1074 1056 q 1124 1067 1108 1064 q 1151 1073 1140 1071 q 1165 1076 1162 1076 q 1178 1073 1174 1076 q 1182 1063 1182 1071 q 1175 1045 1182 1058 l 665 178 q 548 1 603 78 q 440 -134 492 -76 q 337 -233 388 -192 q 235 -299 287 -274 q 127 -335 183 -324 q 10 -347 72 -347 q -75 -325 -49 -347 q -101 -267 -101 -304 q -86 -213 -101 -240 q -32 -155 -71 -186 q 72 -85 6 -124 q 238 3 137 -47 l 236 6 q 194 -4 219 -1 q 138 -7 170 -7 q 71 1 103 -7 q 16 27 40 8 q -22 77 -8 46 q -35 156 -35 108 q -11 296 -35 221 q 55 450 13 372 q 155 606 97 528 q 280 755 213 683 q 422 887 347 826 q 573 994 497 949 q 724 1065 649 1040 q 867 1091 799 1091 m 958 982 q 935 1048 958 1028 q 865 1068 912 1068 q 754 1045 813 1068 q 634 983 695 1023 q 511 886 572 942 q 393 765 449 831 q 288 624 337 699 q 203 473 239 550 q 147 317 167 395 q 126 165 126 239 q 136 106 126 131 q 162 67 146 82 q 198 44 178 51 q 239 37 218 37 q 302 49 270 37 q 371 89 335 60 q 450 165 408 117 q 543 284 492 213 q 658 452 595 355 q 799 677 722 549 l 930 891 q 951 940 944 918 q 958 982 958 963 m -74 -265 q -54 -308 -74 -295 q 11 -322 -34 -322 q 111 -300 61 -322 q 215 -232 161 -278 q 326 -110 268 -185 q 449 70 383 -35 q 541 217 499 151 q 613 332 582 283 l 609 335 q 539 236 569 278 q 481 161 508 194 q 429 105 454 129 q 377 60 404 81 q 318 20 350 39 q 245 -19 286 1 q 98 -98 158 -64 q -1 -161 37 -133 q -57 -214 -40 -189 q -74 -265 -74 -239 z "},"H":{"ha":1272,"x_min":0,"x_max":1743,"o":"m 1131 90 q 1091 44 1111 63 q 1050 14 1070 25 q 1009 -2 1029 3 q 971 -7 990 -7 q 907 14 928 -7 q 886 69 886 35 q 894 133 886 91 q 928 241 902 175 q 1001 398 953 306 q 1127 611 1049 490 q 1039 580 1083 595 q 949 551 994 565 q 833 514 890 532 q 719 476 776 495 l 599 275 q 384 38 503 117 q 115 -40 265 -40 q 31 -14 61 -40 q 0 58 0 12 q 43 167 0 115 q 160 265 85 218 q 336 356 235 313 q 554 441 437 399 l 852 924 q 871 952 861 939 q 890 978 881 966 q 665 953 764 977 q 496 887 565 929 q 390 787 426 845 q 353 659 353 728 q 359 623 353 638 q 376 598 365 607 q 360 571 371 578 q 331 563 349 563 q 291 583 306 563 q 276 634 276 603 q 320 773 276 707 q 448 890 365 840 q 647 970 530 940 q 908 999 764 999 q 1054 1107 972 1071 q 1227 1144 1135 1144 q 1283 1128 1265 1144 q 1301 1089 1301 1112 q 1277 1040 1301 1060 q 1212 1006 1252 1019 q 1122 986 1172 992 q 1022 979 1072 979 q 1010 961 1016 970 q 999 943 1004 953 l 735 503 l 945 570 q 1046 603 997 586 q 1145 638 1096 620 q 1268 815 1199 720 q 1426 1022 1338 910 q 1468 1070 1447 1048 q 1514 1109 1490 1093 q 1564 1135 1538 1126 q 1618 1144 1590 1144 q 1667 1138 1644 1144 q 1707 1120 1690 1132 q 1733 1091 1724 1108 q 1743 1051 1743 1074 q 1711 953 1743 1001 q 1623 860 1679 906 q 1489 772 1567 815 q 1321 688 1412 728 q 1241 569 1281 629 q 1167 450 1202 508 q 1103 338 1133 392 q 1052 235 1074 283 q 1019 147 1031 187 q 1007 79 1007 108 q 1014 52 1007 60 q 1031 44 1022 44 q 1075 62 1053 44 q 1124 119 1096 80 l 1272 329 q 1289 352 1280 340 q 1306 375 1298 365 q 1324 399 1315 388 l 1339 389 q 1321 362 1330 375 q 1303 336 1313 350 q 1283 308 1293 322 l 1131 90 m 24 58 q 47 2 24 21 q 111 -17 70 -17 q 169 -11 137 -17 q 235 12 201 -6 q 305 63 269 30 q 374 150 340 96 l 537 414 q 333 333 427 374 q 171 248 240 292 q 63 157 102 204 q 24 58 24 110 m 1724 1051 q 1708 1094 1724 1081 q 1671 1107 1693 1107 q 1621 1088 1642 1107 q 1577 1038 1601 1068 q 1466 893 1527 975 q 1342 719 1405 810 q 1495 797 1425 757 q 1616 880 1565 838 q 1695 965 1667 922 q 1724 1051 1724 1008 m 1283 1089 q 1270 1115 1283 1105 q 1231 1124 1258 1124 q 1178 1115 1204 1124 q 1128 1089 1153 1106 q 1080 1049 1103 1072 q 1036 999 1057 1026 q 1123 1006 1079 1000 q 1202 1022 1167 1011 q 1260 1049 1238 1033 q 1283 1089 1283 1065 z "},"I":{"ha":758,"x_min":0,"x_max":1292,"o":"m 769 308 q 719 243 746 276 q 657 182 693 210 q 570 131 620 153 q 451 98 521 109 q 293 -6 376 28 q 120 -40 210 -40 q 27 -27 55 -40 q 0 15 0 -14 q 14 45 0 28 q 63 75 27 61 q 161 98 99 88 q 320 107 223 107 l 326 107 q 339 125 333 116 q 353 146 346 135 l 803 883 q 876 978 835 935 q 655 953 753 977 q 488 888 557 930 q 382 788 419 847 q 345 659 345 730 q 351 623 345 638 q 368 598 356 607 q 352 571 363 578 q 322 563 341 563 q 283 583 298 563 q 267 634 267 603 q 313 775 267 709 q 442 891 359 842 q 640 970 524 941 q 894 999 755 999 q 1051 1107 967 1071 q 1219 1144 1135 1144 q 1275 1127 1258 1144 q 1292 1089 1292 1111 q 1268 1040 1292 1060 q 1205 1006 1244 1019 q 1115 987 1165 993 q 1014 980 1065 981 q 1002 962 1008 971 q 990 943 996 953 l 590 275 q 474 122 536 185 q 581 158 537 135 q 658 209 626 181 q 714 269 690 238 q 758 329 737 300 q 775 352 766 340 q 792 375 784 365 q 810 399 801 388 l 825 389 q 807 362 816 375 q 789 336 799 350 q 769 308 779 322 m 26 15 q 44 -11 26 -2 q 93 -19 62 -19 q 145 -16 119 -19 q 199 0 172 -12 q 255 32 226 11 q 311 88 283 53 q 166 80 222 88 q 79 61 110 72 q 37 37 48 49 q 26 15 26 24 m 1274 1089 q 1261 1115 1274 1105 q 1223 1124 1249 1124 q 1169 1115 1196 1124 q 1118 1089 1143 1106 q 1071 1049 1094 1072 q 1028 999 1049 1026 q 1114 1006 1070 1000 q 1193 1022 1158 1011 q 1251 1049 1228 1033 q 1274 1089 1274 1065 z "},"J":{"ha":838,"x_min":-194,"x_max":1372,"o":"m 849 308 q 728 194 800 242 q 571 112 656 147 l 528 41 q 403 -131 469 -58 q 266 -252 337 -204 q 121 -324 195 -300 q -29 -347 47 -347 q -151 -316 -108 -347 q -194 -232 -194 -284 q -171 -153 -194 -187 q -107 -92 -148 -119 q -11 -45 -67 -66 q 109 -6 44 -25 q 245 30 174 13 q 388 69 316 48 l 906 920 q 927 951 916 936 q 949 980 938 966 l 918 980 q 606 947 740 980 q 381 857 472 914 q 244 726 290 801 q 199 567 199 651 q 206 513 199 538 q 230 471 214 488 q 270 444 246 453 q 329 434 295 434 q 390 457 372 434 q 417 441 410 451 q 425 411 425 430 q 405 372 425 387 q 354 356 385 356 q 284 372 316 356 q 228 416 251 388 q 191 483 204 444 q 178 568 178 522 q 226 732 178 654 q 368 870 274 810 q 601 964 462 929 q 922 999 740 999 l 967 999 q 1039 1061 1000 1035 q 1121 1107 1078 1088 q 1208 1134 1163 1125 q 1298 1144 1253 1144 q 1353 1128 1335 1144 q 1372 1089 1372 1113 q 1347 1040 1372 1060 q 1283 1006 1323 1019 q 1194 986 1244 993 q 1093 980 1144 980 q 1081 962 1087 971 q 1069 943 1075 953 l 590 143 q 728 222 665 177 q 838 329 792 267 q 854 352 845 340 q 871 375 863 365 q 889 399 880 388 l 904 389 q 886 362 895 375 q 868 336 878 350 q 849 308 858 322 m -171 -232 q -160 -271 -171 -253 q -132 -301 -150 -288 q -89 -320 -114 -313 q -34 -327 -63 -327 q 43 -314 3 -327 q 126 -271 84 -300 q 210 -197 168 -242 q 291 -88 252 -152 l 372 45 q 238 9 304 26 q 110 -26 171 -8 q -1 -62 50 -43 q -91 -107 -53 -82 q -150 -162 -128 -131 q -171 -232 -171 -192 m 1353 1089 q 1341 1115 1353 1105 q 1302 1124 1328 1124 q 1249 1115 1275 1124 q 1198 1089 1222 1106 q 1150 1049 1173 1072 q 1107 999 1128 1026 q 1193 1006 1149 1000 q 1272 1022 1237 1011 q 1330 1049 1308 1033 q 1353 1089 1353 1065 z "},"K":{"ha":1024,"x_min":111,"x_max":1836,"o":"m 326 78 q 305 50 317 63 q 271 31 293 37 q 220 19 247 25 q 165 8 194 14 q 149 8 154 6 q 141 15 143 10 q 141 24 140 19 q 144 33 142 28 l 619 780 q 674 862 646 824 q 732 931 703 899 q 505 907 606 930 q 334 841 404 883 q 226 741 264 799 q 189 610 189 682 q 194 574 189 590 q 212 549 200 558 q 195 522 206 530 q 166 515 185 515 q 126 534 142 515 q 111 585 111 554 q 157 727 111 661 q 287 843 203 794 q 487 922 371 893 q 744 951 603 951 l 751 951 q 906 1061 828 1026 q 1063 1095 985 1095 q 1119 1080 1100 1095 q 1138 1040 1138 1065 q 1113 991 1138 1012 q 1049 957 1088 970 q 959 937 1009 944 q 858 931 909 931 q 834 894 846 915 l 326 78 m 1688 1078 q 1575 1057 1633 1078 q 1456 1002 1517 1036 q 1332 923 1395 967 q 1205 831 1269 878 q 1077 737 1142 784 q 951 650 1013 690 q 827 582 888 610 q 708 543 766 553 l 708 538 q 785 495 755 525 q 835 424 816 466 q 864 331 854 382 q 877 225 873 280 q 884 113 882 169 q 890 3 886 56 q 903 -95 894 -49 q 929 -176 911 -142 q 975 -230 947 -210 q 1049 -250 1004 -250 q 1109 -242 1082 -250 q 1155 -220 1136 -234 q 1184 -188 1174 -207 q 1194 -149 1194 -169 q 1185 -117 1194 -128 q 1166 -103 1176 -106 q 1168 -98 1166 -101 q 1174 -90 1170 -94 q 1184 -83 1178 -86 q 1198 -80 1190 -80 q 1218 -91 1212 -80 q 1224 -118 1224 -102 q 1207 -191 1224 -160 q 1161 -242 1190 -222 q 1094 -273 1132 -262 q 1017 -283 1057 -283 q 906 -260 951 -283 q 832 -200 861 -238 q 787 -110 803 -161 q 764 -1 772 -59 q 753 117 756 56 q 750 235 751 177 q 744 343 748 292 q 729 433 740 394 q 697 494 718 472 q 640 516 676 516 q 633 518 637 516 q 633 525 629 520 q 639 533 636 530 q 649 544 641 537 q 670 559 659 555 q 701 564 681 563 q 818 603 758 574 q 943 672 879 632 q 1072 760 1006 713 q 1203 856 1137 808 q 1334 950 1269 905 q 1463 1030 1399 995 q 1588 1086 1526 1065 q 1706 1107 1649 1107 q 1759 1102 1735 1107 q 1800 1088 1783 1098 q 1826 1061 1817 1078 q 1836 1022 1836 1045 q 1820 973 1836 990 q 1779 956 1803 956 q 1757 964 1767 956 q 1742 979 1746 971 q 1767 1028 1767 998 q 1747 1064 1767 1051 q 1688 1078 1728 1078 m 1067 1076 q 1014 1066 1040 1076 q 964 1040 988 1057 q 916 1001 939 1024 q 873 951 894 978 q 959 957 915 951 q 1038 973 1003 963 q 1096 1000 1074 984 q 1119 1040 1119 1017 q 1106 1066 1119 1056 q 1067 1076 1093 1076 z "},"L":{"ha":806,"x_min":28,"x_max":1335,"o":"m 1335 -148 q 1323 -201 1335 -174 q 1286 -248 1310 -227 q 1225 -282 1262 -269 q 1140 -295 1189 -295 q 1025 -278 1087 -295 q 897 -232 963 -260 q 761 -168 830 -203 q 623 -95 692 -132 q 488 -24 554 -58 q 360 37 421 11 q 247 -23 304 -1 q 133 -44 190 -44 q 54 -26 80 -44 q 28 21 28 -8 q 39 55 28 38 q 72 83 50 71 q 125 103 93 96 q 198 111 156 111 q 261 105 227 111 q 333 88 294 99 q 353 115 343 100 q 374 146 363 129 l 848 920 q 868 950 858 936 q 890 978 878 965 q 670 952 767 976 q 505 885 572 927 q 402 785 438 843 q 366 659 366 728 q 372 623 366 638 q 389 598 377 607 q 347 563 381 563 q 304 583 320 563 q 288 634 288 603 q 333 775 288 709 q 460 890 378 840 q 657 969 542 940 q 908 999 771 998 q 981 1061 942 1035 q 1063 1107 1020 1088 q 1150 1134 1105 1125 q 1240 1144 1194 1144 q 1295 1128 1277 1144 q 1313 1089 1313 1112 q 1289 1040 1313 1060 q 1226 1006 1265 1019 q 1136 986 1187 992 q 1034 979 1086 979 l 1011 943 l 671 381 q 614 294 644 337 q 548 210 583 251 q 477 133 514 170 q 400 66 440 97 q 534 15 464 44 q 678 -44 605 -14 q 825 -105 751 -75 q 968 -158 899 -134 q 1102 -195 1038 -181 q 1219 -210 1165 -210 q 1257 -205 1240 -210 q 1288 -191 1275 -199 q 1307 -171 1300 -182 q 1314 -148 1314 -160 q 1309 -132 1314 -137 q 1295 -122 1303 -126 q 1278 -118 1288 -119 q 1259 -117 1268 -117 q 1256 -106 1256 -112 q 1262 -89 1256 -97 q 1281 -82 1268 -82 q 1299 -86 1290 -82 q 1317 -99 1309 -91 q 1330 -120 1325 -108 q 1335 -148 1335 -132 m 171 86 q 117 80 139 86 q 80 64 94 74 q 59 43 66 55 q 53 19 53 31 q 59 1 53 9 q 75 -12 65 -7 q 99 -20 85 -17 q 127 -22 113 -22 q 172 -19 149 -22 q 216 -7 194 -16 q 261 17 238 1 q 307 57 283 32 q 235 78 269 71 q 171 86 201 86 m 1294 1089 q 1281 1115 1294 1106 q 1244 1124 1268 1124 q 1191 1115 1217 1124 q 1140 1089 1165 1106 q 1093 1049 1115 1072 q 1049 999 1070 1026 q 1135 1006 1092 1000 q 1215 1022 1179 1011 q 1272 1049 1250 1033 q 1294 1089 1294 1065 z "},"M":{"ha":1420,"x_min":-139,"x_max":1865,"o":"m 10 22 q 128 57 60 22 q 277 153 197 92 q 443 293 357 213 q 616 464 530 374 q 784 648 702 553 q 935 833 865 743 q 920 937 933 889 q 876 1020 906 985 q 800 1075 847 1056 q 685 1095 753 1095 q 568 1077 627 1095 q 455 1027 509 1058 q 354 953 401 995 q 273 864 307 911 q 218 767 238 817 q 199 671 199 717 q 206 616 199 642 q 228 570 213 590 q 267 540 243 551 q 326 528 292 528 q 387 551 369 528 q 414 535 406 546 q 422 506 422 524 q 402 466 422 481 q 351 451 382 451 q 280 466 313 451 q 224 510 248 482 q 188 577 201 538 q 174 663 174 616 q 195 768 174 715 q 253 872 217 822 q 340 966 290 922 q 448 1043 390 1010 q 568 1095 506 1076 q 694 1114 631 1114 q 856 1091 789 1114 q 965 1026 922 1067 q 1028 929 1008 985 q 1051 808 1049 873 q 1040 672 1053 743 q 1001 528 1026 600 q 1190 660 1090 591 q 1401 809 1290 730 q 1466 896 1432 851 q 1538 988 1499 940 q 1591 1048 1563 1019 q 1650 1100 1619 1077 q 1713 1135 1681 1122 q 1776 1149 1744 1149 q 1809 1145 1793 1149 q 1838 1133 1825 1141 q 1858 1112 1850 1125 q 1865 1081 1865 1099 q 1847 1035 1865 1057 q 1794 988 1829 1013 q 1707 935 1758 963 q 1588 871 1655 907 q 1487 728 1538 803 q 1388 577 1436 653 q 1297 427 1340 501 q 1223 288 1255 353 q 1173 169 1192 222 q 1155 79 1155 115 q 1162 52 1155 60 q 1179 44 1169 44 q 1223 60 1203 44 q 1260 103 1242 76 l 1420 329 q 1437 352 1428 340 q 1453 375 1446 365 q 1472 399 1463 388 l 1487 389 q 1469 362 1478 375 q 1451 336 1461 350 q 1431 308 1441 322 l 1267 74 q 1231 34 1249 49 q 1193 9 1213 18 q 1156 -3 1174 0 q 1119 -7 1137 -7 q 1063 15 1083 -7 q 1043 72 1043 37 q 1045 110 1043 85 q 1057 174 1047 135 q 1085 267 1066 213 q 1140 392 1105 321 q 1228 553 1175 464 q 1359 751 1282 642 q 1163 614 1256 678 q 988 492 1069 550 q 930 365 963 427 q 860 248 897 303 q 783 145 823 192 q 703 65 743 99 q 626 12 664 31 q 555 -7 588 -7 q 511 9 528 -7 q 494 51 494 25 q 517 123 494 85 q 584 205 540 160 q 692 300 628 249 q 835 410 756 351 q 873 508 856 458 q 903 608 890 558 q 925 706 917 658 q 935 799 933 754 q 824 664 883 733 q 703 525 765 594 q 575 390 640 456 q 445 265 510 324 q 318 156 381 206 q 197 69 255 106 q 86 13 138 33 q -8 -7 35 -7 q -61 -1 -37 -7 q -102 17 -85 6 q -129 46 -119 29 q -139 83 -139 63 q -123 126 -139 109 q -82 144 -106 144 q -59 136 -70 144 q -45 121 -49 129 q -72 74 -72 105 q -67 53 -72 63 q -54 37 -63 44 q -29 26 -44 30 q 10 22 -13 22 m 519 53 q 555 17 519 17 q 609 44 577 17 q 676 120 640 72 q 748 232 711 168 q 817 369 784 297 q 691 271 747 317 q 597 186 635 226 q 539 114 559 147 q 519 53 519 81 m 1843 1084 q 1835 1103 1843 1096 q 1811 1111 1827 1111 q 1764 1092 1786 1111 q 1717 1042 1742 1073 q 1668 979 1694 1013 q 1615 907 1642 944 q 1720 965 1677 940 q 1791 1010 1764 990 q 1831 1048 1819 1031 q 1843 1084 1843 1066 z "},"N":{"ha":1331,"x_min":-139,"x_max":2271,"o":"m 2122 1126 q 1999 1106 2065 1126 q 1860 1050 1933 1086 q 1710 966 1787 1015 q 1556 859 1633 917 q 1402 737 1478 801 q 1254 606 1326 672 q 1229 465 1247 538 q 1182 324 1210 392 q 1117 196 1154 256 q 1036 91 1081 135 q 942 19 992 46 q 835 -7 891 -7 q 792 6 808 -7 q 776 45 776 19 q 802 120 776 72 q 875 231 828 168 q 986 366 922 293 q 1127 516 1050 439 q 1135 587 1132 551 q 1138 658 1138 623 q 1125 823 1138 752 q 1085 945 1113 894 q 907 713 1001 829 q 715 490 813 597 q 518 290 617 383 q 324 128 419 197 q 142 20 229 60 q -17 -19 56 -19 q -73 -12 -50 -19 q -110 7 -96 -5 q -132 36 -125 19 q -139 74 -139 53 q -134 99 -139 87 q -122 122 -130 112 q -102 138 -113 132 q -78 144 -91 144 q -55 136 -66 144 q -41 121 -44 129 q -67 74 -67 105 q -63 53 -67 63 q -50 37 -59 44 q -25 26 -40 30 q 14 22 -9 22 q 161 60 80 22 q 332 163 242 97 q 517 319 422 229 q 709 515 613 410 q 897 735 805 619 q 1073 967 990 850 q 955 1064 1029 1034 q 768 1094 881 1094 q 642 1081 702 1094 q 531 1042 582 1067 q 438 983 479 1017 q 367 908 397 949 q 322 823 338 868 q 306 732 306 778 q 313 677 306 703 q 336 631 320 651 q 376 601 351 612 q 435 590 401 590 q 496 613 478 590 q 523 596 515 607 q 531 567 531 585 q 511 527 531 542 q 460 512 491 512 q 389 527 422 512 q 333 571 357 543 q 297 638 310 599 q 283 724 283 677 q 300 825 283 776 q 349 917 317 874 q 424 997 380 960 q 523 1059 469 1033 q 642 1099 578 1085 q 776 1114 706 1114 q 904 1106 842 1114 q 1019 1078 966 1098 q 1117 1027 1073 1059 q 1193 949 1161 996 q 1242 838 1224 902 q 1259 690 1259 774 q 1257 640 1259 666 q 1407 771 1329 707 q 1563 892 1484 835 q 1719 998 1641 949 q 1871 1081 1797 1046 q 2013 1136 1945 1116 q 2140 1156 2081 1156 q 2193 1151 2169 1156 q 2234 1136 2217 1147 q 2261 1110 2251 1126 q 2271 1070 2271 1094 q 2255 1022 2271 1039 q 2214 1005 2238 1005 q 2191 1012 2202 1005 q 2177 1028 2181 1019 q 2201 1077 2201 1047 q 2182 1113 2201 1099 q 2122 1126 2163 1126 m 835 14 q 927 52 883 14 q 1010 154 972 90 q 1077 302 1049 218 q 1122 477 1106 385 q 992 338 1051 405 q 891 213 933 270 q 825 113 849 156 q 801 44 801 69 q 811 20 801 27 q 835 14 820 14 z "},"O":{"ha":810,"x_min":-19,"x_max":968,"o":"m 505 1007 q 452 920 488 970 q 374 808 417 870 q 285 674 331 747 q 202 519 239 601 q 141 348 165 438 q 117 161 117 258 q 122 106 117 133 q 140 58 127 79 q 172 25 152 38 q 222 12 192 12 q 309 41 260 12 q 412 122 358 71 q 523 240 466 172 q 633 384 579 308 q 733 541 686 460 q 816 698 781 622 q 872 843 851 775 q 892 964 892 912 q 868 1043 892 1016 q 794 1070 844 1070 q 720 1055 760 1070 q 643 1013 681 1040 q 569 950 605 987 q 507 872 534 914 q 465 783 481 829 q 449 690 449 736 q 456 630 449 653 q 475 593 463 606 q 502 574 487 579 q 534 569 518 569 q 555 570 542 569 q 574 582 567 572 q 591 564 582 576 q 601 535 601 553 q 588 506 601 519 q 546 492 575 492 q 494 509 517 492 q 457 551 472 525 q 434 611 442 578 q 426 678 426 644 q 443 782 426 731 q 489 879 460 833 q 556 964 518 925 q 637 1032 594 1003 q 722 1076 679 1060 q 805 1092 765 1092 q 878 1075 847 1092 q 928 1029 908 1058 q 958 960 949 1000 q 968 874 968 920 q 952 744 968 814 q 908 601 937 674 q 838 454 879 527 q 744 313 796 381 q 631 187 692 245 q 502 85 570 128 q 359 18 433 42 q 206 -7 284 -7 q 113 4 154 -7 q 42 40 71 15 q -3 106 13 65 q -19 205 -19 146 q 0 327 -19 266 q 50 448 19 388 q 123 564 82 507 q 209 675 165 622 q 298 778 253 729 q 382 870 343 827 q 450 949 421 913 q 494 1013 480 985 l 505 1007 z "},"P":{"ha":1300,"x_min":0,"x_max":1479,"o":"m 1112 1113 q 1278 1097 1209 1113 q 1393 1049 1348 1080 q 1458 973 1438 1017 q 1479 873 1479 928 q 1452 734 1479 806 q 1378 595 1425 663 q 1266 468 1331 528 q 1127 363 1202 408 q 971 291 1053 317 q 808 265 890 265 q 731 272 761 265 q 682 290 700 278 q 658 316 665 301 q 651 347 651 331 q 667 388 651 372 q 707 404 684 404 q 738 394 727 404 q 753 369 749 385 q 745 337 747 352 q 751 310 744 322 q 777 292 759 299 q 826 285 794 285 q 952 313 890 285 q 1070 389 1014 342 q 1173 496 1126 435 q 1255 622 1220 557 q 1309 751 1290 687 q 1328 870 1328 816 q 1321 952 1328 913 q 1291 1023 1314 992 q 1223 1073 1267 1054 q 1106 1092 1179 1092 q 969 1070 1040 1092 q 824 1012 897 1049 q 677 923 751 974 q 534 810 604 872 q 399 682 464 749 q 276 543 333 614 q 173 402 219 473 q 93 266 126 332 q 41 142 59 201 q 22 36 22 83 q 37 -16 22 0 q 72 -33 51 -33 q 317 183 176 -33 q 376 272 341 220 q 454 388 411 324 q 546 522 497 451 q 647 670 595 594 q 751 825 699 747 q 853 978 803 903 q 872 999 860 990 q 902 1013 884 1008 q 924 1017 911 1015 q 949 1020 936 1019 q 972 1022 961 1021 q 986 1022 982 1022 q 999 1019 994 1022 q 1003 1009 1003 1017 q 1001 1000 1003 1006 q 994 990 998 995 l 484 201 q 296 6 397 68 q 81 -56 194 -56 q 51 -52 65 -56 q 25 -37 36 -47 q 7 -10 14 -26 q 0 30 0 6 q 29 175 0 94 q 110 344 58 256 q 232 524 161 433 q 385 701 302 615 q 560 861 468 786 q 746 992 652 936 q 933 1080 840 1048 q 1112 1113 1026 1113 z "},"Q":{"ha":811,"x_min":-18,"x_max":1049,"o":"m 633 1058 q 509 965 572 1020 q 389 841 447 910 q 282 692 332 772 q 196 525 233 613 q 139 346 160 438 q 118 161 118 253 q 120 123 118 142 q 128 88 123 104 q 146 126 133 107 q 181 160 159 145 q 232 185 202 176 q 299 194 262 194 q 375 182 340 194 q 443 150 410 170 q 548 268 495 202 q 650 405 601 333 q 742 552 699 477 q 816 698 785 627 q 866 831 848 768 q 885 942 885 894 q 861 1022 885 994 q 787 1049 837 1049 q 701 1027 742 1049 q 630 968 661 1005 q 581 885 599 932 q 563 789 563 838 q 570 747 563 764 q 589 720 577 731 q 616 706 600 710 q 649 701 631 701 q 669 705 657 701 q 689 718 682 708 q 706 700 697 712 q 715 672 715 689 q 702 642 715 655 q 660 628 690 628 q 574 668 607 628 q 540 787 540 708 q 560 889 540 838 q 615 980 581 940 q 697 1045 650 1020 q 797 1070 744 1070 q 870 1053 840 1070 q 921 1008 901 1037 q 951 939 941 978 q 960 853 960 899 q 946 732 960 797 q 904 597 931 666 q 837 456 876 527 q 748 319 797 385 q 640 196 699 253 q 516 94 582 138 q 605 5 562 53 q 693 -83 649 -42 q 785 -151 737 -124 q 888 -178 833 -178 q 936 -172 912 -178 q 981 -151 960 -166 q 1016 -110 1001 -135 q 1033 -48 1030 -85 l 1049 -48 q 1034 -134 1049 -95 q 994 -200 1020 -172 q 933 -242 969 -227 q 853 -258 897 -258 q 771 -242 808 -258 q 701 -201 734 -227 q 639 -142 668 -176 q 583 -72 610 -108 q 530 1 556 -35 q 477 70 504 38 q 346 14 414 34 q 207 -7 278 -7 q 114 4 156 -7 q 43 40 72 15 q -2 106 14 65 q -18 205 -18 146 q 9 363 -18 280 q 84 528 37 445 q 194 692 131 612 q 330 844 258 773 q 477 973 401 915 q 627 1069 553 1031 l 633 1058 m 223 12 q 314 43 263 12 q 421 128 365 74 q 364 165 394 151 q 299 178 333 178 q 223 165 255 178 q 172 131 191 151 q 146 88 152 110 q 149 47 140 65 q 180 21 161 31 q 223 12 198 12 z "},"R":{"ha":1235,"x_min":0,"x_max":1433,"o":"m 1227 -283 q 1111 -263 1160 -283 q 1027 -210 1063 -244 q 969 -133 992 -177 q 931 -37 946 -88 q 906 67 915 13 q 888 174 896 122 q 871 273 880 226 q 849 358 863 320 q 733 347 791 347 q 680 361 700 347 q 659 399 659 375 q 666 428 659 414 q 685 453 672 442 q 715 471 697 464 q 753 478 732 478 q 849 460 808 478 q 922 411 890 442 q 1059 500 994 446 q 1174 619 1124 555 q 1253 750 1224 683 q 1282 880 1282 818 q 1274 957 1282 922 q 1242 1015 1265 991 q 1178 1052 1219 1039 q 1071 1065 1137 1065 q 897 1034 987 1065 q 718 949 808 1003 q 543 822 629 894 q 379 668 456 750 q 236 500 301 587 q 123 329 171 413 q 49 170 76 246 q 22 36 22 95 q 37 -16 22 0 q 72 -33 51 -33 q 181 22 124 -33 q 308 183 238 76 q 367 270 333 220 q 442 381 401 321 q 530 510 483 442 q 627 653 577 579 q 728 803 677 726 q 829 955 779 879 q 848 976 836 967 q 878 990 860 985 q 900 993 888 992 q 925 996 913 995 q 948 998 938 997 q 963 999 958 999 q 975 996 970 999 q 980 985 980 993 q 977 977 980 982 q 971 966 974 972 l 476 201 q 292 6 389 68 q 81 -56 194 -56 q 51 -52 65 -56 q 25 -37 36 -47 q 7 -10 14 -26 q 0 30 0 6 q 27 174 0 94 q 104 340 55 254 q 220 515 153 426 q 366 686 287 603 q 534 841 446 769 q 714 968 622 914 q 897 1053 806 1022 q 1074 1084 988 1084 q 1345 1034 1257 1084 q 1433 883 1433 983 q 1415 778 1433 830 q 1364 676 1397 726 q 1285 583 1331 627 q 1186 500 1240 538 q 1072 432 1133 462 q 947 381 1010 401 q 993 298 974 344 q 1027 199 1013 251 q 1053 95 1042 148 q 1078 -8 1065 42 q 1105 -102 1090 -58 q 1141 -179 1120 -147 q 1190 -231 1162 -212 q 1259 -250 1219 -250 q 1316 -243 1290 -250 q 1360 -223 1341 -235 q 1391 -195 1379 -211 q 1408 -161 1403 -179 l 1426 -166 q 1398 -217 1419 -195 q 1348 -253 1376 -239 q 1287 -275 1319 -268 q 1227 -283 1255 -283 m 734 364 q 840 380 786 364 q 802 434 825 415 q 744 454 779 454 q 698 439 715 454 q 681 400 681 424 q 695 373 681 381 q 734 364 709 364 z "},"S":{"ha":865,"x_min":-78,"x_max":1490,"o":"m 129 184 q 57 173 90 184 q -2 141 23 162 q -41 91 -26 121 q -55 25 -55 62 q -44 -26 -55 -3 q -13 -66 -34 -49 q 40 -92 8 -83 q 115 -101 72 -101 q 242 -67 183 -101 q 357 27 302 -32 q 464 166 413 87 q 568 334 516 244 q 672 517 619 423 q 782 700 725 610 q 901 868 839 789 q 1035 1006 964 947 q 1188 1100 1106 1065 q 1363 1135 1269 1135 q 1456 1106 1423 1135 q 1490 1021 1490 1077 q 1480 964 1490 990 q 1453 921 1469 939 q 1418 894 1438 903 q 1378 884 1398 884 q 1341 897 1356 884 q 1327 927 1327 910 q 1342 961 1327 949 q 1422 987 1394 961 q 1449 1050 1449 1013 q 1423 1101 1449 1088 q 1353 1115 1398 1115 q 1224 1081 1284 1115 q 1110 986 1164 1046 q 1008 847 1057 926 q 911 678 959 767 q 814 493 863 588 q 712 309 765 399 q 599 140 658 219 q 470 1 540 60 q 321 -94 401 -59 q 144 -128 240 -128 q 38 -116 81 -128 q -31 -82 -5 -103 q -67 -33 -56 -60 q -78 24 -78 -5 q -62 98 -78 65 q -17 154 -45 131 q 49 191 12 178 q 129 204 87 204 l 129 184 z "},"T":{"ha":814,"x_min":63,"x_max":1535,"o":"m 1503 1188 q 1519 1178 1512 1185 q 1530 1164 1524 1173 q 1535 1141 1535 1155 q 1510 1058 1535 1094 q 1441 996 1485 1022 q 1335 957 1397 971 q 1198 944 1273 944 q 1103 949 1149 944 q 1011 963 1057 954 l 331 -62 q 319 -78 326 -70 q 301 -92 312 -85 q 274 -104 290 -99 q 231 -114 257 -110 q 195 -116 207 -118 q 180 -108 183 -114 q 180 -95 177 -103 q 187 -80 183 -87 q 233 -8 204 -53 q 298 93 261 36 q 377 217 334 150 q 467 356 421 284 q 562 502 514 428 q 657 648 610 576 q 748 787 704 720 q 828 911 791 854 q 848 932 835 923 q 878 946 860 941 q 902 951 887 948 q 934 958 918 955 q 964 964 950 961 q 981 966 977 966 l 981 969 q 843 1004 911 984 q 709 1041 776 1024 q 576 1072 642 1059 q 441 1084 509 1084 q 289 1060 355 1084 q 178 995 223 1037 q 109 899 133 954 q 86 781 86 844 q 95 713 86 744 q 123 657 104 681 q 169 619 141 633 q 237 606 198 606 q 298 628 280 606 q 325 612 317 623 q 333 583 333 601 q 313 543 333 558 q 262 528 293 528 q 193 542 228 528 q 129 587 158 556 q 81 666 100 617 q 63 783 63 714 q 91 913 63 852 q 172 1018 119 974 q 299 1089 225 1063 q 465 1115 373 1115 q 661 1103 565 1115 q 855 1078 758 1092 q 1050 1052 951 1064 q 1254 1040 1149 1040 q 1358 1047 1310 1040 q 1441 1067 1406 1054 q 1494 1100 1475 1081 q 1514 1143 1514 1119 q 1511 1159 1514 1152 q 1505 1169 1508 1165 q 1497 1176 1501 1173 l 1503 1188 z "},"U":{"ha":903,"x_min":-47,"x_max":1242,"o":"m 766 98 q 731 54 749 74 q 693 21 713 35 q 649 0 673 8 q 596 -7 625 -7 q 525 11 548 -7 q 502 64 502 28 q 505 95 502 78 q 521 144 508 113 q 560 224 534 175 q 633 349 587 273 q 749 534 679 426 q 920 792 819 642 l 916 797 q 663 508 772 632 q 470 295 554 385 q 324 148 387 206 q 211 56 262 90 q 117 8 160 22 q 28 -6 73 -6 q -25 15 -3 -6 q -47 72 -47 35 q -22 172 -47 114 q 42 297 2 230 q 132 438 81 365 q 235 584 182 511 q 339 725 288 657 q 428 852 389 794 q 492 953 468 910 q 517 1020 517 997 q 494 1071 517 1058 q 428 1084 471 1084 q 354 1074 391 1084 q 282 1046 317 1064 q 218 1005 248 1028 q 166 953 188 981 q 132 898 144 926 q 119 840 119 869 q 124 799 119 816 q 135 771 128 782 q 152 753 142 760 q 171 744 161 747 q 158 701 171 718 q 119 685 144 685 q 96 688 108 685 q 75 700 85 692 q 60 724 66 709 q 54 763 54 740 q 70 847 54 805 q 114 929 85 890 q 182 1003 142 969 q 268 1062 221 1037 q 369 1101 315 1087 q 479 1116 422 1116 q 598 1088 562 1116 q 635 1013 635 1059 q 611 935 635 982 q 550 832 588 889 q 464 711 513 775 q 364 580 415 647 q 265 446 313 513 q 178 319 216 380 q 117 206 140 258 q 94 114 94 153 q 96 98 94 106 q 104 83 99 90 q 117 72 109 76 q 136 68 125 68 q 159 70 147 68 q 191 82 172 72 q 238 111 210 92 q 304 165 265 131 q 395 251 342 199 q 516 378 447 303 q 674 554 585 453 q 873 785 762 654 q 910 830 892 808 q 947 875 928 851 q 986 925 966 899 q 1031 982 1007 951 q 1066 1027 1051 1009 q 1094 1057 1081 1045 q 1120 1077 1108 1069 q 1149 1089 1133 1084 q 1181 1098 1168 1095 q 1201 1102 1193 1101 q 1216 1103 1210 1103 q 1227 1103 1222 1103 q 1242 1091 1242 1103 q 1240 1078 1242 1085 q 1227 1054 1237 1070 q 1200 1009 1218 1038 q 1153 935 1183 981 q 1095 847 1131 901 q 1015 725 1059 792 q 923 583 971 658 q 827 438 874 509 q 738 302 781 366 q 665 190 696 238 q 628 121 639 149 q 617 76 617 93 q 627 49 617 57 q 656 41 638 41 q 680 45 669 41 q 704 60 692 50 q 730 87 716 71 q 760 127 743 103 l 903 329 q 919 352 910 340 q 936 375 928 365 q 954 399 945 388 l 969 389 q 951 362 960 375 q 934 336 944 350 q 914 308 924 322 l 766 98 z "},"V":{"ha":764,"x_min":51,"x_max":1128,"o":"m 538 1020 q 515 1071 538 1058 q 449 1084 492 1084 q 375 1074 412 1084 q 303 1046 338 1064 q 239 1005 269 1028 q 187 953 209 981 q 153 898 165 926 q 140 840 140 869 q 144 799 140 816 q 156 771 149 782 q 173 753 163 760 q 192 744 182 747 q 178 701 192 718 q 140 685 165 685 q 117 688 128 685 q 96 700 106 692 q 81 724 87 709 q 75 763 75 740 q 91 847 75 805 q 135 929 106 890 q 202 1003 163 969 q 289 1062 242 1037 q 390 1101 336 1087 q 500 1116 443 1116 q 619 1088 583 1116 q 656 1013 656 1059 q 635 935 656 982 q 583 831 615 888 q 508 709 550 774 q 423 577 467 644 q 338 443 379 510 q 263 315 296 376 q 210 201 231 254 q 190 110 190 149 q 193 94 190 102 q 201 79 196 85 q 214 68 206 72 q 233 64 222 64 q 306 85 263 64 q 400 143 349 106 q 506 231 450 181 q 619 342 562 282 q 733 467 676 401 q 840 601 789 533 q 935 735 891 669 q 1010 863 978 802 q 1060 977 1042 924 q 1078 1069 1078 1030 q 1068 1110 1078 1090 q 1034 1139 1058 1130 q 1037 1150 1034 1143 q 1045 1163 1040 1156 q 1058 1173 1050 1169 q 1076 1178 1065 1178 q 1115 1158 1102 1178 q 1128 1104 1128 1138 q 1109 1010 1128 1065 q 1056 890 1090 956 q 975 751 1022 824 q 872 602 928 678 q 753 453 816 527 q 624 311 690 378 q 490 186 558 244 q 359 85 423 128 q 235 19 294 43 q 125 -6 176 -6 q 73 15 94 -6 q 51 72 51 35 q 72 172 51 114 q 127 297 92 230 q 205 438 161 365 q 294 584 249 511 q 383 725 340 657 q 461 852 427 794 q 517 953 496 910 q 538 1020 538 997 z "},"W":{"ha":1288,"x_min":51,"x_max":1593,"o":"m 538 1020 q 515 1071 538 1058 q 449 1084 492 1084 q 375 1074 412 1084 q 303 1046 338 1064 q 239 1005 269 1028 q 187 953 209 981 q 153 898 165 926 q 140 840 140 869 q 144 799 140 816 q 156 771 149 782 q 173 753 163 760 q 192 744 182 747 q 178 701 192 718 q 140 685 165 685 q 117 688 128 685 q 96 700 106 692 q 81 724 87 709 q 75 763 75 740 q 91 847 75 805 q 135 929 106 890 q 202 1003 163 969 q 289 1062 242 1037 q 390 1101 336 1087 q 500 1116 443 1116 q 619 1088 583 1116 q 656 1013 656 1059 q 635 935 656 982 q 583 831 615 888 q 508 709 550 774 q 423 577 467 644 q 338 443 379 510 q 263 315 296 376 q 210 201 231 254 q 190 110 190 149 q 201 72 190 85 q 238 58 212 58 q 299 69 264 58 q 377 103 334 81 q 468 156 419 125 q 569 224 517 186 q 600 380 577 301 q 657 537 624 460 q 734 687 691 614 q 824 824 776 760 q 923 942 872 888 q 1024 1034 974 995 q 1121 1094 1074 1072 q 1209 1115 1168 1115 q 1250 1108 1233 1115 q 1278 1087 1267 1100 q 1295 1057 1290 1074 q 1301 1021 1301 1040 q 1279 934 1301 984 q 1219 826 1258 884 q 1126 703 1180 767 q 1009 572 1073 638 q 874 440 945 506 q 728 314 802 374 q 715 167 715 239 q 719 128 715 147 q 731 95 722 109 q 755 72 740 81 q 792 64 769 64 q 883 93 830 64 q 997 174 937 123 q 1122 293 1058 224 q 1247 440 1186 362 q 1361 602 1308 518 q 1454 768 1415 686 q 1514 925 1493 849 q 1531 1063 1535 1001 q 1513 1111 1528 1095 q 1473 1137 1497 1128 q 1479 1156 1473 1147 q 1494 1172 1485 1165 q 1514 1183 1503 1179 q 1535 1188 1524 1188 q 1577 1169 1561 1188 q 1593 1116 1593 1150 q 1568 968 1593 1051 q 1498 794 1542 885 q 1394 608 1454 703 q 1265 424 1334 513 q 1119 257 1195 335 q 968 121 1044 179 q 820 28 892 63 q 684 -6 747 -6 q 636 3 658 -6 q 599 29 615 11 q 574 76 583 47 q 565 145 565 104 q 565 168 565 157 q 566 192 565 180 q 442 111 503 148 q 324 49 381 75 q 217 9 267 23 q 125 -6 167 -6 q 73 15 94 -6 q 51 72 51 35 q 72 172 51 114 q 127 297 92 230 q 205 438 161 365 q 294 584 249 511 q 383 725 340 657 q 461 852 427 794 q 517 953 496 910 q 538 1020 538 997 m 1273 1021 q 1258 1071 1273 1051 q 1209 1091 1242 1091 q 1125 1061 1170 1091 q 1032 980 1079 1032 q 940 858 985 928 q 854 705 894 787 q 783 533 814 623 q 734 351 751 442 q 868 469 801 408 q 994 592 934 530 q 1105 715 1053 654 q 1193 832 1156 776 q 1252 936 1231 888 q 1273 1021 1273 984 z "},"X":{"ha":1157,"x_min":0,"x_max":1666,"o":"m 774 -7 q 660 26 696 -7 q 624 118 624 58 q 635 209 624 160 q 667 310 647 258 l 665 312 q 522 178 593 238 q 382 78 450 119 q 251 15 314 37 q 135 -7 189 -7 q 35 20 69 -7 q 0 88 0 47 q 4 114 0 101 q 16 136 8 126 q 34 152 24 146 q 59 158 45 158 q 88 149 76 158 q 103 131 100 140 q 77 84 77 115 q 99 47 77 62 q 167 31 121 31 q 272 52 217 31 q 384 110 326 73 q 502 200 442 148 q 621 315 562 252 q 738 450 681 378 q 848 597 795 521 q 906 682 877 640 q 957 768 935 725 q 994 855 980 811 q 1008 942 1008 898 q 1002 982 1008 963 q 981 1018 996 1002 q 939 1043 965 1033 q 873 1053 913 1053 q 769 1033 817 1053 q 685 982 721 1014 q 629 908 649 949 q 608 821 608 866 q 623 775 608 796 q 657 750 637 755 q 645 715 657 731 q 608 699 633 699 q 585 702 597 699 q 564 714 574 706 q 549 738 555 723 q 543 776 543 753 q 554 844 543 809 q 586 911 565 878 q 635 974 606 944 q 701 1025 665 1003 q 782 1059 738 1047 q 875 1072 826 1072 q 953 1061 919 1072 q 1008 1031 986 1051 q 1042 984 1031 1011 q 1053 924 1053 957 q 1050 872 1053 898 q 1039 822 1047 847 l 1041 821 q 1182 946 1112 890 q 1320 1041 1252 1001 q 1451 1101 1388 1080 q 1575 1122 1515 1122 q 1642 1102 1618 1122 q 1666 1045 1666 1083 q 1645 978 1666 1013 q 1589 915 1624 944 q 1508 867 1553 885 q 1415 848 1463 848 q 1370 860 1385 848 q 1356 887 1356 872 q 1366 917 1356 903 q 1394 934 1376 930 q 1415 915 1399 924 q 1458 906 1431 906 q 1526 917 1493 906 q 1585 948 1559 928 q 1627 992 1611 967 q 1642 1044 1642 1017 q 1625 1088 1642 1074 q 1574 1101 1607 1101 q 1451 1071 1516 1101 q 1319 988 1386 1040 q 1187 866 1253 935 q 1061 717 1121 796 q 949 554 1001 638 q 859 390 897 470 q 800 239 822 310 q 778 113 778 167 q 794 58 778 74 q 831 42 810 42 q 858 45 842 42 q 895 58 874 49 q 942 87 916 68 q 1001 138 969 106 q 1072 216 1033 169 q 1157 329 1111 263 q 1174 352 1165 340 q 1190 375 1183 365 q 1208 399 1199 388 l 1224 389 q 1206 362 1215 375 q 1188 336 1198 350 q 1168 308 1178 322 q 1072 184 1117 235 q 990 97 1028 132 q 920 41 951 62 q 861 10 888 21 q 813 -4 835 -1 q 774 -7 791 -7 z "},"Y":{"ha":946,"x_min":-47,"x_max":1304,"o":"m 944 291 q 814 161 890 216 q 649 66 737 107 q 506 -107 581 -30 q 357 -237 432 -183 q 207 -319 281 -290 q 63 -347 132 -347 q -19 -325 8 -347 q -47 -265 -47 -302 q -26 -200 -47 -228 q 29 -148 -6 -172 q 114 -104 65 -124 q 220 -65 163 -84 q 341 -26 277 -46 q 469 17 404 -6 q 487 43 478 30 q 505 70 496 56 q 534 115 513 82 q 586 193 556 147 q 653 296 616 240 q 729 411 690 352 q 807 529 768 470 q 880 639 846 588 q 941 730 914 690 q 982 792 967 770 l 978 797 q 725 508 834 632 q 532 295 616 385 q 386 148 449 206 q 273 56 324 90 q 178 8 222 22 q 90 -6 135 -6 q 37 15 59 -6 q 15 72 15 35 q 40 172 15 114 q 103 297 64 230 q 193 438 143 365 q 297 584 244 511 q 400 725 350 657 q 490 852 451 794 q 554 953 530 910 q 578 1020 578 997 q 556 1071 578 1058 q 490 1084 533 1084 q 416 1074 453 1084 q 344 1046 378 1064 q 280 1005 310 1028 q 228 953 250 981 q 194 898 206 926 q 181 840 181 869 q 185 799 181 816 q 197 771 190 782 q 214 753 204 760 q 233 744 223 747 q 219 701 233 718 q 181 685 206 685 q 158 688 169 685 q 137 700 147 692 q 122 724 128 709 q 116 763 116 740 q 132 847 116 805 q 176 929 147 890 q 243 1003 204 969 q 330 1062 283 1037 q 431 1101 377 1087 q 541 1116 484 1116 q 660 1088 624 1116 q 697 1013 697 1059 q 673 935 697 982 q 612 832 650 889 q 526 711 574 775 q 426 580 477 647 q 326 446 375 513 q 240 319 278 380 q 179 206 202 258 q 156 114 156 153 q 158 98 156 106 q 166 83 160 90 q 179 72 171 76 q 198 68 187 68 q 221 70 208 68 q 253 82 234 72 q 300 111 272 92 q 366 165 327 131 q 457 251 404 199 q 578 378 509 303 q 735 554 647 453 q 935 785 824 654 q 972 830 954 808 q 1009 875 990 851 q 1048 925 1028 899 q 1092 982 1069 951 q 1128 1027 1113 1009 q 1156 1057 1143 1045 q 1182 1077 1169 1069 q 1211 1089 1195 1084 q 1242 1098 1230 1095 q 1263 1102 1255 1101 q 1277 1103 1272 1103 q 1289 1103 1283 1103 q 1304 1091 1304 1103 q 1301 1078 1304 1085 q 1289 1054 1299 1070 q 1262 1009 1280 1038 q 1215 935 1244 981 q 1172 870 1198 910 q 1114 781 1147 831 q 1045 674 1082 731 q 969 558 1008 617 q 891 439 930 498 q 817 324 853 379 q 751 221 782 269 q 698 138 721 174 q 686 120 692 128 q 674 102 680 111 q 816 191 750 141 q 931 309 882 242 l 946 329 q 963 352 953 340 q 979 375 972 365 q 997 399 988 388 l 1013 389 q 994 362 1003 375 q 977 336 987 350 q 957 308 967 322 l 944 291 m -21 -262 q 58 -324 -21 -324 q 144 -307 100 -324 q 238 -252 189 -290 q 339 -155 286 -215 q 451 -11 392 -96 q 331 -50 390 -32 q 220 -86 272 -69 q 123 -123 167 -104 q 47 -162 79 -141 q -3 -207 15 -183 q -21 -262 -21 -232 z "},"Z":{"ha":1022,"x_min":-324,"x_max":1315,"o":"m 1033 308 q 980 247 1009 274 q 916 198 951 220 q 838 159 881 176 q 742 127 795 142 q 631 9 693 67 q 497 -103 569 -50 q 344 -200 424 -156 q 178 -278 264 -245 q 2 -329 92 -310 q -179 -347 -88 -347 q -248 -338 -220 -347 q -293 -315 -276 -329 q -317 -282 -310 -300 q -324 -244 -324 -263 q -284 -141 -324 -190 q -164 -52 -244 -92 q 33 21 -85 -11 q 306 74 151 53 q 436 92 375 83 q 550 110 497 101 q 641 233 601 172 q 707 351 681 294 q 745 456 734 408 q 751 541 757 505 q 720 597 745 576 q 649 617 695 617 q 546 602 593 617 q 459 562 499 587 q 384 507 419 538 q 318 445 349 476 q 295 422 308 436 q 265 391 281 408 q 232 355 249 374 q 197 319 214 337 q 114 229 158 276 l 57 279 q 194 401 129 343 q 250 452 222 426 q 305 503 278 478 q 353 550 331 528 q 391 588 376 572 q 512 710 455 654 q 620 814 569 767 q 716 898 671 860 q 803 967 762 936 q 698 1007 749 986 q 596 1045 646 1028 q 497 1074 546 1063 q 402 1085 449 1085 q 303 1070 350 1085 q 222 1028 257 1056 q 167 962 187 1001 q 147 874 147 923 l 127 874 q 151 972 127 927 q 219 1050 176 1017 q 323 1102 263 1083 q 457 1121 384 1121 q 573 1113 515 1121 q 686 1092 630 1104 q 799 1065 743 1079 q 912 1038 856 1051 q 989 1075 952 1060 q 1060 1099 1025 1090 q 1129 1111 1095 1108 q 1197 1115 1163 1115 q 1283 1101 1251 1115 q 1315 1057 1315 1088 q 1300 1003 1315 1030 q 1256 955 1285 976 q 1183 921 1226 934 q 1081 908 1139 908 q 953 922 1015 908 q 828 958 890 936 q 642 804 745 898 q 410 573 540 710 q 386 549 399 561 q 363 524 374 536 q 338 498 351 511 l 341 495 q 390 539 363 514 q 455 587 418 564 q 539 625 492 610 q 649 641 587 641 q 781 622 728 641 q 863 570 834 603 q 898 490 892 536 q 890 391 903 444 q 845 278 876 338 q 767 158 813 218 q 847 188 810 171 q 915 225 883 204 q 972 272 946 246 q 1022 329 999 297 q 1039 352 1030 340 q 1056 375 1048 365 q 1074 399 1065 388 l 1089 389 q 1071 362 1080 375 q 1053 336 1063 350 q 1033 308 1043 322 m 309 49 q 48 -1 161 29 q -142 -68 -65 -31 q -257 -150 -218 -106 q -297 -243 -297 -194 q -291 -273 -297 -258 q -271 -299 -285 -287 q -236 -317 -258 -310 q -183 -324 -215 -324 q 10 -291 -87 -324 q 199 -201 108 -257 q 374 -71 291 -144 q 526 81 457 2 q 424 65 478 73 q 309 49 370 58 m 1139 1010 q 1211 1013 1182 1010 q 1258 1023 1240 1017 q 1283 1038 1276 1029 q 1291 1057 1291 1047 q 1267 1085 1291 1075 q 1197 1096 1242 1096 q 1077 1082 1138 1096 q 947 1031 1017 1067 q 1042 1015 994 1021 q 1139 1010 1090 1010 z "},"[":{"ha":470,"x_min":-204,"x_max":715,"o":"m 548 1091 l 715 1091 l 714 1069 l 563 1069 l -158 -165 l 3 -164 l 3 -187 l -204 -187 l 548 1091 z "},"\\":{"ha":380,"x_min":72,"x_max":442,"o":"m 415 -267 l 72 1126 l 95 1133 l 442 -261 l 415 -267 z "},"]":{"ha":385,"x_min":-249,"x_max":669,"o":"m -83 -187 l -249 -187 l -249 -165 l -97 -165 l 624 1069 l 463 1068 l 463 1091 l 669 1091 l -83 -187 z "},"^":{"ha":781,"x_min":187,"x_max":571,"o":"m 526 524 q 519 565 526 543 q 502 606 513 586 q 480 644 492 626 q 456 675 468 662 q 372 623 409 649 q 307 574 335 597 q 261 530 280 550 q 232 497 242 510 q 209 513 219 504 q 194 531 201 521 q 187 555 187 542 q 203 593 187 574 q 244 627 219 611 q 301 658 269 644 q 363 683 332 672 q 421 701 394 694 q 465 712 449 708 q 497 688 478 706 q 531 650 515 671 q 559 606 548 628 q 571 567 571 583 q 557 534 571 544 q 526 524 544 524 z "},"_":{"ha":504,"x_min":-33,"x_max":365,"o":"m -33 17 l 365 17 l 365 -7 l -33 -7 l -33 17 z "},"`":{"ha":684,"x_min":510,"x_max":749,"o":"m 571 1065 q 588 1016 576 1046 q 620 952 599 986 q 673 885 642 919 q 749 824 705 851 l 744 810 q 706 822 729 814 q 657 843 683 831 q 605 870 631 855 q 557 903 578 885 q 523 941 536 921 q 510 984 510 962 q 519 1013 510 999 q 540 1039 528 1027 q 571 1065 553 1052 z "},"a":{"ha":684,"x_min":-108,"x_max":751,"o":"m 526 71 q 469 16 503 38 q 391 -7 436 -7 q 363 -2 377 -7 q 337 13 349 2 q 318 42 326 24 q 310 89 310 60 q 318 158 310 123 q 338 225 326 192 q 366 285 351 257 q 397 333 381 313 l 395 336 q 358 290 382 321 q 303 220 335 258 q 234 142 272 182 q 154 68 196 101 q 67 14 112 35 q -22 -7 23 -7 q -87 17 -67 -7 q -108 79 -108 42 q -91 161 -108 115 q -45 258 -74 207 q 24 364 -15 310 q 110 469 64 418 q 207 565 157 519 q 308 643 258 610 q 408 697 359 677 q 499 717 456 717 q 551 699 531 717 q 572 656 572 681 l 572 644 l 576 644 q 589 670 576 659 q 623 686 602 681 q 656 694 638 690 q 689 701 673 698 q 715 707 704 705 q 730 710 726 710 q 742 707 738 710 q 747 697 747 705 q 740 679 747 692 l 452 178 q 436 147 442 160 q 427 123 431 133 q 424 104 424 113 q 423 88 423 96 q 433 63 423 72 q 455 54 442 54 q 481 60 467 54 q 510 89 494 67 l 684 329 q 701 352 692 340 q 717 375 710 365 q 735 399 726 388 l 751 389 q 733 362 742 375 q 715 336 725 350 q 695 308 705 322 l 526 71 m 113 329 q 73 237 87 279 q 59 163 59 195 q 70 115 59 132 q 106 99 82 99 q 169 123 135 99 q 241 187 203 147 q 319 279 278 227 q 403 388 360 331 q 455 458 428 419 q 501 534 481 497 q 536 603 522 572 q 549 656 549 635 q 539 679 549 669 q 509 689 528 689 q 439 671 476 689 q 363 623 401 653 q 286 555 324 593 q 215 477 249 517 q 156 398 182 437 q 113 329 129 360 z "},"b":{"ha":799,"x_min":0,"x_max":872,"o":"m 572 1108 q 640 1186 605 1165 q 715 1208 676 1208 q 783 1196 753 1208 q 832 1165 812 1184 q 862 1123 851 1147 q 872 1078 872 1100 q 853 1014 872 1048 q 802 947 833 981 q 731 879 771 913 q 650 817 691 846 q 570 764 609 788 q 501 726 531 740 q 463 663 484 699 q 419 588 442 628 q 371 506 396 549 q 323 422 347 464 q 276 340 299 380 q 235 267 253 301 l 239 263 q 315 353 273 303 q 403 453 358 403 q 497 551 449 503 q 590 635 544 599 q 676 694 635 672 q 749 717 717 717 q 804 695 785 717 q 824 622 824 673 q 811 539 824 585 q 775 441 799 492 q 717 337 751 390 q 640 234 683 284 q 547 141 597 185 q 438 64 496 97 q 317 12 381 31 q 186 -7 253 -7 q 55 20 103 -7 q 7 96 7 48 q 11 121 7 106 q 28 161 16 135 q 61 226 40 187 q 116 325 83 265 q 198 467 150 385 q 312 663 247 550 q 251 616 285 650 q 177 534 217 581 q 97 430 138 486 q 17 316 56 373 l 0 329 q 100 467 54 405 q 186 575 146 528 q 263 653 226 622 q 333 700 299 684 l 572 1108 m 185 19 q 264 39 223 19 q 347 91 306 58 q 430 168 389 124 q 508 260 471 212 q 576 359 544 309 q 630 456 607 410 q 666 542 653 502 q 679 608 679 581 q 675 625 679 618 q 658 633 670 633 q 631 625 648 633 q 590 599 615 618 q 518 535 560 576 q 430 446 476 495 q 337 342 384 397 q 250 235 290 288 q 173 127 203 175 q 143 48 143 80 q 152 28 143 36 q 185 19 161 19 m 845 1073 q 830 1116 845 1101 q 786 1131 815 1131 q 750 1124 766 1131 q 721 1106 733 1117 q 699 1080 708 1094 q 682 1053 689 1066 q 614 926 642 978 q 568 842 586 875 q 539 791 549 809 q 523 765 528 774 q 517 755 518 757 q 515 753 515 753 q 633 830 574 788 q 739 915 692 872 q 816 999 786 958 q 845 1073 845 1040 z "},"c":{"ha":509,"x_min":-82,"x_max":595,"o":"m 519 717 q 554 710 540 717 q 577 692 568 703 q 591 666 587 681 q 595 634 595 651 q 587 582 595 609 q 565 533 579 555 q 533 497 551 511 q 495 483 515 483 q 456 495 473 483 q 439 535 439 508 q 451 579 439 559 q 484 608 464 599 q 491 604 487 606 q 511 601 499 601 q 535 605 524 601 q 552 617 545 610 q 563 633 559 624 q 566 651 566 642 q 556 680 566 667 q 526 692 546 692 q 466 676 499 692 q 397 633 433 660 q 324 568 361 606 q 252 488 287 531 q 187 398 217 445 q 134 303 156 351 q 98 211 111 256 q 85 126 85 166 q 101 80 85 93 q 147 67 117 67 q 240 92 191 67 q 338 154 290 116 q 431 239 387 192 q 509 329 475 285 q 526 352 517 340 q 543 374 535 364 q 560 399 552 387 l 576 389 q 558 362 567 376 q 540 336 550 350 q 520 308 530 322 q 469 245 499 280 q 404 176 440 211 q 326 108 368 141 q 240 49 285 75 q 146 8 194 24 q 49 -7 98 -7 q -46 26 -10 -7 q -82 119 -82 60 q -66 202 -82 157 q -22 297 -50 248 q 45 396 6 346 q 128 493 83 446 q 223 580 174 540 q 324 651 273 621 q 424 699 374 682 q 519 717 474 717 z "},"d":{"ha":680,"x_min":-112,"x_max":967,"o":"m 108 329 q 68 235 82 279 q 54 158 54 191 q 66 111 54 128 q 101 94 77 94 q 165 119 131 94 q 236 185 199 144 q 315 278 274 226 q 399 388 356 331 q 450 458 424 419 q 497 534 476 497 q 531 604 518 572 q 544 656 544 636 q 534 680 544 670 q 504 690 523 690 q 434 672 472 690 q 358 624 397 653 q 281 555 319 594 q 210 477 244 517 q 151 398 177 437 q 108 329 124 360 m -26 -7 q -92 15 -72 -7 q -112 75 -112 38 q -95 157 -112 110 q -49 255 -78 203 q 20 361 -19 307 q 106 467 60 415 q 203 564 153 518 q 304 643 253 609 q 403 697 355 677 q 495 717 452 717 q 547 699 526 717 q 567 656 567 681 l 567 644 l 571 644 q 679 825 633 748 q 756 953 725 901 q 805 1034 788 1006 q 825 1067 822 1062 q 843 1088 832 1078 q 872 1102 853 1097 q 892 1107 881 1104 q 915 1111 903 1109 q 935 1114 926 1113 q 949 1115 944 1115 q 962 1113 956 1115 q 967 1102 967 1110 q 965 1093 967 1099 q 960 1083 963 1088 l 448 178 q 432 146 438 160 q 423 122 426 133 q 419 102 419 110 q 418 85 418 93 q 427 59 418 67 q 447 50 436 50 q 476 58 461 50 q 506 89 490 67 l 680 329 q 697 352 688 340 q 713 375 706 365 q 731 399 722 388 l 747 389 q 728 362 738 375 q 711 336 721 350 q 691 308 701 322 l 522 71 q 464 16 499 38 q 387 -7 428 -7 q 359 -3 373 -7 q 333 11 344 1 q 313 39 321 22 q 306 85 306 57 q 314 155 306 119 q 334 223 322 190 q 362 284 347 256 q 393 333 378 313 l 391 335 q 354 288 378 319 q 298 219 330 257 q 229 141 267 181 q 149 68 191 101 q 63 14 108 35 q -26 -7 19 -7 z "},"e":{"ha":509,"x_min":-82,"x_max":592,"o":"m 49 -7 q -46 26 -10 -7 q -82 119 -82 60 q -66 202 -82 157 q -22 297 -50 248 q 45 396 6 346 q 128 493 83 446 q 223 580 174 540 q 324 651 273 621 q 424 699 374 682 q 519 717 474 717 q 572 701 553 717 q 592 654 592 685 q 580 591 592 625 q 542 522 567 557 q 479 451 517 486 q 389 384 441 415 q 270 326 337 352 q 124 283 204 300 q 95 201 106 241 q 85 126 85 162 q 101 80 85 93 q 147 67 117 67 q 240 92 191 67 q 338 154 290 116 q 431 239 387 192 q 509 329 475 285 q 526 352 517 340 q 543 374 535 364 q 560 399 552 387 l 576 389 q 558 362 567 376 q 540 336 550 350 q 520 308 530 322 q 469 245 499 280 q 404 176 440 211 q 326 108 368 141 q 240 49 285 75 q 146 8 194 24 q 49 -7 98 -7 m 565 654 q 526 692 565 692 q 467 676 499 692 q 399 634 434 661 q 326 571 363 608 q 255 492 290 535 q 190 403 221 450 q 137 310 160 357 q 320 373 240 333 q 455 461 400 413 q 537 560 509 509 q 565 654 565 610 z "},"f":{"ha":572,"x_min":-149,"x_max":872,"o":"m 572 1108 q 640 1186 604 1165 q 715 1208 676 1208 q 783 1196 753 1208 q 832 1165 812 1184 q 862 1123 851 1147 q 872 1078 872 1100 q 854 1016 872 1050 q 805 945 835 981 q 735 872 774 908 q 653 801 696 835 q 569 741 611 768 q 492 695 527 713 l 690 696 l 690 670 l 472 670 l 442 617 q 478 603 463 614 q 503 577 493 592 q 518 543 513 562 q 524 506 524 525 q 519 456 524 483 q 506 394 515 428 q 481 318 497 360 q 442 226 465 277 q 376 96 413 163 q 298 -34 339 29 q 211 -155 256 -98 q 120 -254 166 -212 q 27 -322 74 -297 q -63 -347 -19 -347 q -102 -338 -86 -347 q -128 -316 -118 -329 q -144 -287 -139 -303 q -149 -257 -149 -271 q -141 -195 -149 -228 q -115 -117 -134 -162 q -63 -7 -96 -71 q 22 149 -30 57 q 146 368 74 242 q 317 665 219 494 q 256 620 291 654 q 181 538 221 586 q 99 432 142 490 q 17 316 57 374 l 0 329 q 102 469 55 407 q 189 578 149 531 q 267 656 230 625 q 339 702 303 687 l 572 1108 m 497 504 q 494 533 497 519 q 484 560 492 548 q 464 582 476 573 q 431 596 451 592 q 388 520 412 562 q 339 432 365 478 q 286 337 313 385 q 233 243 259 289 q 142 84 181 150 q 75 -30 103 17 q 29 -108 47 -77 q 1 -160 11 -138 q -14 -199 -10 -183 q -18 -233 -18 -215 q -6 -266 -18 -256 q 30 -277 7 -277 q 69 -260 44 -277 q 126 -211 94 -243 q 194 -133 158 -178 q 270 -31 231 -87 q 347 93 308 26 q 420 235 385 160 q 458 325 443 284 q 482 399 473 365 q 494 458 490 432 q 497 504 497 484 m 848 1073 q 831 1116 848 1101 q 786 1131 815 1131 q 750 1124 766 1131 q 721 1106 733 1117 q 699 1080 708 1094 q 682 1053 689 1066 q 613 924 642 978 q 563 834 583 871 q 531 776 543 798 q 512 742 519 754 q 502 727 505 731 q 500 723 500 723 q 576 773 536 744 q 655 833 616 801 q 728 898 693 865 q 790 963 763 931 q 832 1023 817 994 q 848 1073 848 1051 z "},"g":{"ha":681,"x_min":-314,"x_max":747,"o":"m 549 107 q 493 43 523 70 q 430 -4 463 15 q 361 -34 397 -23 q 290 -51 326 -46 q 45 -270 172 -194 q -211 -347 -82 -347 q -288 -329 -262 -347 q -314 -281 -314 -311 q -289 -222 -314 -254 q -206 -157 -263 -190 q -57 -90 -149 -123 q 169 -28 35 -57 q 201 19 185 -6 q 233 70 217 44 q 281 149 258 110 q 325 222 304 188 q 363 285 345 256 q 397 333 381 313 l 395 336 q 358 290 382 321 q 303 220 335 258 q 234 142 272 182 q 154 68 196 101 q 67 14 112 35 q -22 -7 23 -7 q -87 17 -67 -7 q -108 79 -108 42 q -91 161 -108 115 q -45 258 -74 207 q 24 364 -15 310 q 110 469 64 418 q 207 565 157 519 q 308 643 258 610 q 408 697 359 677 q 499 717 456 717 q 551 699 531 717 q 572 656 572 681 l 572 644 l 576 644 q 589 670 576 659 q 623 686 602 681 q 656 694 638 690 q 689 701 673 698 q 715 707 704 705 q 730 710 726 710 q 742 707 738 710 q 747 697 747 705 q 740 679 747 692 l 449 178 q 381 70 415 121 q 310 -26 346 19 q 431 22 373 -13 q 535 122 489 58 l 681 329 q 697 352 688 340 q 714 375 706 365 q 732 399 723 388 l 747 389 q 729 362 738 375 q 711 336 722 350 q 692 308 701 322 l 549 107 m 113 329 q 73 237 87 279 q 59 163 59 195 q 70 115 59 132 q 106 99 82 99 q 169 123 135 99 q 241 187 203 147 q 319 279 278 227 q 403 388 360 331 q 455 458 428 419 q 501 534 481 497 q 536 603 522 572 q 549 656 549 635 q 539 679 549 669 q 509 689 528 689 q 439 671 476 689 q 363 623 401 653 q 286 555 324 593 q 215 477 249 517 q 156 398 182 437 q 113 329 129 360 m -290 -281 q -269 -316 -290 -306 q -212 -327 -249 -327 q -128 -311 -171 -327 q -41 -262 -85 -296 q 52 -177 4 -229 q 151 -53 99 -126 q -58 -112 27 -81 q -194 -173 -142 -143 q -267 -232 -245 -203 q -290 -281 -290 -260 z "},"h":{"ha":747,"x_min":-129,"x_max":814,"o":"m 173 237 q 369 466 280 374 q 527 613 458 558 q 647 692 597 669 q 725 715 697 715 q 758 705 747 715 q 769 667 769 694 q 750 591 769 634 q 696 489 731 547 q 616 353 662 430 q 515 178 569 277 q 493 130 501 153 q 485 85 485 108 q 492 58 485 65 q 511 50 499 50 q 542 58 526 50 q 574 89 558 67 l 747 329 q 764 352 755 340 q 781 375 773 365 q 799 399 790 388 l 814 389 q 796 362 805 375 q 778 336 788 350 q 758 308 768 322 l 589 71 q 528 16 566 38 q 439 -7 490 -7 q 400 -2 418 -7 q 369 12 382 2 q 348 37 356 22 q 341 74 341 52 q 353 138 341 103 q 385 213 365 174 q 431 292 406 251 q 484 373 457 333 q 536 451 510 413 q 582 520 562 488 q 614 577 602 552 q 626 617 626 602 q 624 628 626 623 q 614 633 622 633 q 571 613 601 633 q 501 556 542 592 q 412 469 461 519 q 311 360 363 419 q 207 235 259 301 q 107 102 154 169 q 85 75 97 88 q 56 50 73 62 q 16 27 39 38 q -36 8 -6 16 q -67 -1 -55 2 q -88 -5 -80 -3 q -102 -7 -97 -6 q -114 -7 -108 -7 q -129 6 -129 -7 q -125 21 -129 11 q -110 49 -121 31 q -83 94 -100 67 q -40 162 -65 122 q 203 539 100 378 q 375 809 307 700 q 477 978 444 918 q 511 1054 511 1038 q 501 1069 511 1069 q 481 1065 491 1069 q 456 1053 470 1061 l 448 1072 q 473 1084 455 1076 q 511 1098 491 1091 q 550 1110 531 1105 q 576 1115 568 1115 q 608 1103 600 1115 q 617 1072 617 1092 q 599 1016 617 1058 q 551 917 581 975 q 483 789 522 858 q 404 648 444 719 q 324 507 364 576 q 251 383 284 439 q 197 290 219 328 q 169 242 174 252 l 173 237 z "},"i":{"ha":427,"x_min":0,"x_max":640,"o":"m 453 851 q 461 883 453 860 q 487 930 469 906 q 532 972 504 954 q 599 990 559 990 q 626 980 613 990 q 640 947 640 970 q 629 907 640 928 q 599 868 619 885 q 550 839 579 851 q 485 828 522 828 q 464 832 474 828 q 453 851 453 837 m 119 -7 q 80 -2 98 -7 q 49 12 62 2 q 28 37 35 22 q 21 74 21 52 q 35 140 21 103 q 72 218 49 176 q 124 304 94 260 q 184 391 153 348 q 244 476 215 435 q 297 551 274 517 q 333 612 319 585 q 347 654 347 639 q 335 669 347 669 q 297 655 319 669 q 250 615 276 640 q 196 556 225 590 q 138 483 167 522 q 77 401 108 444 q 17 316 46 358 l 0 329 q 123 497 68 425 q 226 618 178 569 q 317 692 274 667 q 404 717 360 717 q 440 702 430 717 q 449 667 449 687 q 430 591 449 634 q 376 489 410 547 q 295 353 342 430 q 195 178 249 277 q 173 130 181 153 q 165 85 165 108 q 173 58 165 65 q 191 50 181 50 q 221 58 205 50 q 253 89 238 67 l 427 329 q 444 352 435 340 q 460 375 453 365 q 478 399 469 388 l 494 389 q 476 362 485 375 q 458 336 468 350 q 438 308 448 322 l 269 71 q 208 16 246 38 q 119 -7 171 -7 z "},"j":{"ha":427,"x_min":-567,"x_max":640,"o":"m 296 107 q 173 -5 242 32 q 31 -51 104 -42 q -89 -176 -28 -122 q -212 -269 -150 -231 q -338 -327 -274 -307 q -465 -347 -401 -347 q -541 -329 -515 -347 q -567 -281 -567 -311 q -542 -222 -567 -254 q -461 -157 -517 -190 q -312 -91 -404 -124 q -88 -28 -221 -58 q -55 19 -72 -6 q -20 70 -38 44 q 105 257 50 176 q 200 398 159 338 q 269 501 241 458 q 315 574 297 544 q 340 622 332 603 q 347 653 347 640 q 335 669 347 669 q 297 655 319 669 q 250 615 276 640 q 196 556 225 590 q 138 483 167 522 q 77 401 108 444 q 17 316 46 358 l 0 329 q 123 497 68 425 q 226 618 178 569 q 317 692 274 667 q 404 717 360 717 q 440 702 431 717 q 449 667 449 688 q 430 586 449 634 q 376 476 410 538 q 295 340 342 415 q 195 178 249 265 q 124 70 160 121 q 51 -27 88 19 q 175 20 115 -15 q 281 122 235 56 l 427 329 q 444 352 435 340 q 460 375 453 365 q 478 399 469 388 l 494 389 q 476 362 485 375 q 458 336 468 350 q 438 308 448 322 l 296 107 m -543 -281 q -523 -316 -543 -306 q -465 -326 -502 -326 q -383 -310 -424 -326 q -298 -261 -342 -294 q -207 -176 -254 -228 q -108 -54 -160 -125 q -314 -113 -231 -82 q -448 -174 -397 -144 q -521 -232 -499 -204 q -543 -281 -543 -260 m 453 851 q 461 883 453 860 q 487 930 469 906 q 532 972 504 954 q 599 990 559 990 q 626 980 613 990 q 640 947 640 970 q 629 907 640 928 q 599 868 619 885 q 550 839 579 851 q 485 828 522 828 q 464 832 474 828 q 453 851 453 837 z "},"k":{"ha":740,"x_min":-129,"x_max":811,"o":"m 740 329 q 757 352 748 340 q 774 375 766 365 q 792 399 783 388 l 807 389 q 789 362 798 375 q 771 336 781 350 q 751 308 761 322 l 588 76 q 518 13 558 33 q 432 -7 478 -7 q 393 -2 411 -7 q 361 12 374 2 q 340 37 348 22 q 333 74 333 52 q 342 160 333 113 q 364 258 352 208 q 386 357 376 308 q 396 448 396 406 q 568 500 495 476 q 687 546 640 523 q 757 593 734 569 q 779 649 779 618 q 763 681 779 668 q 719 694 746 694 q 691 692 710 694 q 642 679 672 690 q 574 647 613 669 q 488 586 535 625 q 386 488 440 547 q 271 342 331 428 l 103 103 q 82 77 93 90 q 54 51 70 63 q 16 27 38 38 q -36 8 -6 16 q -67 -1 -55 2 q -88 -5 -80 -3 q -102 -7 -97 -6 q -114 -7 -108 -7 q -129 6 -129 -7 q -125 21 -129 11 q -110 49 -121 31 q -83 94 -100 67 q -40 162 -65 122 q 203 539 100 378 q 375 809 307 700 q 477 978 444 918 q 511 1054 511 1038 q 501 1069 511 1069 q 481 1065 491 1069 q 456 1053 470 1061 l 448 1072 q 473 1084 455 1076 q 511 1098 491 1091 q 550 1110 531 1105 q 576 1115 568 1115 q 608 1103 600 1115 q 617 1072 617 1092 q 597 1011 617 1056 q 545 901 577 965 q 472 762 513 838 q 389 610 431 686 q 306 464 347 534 q 235 342 266 394 l 243 341 q 362 497 306 433 q 468 602 419 560 q 558 668 517 644 q 631 702 599 691 q 685 715 663 713 q 718 717 707 717 q 789 697 766 717 q 811 647 811 676 q 786 589 811 615 q 717 538 761 562 q 612 492 673 515 q 481 447 551 470 l 481 442 q 500 433 494 442 q 506 405 506 425 q 504 366 506 390 q 497 315 501 343 q 489 257 493 288 q 481 197 485 226 q 474 142 476 168 q 472 96 472 115 q 480 59 472 67 q 504 51 489 51 q 549 69 528 51 q 583 107 569 86 l 740 329 z "},"l":{"ha":483,"x_min":0,"x_max":903,"o":"m 604 1108 q 675 1186 639 1165 q 751 1208 711 1208 q 817 1196 789 1208 q 865 1165 846 1184 q 894 1123 884 1147 q 903 1078 903 1100 q 878 980 903 1030 q 811 883 852 931 q 720 792 771 835 q 618 711 669 748 q 522 648 567 675 q 446 606 476 620 q 431 586 441 601 q 406 549 420 571 q 376 501 392 528 q 343 446 360 474 q 309 389 326 417 q 278 334 292 360 q 252 289 263 309 q 235 256 241 268 q 209 204 222 230 q 185 153 196 178 q 167 108 174 129 q 160 70 160 87 q 169 48 160 54 q 194 41 179 41 q 236 54 211 41 q 295 100 260 67 q 376 188 330 133 q 483 329 422 244 q 499 352 490 340 q 516 375 508 365 q 534 399 525 388 l 549 389 q 531 362 540 375 q 514 336 524 350 q 494 308 503 322 q 385 163 435 223 q 292 66 336 103 q 205 10 247 28 q 119 -7 163 -7 q 81 -3 98 -7 q 51 9 63 1 q 33 32 40 18 q 26 68 26 47 q 31 102 26 83 q 46 150 35 122 q 75 216 57 178 q 121 306 93 254 q 187 424 149 357 q 276 575 226 490 q 217 541 247 563 q 155 488 187 519 q 89 413 123 456 q 17 316 55 371 l 0 329 q 77 431 42 389 q 140 502 112 473 q 191 548 168 531 q 233 577 214 566 q 267 594 251 588 q 296 607 282 601 q 431 829 355 706 q 604 1108 508 953 m 876 1073 q 863 1116 878 1101 q 819 1131 848 1131 q 783 1124 799 1131 q 753 1106 767 1117 q 730 1080 740 1094 q 713 1053 720 1066 q 603 863 649 940 q 527 736 557 785 q 483 667 497 688 q 468 644 469 645 q 553 697 508 667 q 645 761 599 726 q 732 834 690 795 q 806 912 774 872 q 857 993 838 952 q 876 1073 876 1033 z "},"m":{"ha":1140,"x_min":-57,"x_max":1207,"o":"m 832 -7 q 793 -2 811 -7 q 762 12 775 2 q 741 37 749 22 q 734 74 734 52 q 755 161 734 113 q 808 263 776 210 q 877 368 840 315 q 945 467 914 421 q 998 550 977 513 q 1019 607 1019 587 q 1017 618 1019 613 q 1007 623 1015 623 q 973 605 997 623 q 915 553 949 586 q 839 473 881 519 q 748 370 797 426 q 648 249 700 313 q 543 115 596 184 q 500 65 522 88 q 451 24 478 41 q 393 -3 425 6 q 322 -13 362 -13 q 306 -11 313 -13 q 299 2 299 -10 q 304 18 299 8 q 318 43 308 27 q 345 85 328 60 q 388 149 363 110 q 439 225 410 182 q 500 314 468 268 q 562 407 531 360 q 617 492 592 453 q 656 562 641 532 q 671 607 671 592 q 668 618 671 613 q 658 623 666 623 q 620 603 647 623 q 556 548 594 583 q 473 464 519 513 q 378 357 427 415 q 277 234 328 299 q 179 102 226 169 q 157 75 169 88 q 128 50 145 62 q 89 27 111 38 q 36 8 66 16 q 5 -1 17 2 q -16 -5 -8 -3 q -30 -7 -24 -6 q -42 -7 -36 -7 q -57 6 -57 -7 q -54 19 -57 11 q -42 43 -51 26 q -15 87 -33 59 q 33 162 3 115 q 93 253 65 212 q 150 340 121 295 q 214 437 180 385 q 295 560 249 489 q 318 594 308 580 q 334 620 328 609 q 344 639 341 631 q 347 654 347 647 q 335 669 347 669 q 297 655 319 669 q 250 615 276 640 q 196 556 225 590 q 138 483 167 522 q 77 401 108 444 q 17 316 46 358 l 0 329 q 123 497 68 425 q 226 618 178 569 q 317 692 274 667 q 404 717 360 717 q 442 704 431 717 q 453 672 453 692 q 439 617 453 653 q 405 538 426 581 q 358 448 383 494 q 310 360 333 401 q 267 287 286 319 q 241 242 249 255 q 242 240 242 240 q 244 238 243 238 q 245 237 244 238 q 437 466 352 374 q 586 614 522 558 q 696 693 651 669 q 770 717 742 717 q 803 705 792 717 q 814 667 814 694 q 804 617 814 647 q 778 552 794 588 q 741 477 762 517 q 696 397 719 438 q 649 316 673 356 q 604 240 625 276 l 608 236 q 787 453 706 362 q 931 602 867 544 q 1041 689 994 661 q 1119 717 1088 717 q 1152 705 1141 717 q 1163 667 1163 694 q 1143 591 1163 634 q 1089 489 1124 547 q 1009 353 1055 430 q 908 178 963 277 q 886 130 894 153 q 878 85 878 108 q 886 58 878 65 q 904 50 894 50 q 935 58 919 50 q 967 89 951 67 l 1140 329 q 1157 352 1148 340 q 1174 375 1166 365 q 1192 399 1183 388 l 1207 389 q 1189 362 1198 375 q 1171 336 1181 350 q 1151 308 1161 322 l 982 71 q 921 16 959 38 q 832 -7 883 -7 z "},"n":{"ha":819,"x_min":-57,"x_max":886,"o":"m 511 -7 q 472 -2 490 -7 q 441 12 454 2 q 420 37 428 22 q 413 74 413 52 q 425 138 413 103 q 458 213 438 174 q 503 292 478 251 q 556 373 529 333 q 608 451 583 413 q 654 520 634 488 q 686 577 674 552 q 699 617 699 602 q 696 628 699 623 q 686 633 694 633 q 643 613 673 633 q 574 556 614 592 q 484 469 533 519 q 383 360 435 419 q 279 235 331 301 q 179 102 226 169 q 157 75 169 88 q 128 50 145 62 q 89 27 111 38 q 36 8 66 16 q 5 -1 17 2 q -16 -5 -8 -3 q -30 -7 -24 -6 q -42 -7 -36 -7 q -57 6 -57 -7 q -54 19 -57 11 q -42 43 -51 26 q -15 87 -33 59 q 33 162 3 115 q 93 253 65 212 q 150 340 121 295 q 214 437 180 385 q 295 560 249 489 q 318 594 308 580 q 334 620 328 609 q 344 639 341 631 q 347 654 347 647 q 335 669 347 669 q 297 655 319 669 q 250 615 276 640 q 196 556 225 590 q 138 483 167 522 q 77 401 108 444 q 17 316 46 358 l 0 329 q 123 497 68 425 q 226 618 178 569 q 317 692 274 667 q 404 717 360 717 q 442 704 431 717 q 453 672 453 692 q 439 617 453 653 q 405 538 426 581 q 358 448 383 494 q 310 360 333 401 q 267 287 286 319 q 241 242 249 255 l 245 237 q 441 466 352 374 q 600 613 530 558 q 719 692 669 669 q 797 715 769 715 q 830 705 819 715 q 842 667 842 694 q 822 591 842 634 q 768 489 803 547 q 688 353 734 430 q 588 178 642 277 q 566 130 574 153 q 558 85 558 108 q 565 58 558 65 q 583 50 572 50 q 614 58 599 50 q 646 89 630 67 l 819 329 q 836 352 827 340 q 853 375 845 365 q 871 399 862 388 l 886 389 q 868 362 877 375 q 850 336 860 350 q 831 308 840 322 l 661 71 q 600 16 638 38 q 511 -7 563 -7 z "},"o":{"ha":609,"x_min":-82,"x_max":676,"o":"m 611 611 q 596 513 611 565 q 555 405 581 460 q 492 297 528 351 q 413 195 456 243 q 520 239 472 203 q 609 329 567 276 q 626 352 617 340 q 643 374 635 364 q 660 399 652 387 l 676 389 q 658 362 667 376 q 640 336 651 350 q 620 308 630 322 q 515 209 571 245 q 385 165 459 173 q 309 96 349 128 q 229 42 269 65 q 148 6 188 19 q 68 -7 107 -7 q -43 26 -4 -7 q -82 119 -82 60 q -66 205 -82 158 q -20 300 -49 251 q 47 399 8 349 q 132 495 86 449 q 227 582 177 542 q 326 653 276 623 q 424 700 376 683 q 514 717 472 717 q 560 708 542 717 q 590 685 579 700 q 606 652 601 671 q 611 611 611 633 m 585 612 q 582 643 585 628 q 573 668 580 657 q 555 685 567 679 q 526 692 544 692 q 437 665 485 692 q 340 594 389 638 q 245 494 291 550 q 165 380 200 438 q 108 267 129 322 q 87 169 87 211 q 108 98 87 121 q 164 75 128 75 q 226 87 194 75 q 290 121 258 99 q 355 173 323 143 q 417 239 388 203 q 384 226 401 231 q 347 221 367 221 q 313 231 328 221 q 298 267 298 240 q 319 324 298 297 q 372 377 340 351 q 441 428 404 403 q 510 482 478 454 q 564 542 542 510 q 585 612 585 574 z "},"p":{"ha":883,"x_min":-280,"x_max":950,"o":"m 453 672 q 439 617 453 653 q 405 538 426 581 q 358 448 383 494 q 310 360 333 401 q 267 287 286 319 q 241 242 249 255 q 242 240 242 240 q 244 238 243 238 q 245 237 244 238 q 449 470 362 378 q 600 618 537 563 q 704 694 663 672 q 771 717 746 717 q 807 709 792 717 q 832 689 822 702 q 846 658 842 676 q 851 619 851 640 q 837 522 851 575 q 799 413 824 469 q 740 300 774 357 q 663 193 706 244 q 725 208 694 197 q 784 238 756 220 q 837 279 812 256 q 883 329 863 302 q 900 352 891 340 q 917 374 910 364 q 935 399 926 387 l 950 389 q 933 362 942 376 q 915 336 925 350 q 894 308 904 322 q 779 208 845 245 q 638 164 713 172 q 566 94 603 126 q 487 39 528 63 q 403 3 446 16 q 316 -10 360 -10 q 288 -7 303 -10 q 258 1 272 -5 q 234 19 244 8 q 224 50 224 31 q 253 118 224 87 q 329 176 282 150 q 436 224 376 202 q 559 263 497 245 q 626 368 596 317 q 679 460 657 418 q 713 535 701 502 q 725 591 725 569 q 719 619 725 608 q 700 629 714 629 q 612 587 669 629 q 480 466 556 544 q 311 275 403 388 q 117 24 219 163 q 56 -69 84 -26 q 4 -147 28 -112 q -38 -210 -19 -183 q -69 -253 -56 -237 q -97 -290 -85 -276 q -119 -312 -108 -303 q -145 -327 -131 -322 q -183 -338 -160 -333 q -217 -347 -204 -344 q -239 -351 -230 -349 q -253 -352 -247 -352 q -265 -353 -259 -353 q -280 -340 -280 -353 q -276 -327 -280 -335 q -263 -303 -273 -319 q -235 -259 -253 -287 q -187 -184 -217 -231 q -130 -96 -165 -151 q -50 26 -94 -41 q 41 167 -7 93 q 135 313 88 241 q 223 448 181 384 q 295 560 264 513 q 318 594 308 580 q 334 620 328 609 q 344 639 341 631 q 347 654 347 647 q 335 669 347 669 q 297 655 319 669 q 250 615 276 640 q 196 556 225 590 q 138 483 167 522 q 77 401 108 444 q 17 316 46 358 l 0 329 q 123 497 68 425 q 226 618 178 569 q 317 692 274 667 q 404 717 360 717 q 442 704 431 717 q 453 672 453 692 m 302 43 q 377 65 340 43 q 446 118 414 88 q 504 181 478 149 q 543 233 529 213 q 440 200 490 219 q 353 160 391 181 q 293 117 315 139 q 270 74 270 94 q 278 52 270 61 q 302 43 286 43 z "},"q":{"ha":619,"x_min":-108,"x_max":746,"o":"m 394 336 q 358 290 381 321 q 302 220 334 258 q 233 142 271 182 q 153 68 195 101 q 67 14 111 35 q -22 -7 22 -7 q -88 17 -68 -7 q -108 79 -108 42 q -92 161 -108 115 q -45 258 -75 207 q 24 364 -16 310 q 110 469 63 418 q 207 565 156 519 q 308 643 257 610 q 407 697 358 677 q 499 717 456 717 q 550 699 530 717 q 571 656 571 681 l 571 644 l 575 644 q 588 670 575 659 q 622 686 601 681 q 655 694 638 690 q 688 701 672 698 q 715 707 703 705 q 729 710 726 710 q 742 707 738 710 q 746 697 746 705 q 739 679 746 692 q 593 426 668 553 q 444 179 517 299 q 304 -51 372 59 q 181 -253 237 -161 q 155 -291 166 -277 q 132 -314 144 -306 q 105 -327 120 -322 q 66 -338 89 -333 q 32 -347 45 -344 q 11 -351 19 -349 q -4 -352 2 -352 q -15 -353 -10 -353 q -31 -340 -31 -353 q -27 -327 -31 -335 q -14 -303 -24 -319 q 14 -259 -4 -287 q 63 -184 33 -231 q 145 -49 108 -109 q 215 59 183 11 q 273 146 247 108 q 320 217 299 185 q 361 278 342 250 q 396 333 379 306 l 394 336 m 113 329 q 72 237 86 279 q 58 163 58 195 q 70 115 58 132 q 106 99 81 99 q 169 123 135 99 q 240 187 203 147 q 319 279 278 227 q 403 388 360 331 q 454 458 428 419 q 501 534 480 497 q 535 603 522 572 q 549 656 549 635 q 538 679 549 669 q 508 689 527 689 q 438 671 476 689 q 362 623 401 653 q 285 555 323 593 q 215 477 248 517 q 155 398 181 437 q 113 329 128 360 z "},"r":{"ha":465,"x_min":0,"x_max":532,"o":"m 281 731 q 311 690 281 706 q 388 667 340 675 q 464 610 464 653 q 447 548 464 585 q 399 458 429 510 q 326 335 368 405 q 233 178 283 266 q 220 152 226 165 q 208 125 213 138 q 200 100 203 112 q 197 80 197 89 q 200 65 197 70 q 208 56 203 59 q 219 51 213 52 q 229 50 224 50 q 260 58 244 50 q 292 89 276 67 l 465 329 q 482 352 473 340 q 499 375 491 365 q 517 399 508 388 l 532 389 q 514 362 523 375 q 496 336 506 350 q 476 308 486 322 l 307 71 q 246 16 284 38 q 157 -7 208 -7 q 117 -2 136 -7 q 83 12 98 2 q 60 37 69 22 q 52 74 52 52 q 75 156 52 108 q 133 257 98 203 q 207 367 167 311 q 282 471 247 422 q 340 558 317 520 q 363 615 363 597 q 354 639 363 629 q 332 657 345 649 q 302 672 318 665 q 272 690 286 680 q 235 625 260 664 q 175 537 209 585 q 100 432 140 488 q 17 317 59 376 l 0 329 q 92 458 47 395 q 172 572 137 521 q 230 660 208 624 q 253 710 251 696 q 241 731 245 719 q 237 758 237 742 q 244 797 237 776 q 267 838 251 817 q 308 877 283 858 q 368 907 333 895 l 401 822 q 341 802 367 815 q 319 790 330 797 q 300 774 308 783 q 286 755 292 765 q 281 731 281 744 z "},"s":{"ha":501,"x_min":-104,"x_max":590,"o":"m 350 644 q 349 646 350 644 q 348 649 348 649 q 279 613 313 635 q 207 553 245 591 q 123 458 169 515 q 17 316 77 400 l 0 329 q 82 440 43 390 q 160 532 121 490 q 240 610 199 574 q 328 681 281 647 q 432 747 376 715 q 557 815 488 780 l 590 717 q 485 689 531 699 q 401 667 439 678 q 366 632 378 656 q 351 576 355 608 q 348 506 347 544 q 350 425 349 467 q 353 341 352 383 q 349 258 353 298 q 336 201 344 228 q 425 249 385 215 q 501 329 465 283 q 518 352 509 340 q 535 374 528 364 q 553 399 544 387 l 568 389 q 551 362 560 376 q 533 336 543 350 q 513 308 522 322 q 427 222 472 256 q 326 174 382 188 q 270 89 306 124 q 192 32 235 54 q 101 -2 149 9 q 6 -12 53 -12 q -76 6 -49 -12 q -104 55 -104 24 q -86 108 -104 78 q -30 169 -67 138 q 65 231 8 200 q 199 288 122 262 q 222 392 210 346 q 247 474 235 438 q 272 536 260 510 q 297 582 285 563 q 350 644 324 626 m -8 17 q 64 34 32 17 q 121 85 96 52 q 165 163 147 117 q 195 264 183 208 q 74 211 125 239 q -11 156 23 183 q -61 102 -44 128 q -77 55 -77 76 q -8 17 -77 17 z "},"t":{"ha":421,"x_min":-35,"x_max":907,"o":"m 194 850 l 394 850 q 451 936 422 892 q 513 1029 480 981 q 531 1050 520 1040 q 559 1064 541 1059 q 579 1069 568 1066 q 601 1074 590 1072 q 622 1078 613 1076 q 635 1079 631 1079 q 648 1076 642 1079 q 653 1066 653 1074 q 651 1057 653 1063 q 646 1047 649 1052 l 525 850 l 907 850 l 907 828 l 511 828 q 358 575 423 683 q 247 387 293 467 q 172 252 201 307 q 127 162 143 198 q 104 105 110 126 q 98 70 98 83 q 107 48 98 56 q 132 41 116 41 q 174 54 149 41 q 233 100 199 67 q 314 188 268 133 q 421 329 360 244 q 438 352 428 340 q 454 375 447 365 q 472 399 463 388 l 488 389 q 469 362 478 375 q 452 336 462 350 q 432 308 442 322 q 324 163 373 223 q 230 66 274 103 q 143 10 185 28 q 57 -7 101 -7 q 14 -2 31 -7 q -14 13 -3 3 q -30 35 -25 22 q -35 65 -35 49 q -31 106 -35 83 q -13 163 -27 128 q 28 251 1 198 q 101 382 55 303 q 215 570 147 461 q 380 828 283 679 l 194 828 l 194 850 z "},"u":{"ha":792,"x_min":0,"x_max":878,"o":"m 655 98 q 620 54 638 74 q 582 21 602 35 q 538 0 562 8 q 485 -7 514 -7 q 416 13 437 -7 q 396 66 396 33 q 445 211 396 118 q 584 444 494 304 l 580 449 q 401 247 485 333 q 249 106 317 162 q 131 22 181 49 q 51 -6 80 -6 q 18 5 30 -6 q 7 42 7 16 q 26 121 7 76 q 82 226 46 166 q 169 365 117 287 q 285 542 220 443 q 301 567 292 553 q 316 593 309 580 q 327 617 322 606 q 331 638 331 629 q 326 651 331 646 q 312 656 321 656 q 256 627 288 656 q 185 550 223 598 q 104 441 147 502 q 17 316 61 380 l 0 329 q 119 497 68 425 q 214 618 171 569 q 297 692 258 667 q 381 717 337 717 q 432 697 416 717 q 448 648 448 677 q 435 597 448 627 q 401 530 422 566 q 354 452 381 493 q 299 370 327 411 q 244 288 271 328 q 197 213 217 248 q 163 149 176 178 q 150 103 150 121 q 152 92 150 97 q 163 87 155 87 q 210 112 176 87 q 293 182 244 138 q 399 287 341 226 q 516 418 456 348 q 591 503 554 463 q 668 594 627 544 q 705 638 690 619 q 732 669 719 656 q 757 689 744 681 q 785 702 769 697 q 816 711 803 708 q 837 715 828 714 q 851 717 845 717 q 863 717 857 717 q 878 704 878 717 q 875 691 878 699 q 863 667 872 683 q 836 623 853 651 q 788 548 818 594 q 750 488 767 515 q 717 436 733 461 q 687 386 702 411 q 653 331 672 360 q 612 265 635 301 q 558 182 589 229 q 519 117 532 141 q 506 76 506 93 q 516 49 506 57 q 545 41 527 41 q 569 45 558 41 q 593 60 581 50 q 618 87 605 71 q 649 127 632 103 l 792 329 q 808 352 799 340 q 825 375 817 365 q 843 399 834 388 l 858 389 q 840 362 849 375 q 823 336 833 350 q 803 308 813 322 l 655 98 z "},"v":{"ha":639,"x_min":0,"x_max":682,"o":"m 449 667 q 435 586 449 625 q 392 497 421 547 q 319 382 363 448 q 216 222 275 317 q 191 177 200 196 q 178 145 182 159 q 173 119 174 131 q 172 95 172 108 q 177 74 172 83 q 192 61 183 66 q 211 55 201 57 q 231 53 222 53 q 296 72 259 53 q 375 124 333 91 q 458 202 416 157 q 536 298 500 247 q 602 405 573 349 q 645 515 631 460 q 654 562 652 541 q 651 597 656 583 q 635 620 647 612 q 603 628 624 628 q 575 623 589 628 q 549 610 560 618 q 536 628 541 617 q 532 653 532 638 q 552 699 532 683 q 599 716 572 716 q 660 687 638 716 q 682 594 682 658 q 657 465 682 533 q 591 329 633 397 q 495 201 549 262 q 384 93 442 140 q 267 18 326 46 q 159 -10 209 -10 q 65 16 96 -10 q 33 90 33 42 q 47 153 33 117 q 82 228 60 189 q 133 310 104 268 q 190 394 161 353 q 248 475 219 436 q 298 549 276 515 q 334 609 320 583 q 347 653 347 636 q 335 669 347 669 q 297 655 319 669 q 250 615 276 640 q 196 556 225 590 q 138 483 167 522 q 77 401 108 444 q 17 316 46 358 l 0 329 q 123 497 68 425 q 225 618 178 569 q 313 692 272 667 q 394 717 354 717 q 422 713 411 717 q 439 702 433 708 q 447 686 444 695 q 449 667 449 677 z "},"w":{"ha":983,"x_min":0,"x_max":1009,"o":"m 449 667 q 435 586 449 625 q 392 497 421 547 q 319 382 363 448 q 216 222 275 317 q 191 177 200 196 q 178 145 182 159 q 173 119 174 131 q 172 95 172 108 q 177 74 172 83 q 192 61 183 66 q 211 55 201 57 q 231 53 222 53 q 313 74 267 53 q 408 131 358 94 q 432 245 413 183 q 479 372 451 308 q 541 495 507 435 q 610 601 574 555 q 680 676 645 648 q 743 704 714 704 q 767 698 757 704 q 783 683 777 692 q 792 660 790 673 q 795 634 795 647 q 774 536 795 587 q 718 433 753 485 q 633 327 682 381 q 530 224 585 274 q 523 162 524 190 q 526 113 522 133 q 540 81 530 92 q 566 69 549 69 q 631 87 594 69 q 708 136 667 105 q 789 210 748 167 q 866 302 830 253 q 930 406 901 352 q 972 515 958 460 q 981 562 979 541 q 978 597 983 583 q 962 620 974 612 q 930 628 951 628 q 902 623 916 628 q 876 610 888 618 q 864 628 868 617 q 859 653 859 638 q 879 699 859 683 q 926 716 899 716 q 987 687 965 716 q 1009 594 1009 658 q 984 465 1009 533 q 916 329 958 397 q 819 201 874 262 q 705 93 764 140 q 588 18 647 46 q 478 -10 528 -10 q 423 18 440 -10 q 406 92 406 46 q 277 18 341 45 q 159 -10 214 -10 q 65 16 96 -10 q 33 90 33 42 q 47 153 33 117 q 82 228 60 189 q 133 310 104 268 q 190 394 161 353 q 248 475 219 436 q 298 549 276 515 q 334 609 320 583 q 347 653 347 636 q 335 669 347 669 q 297 655 319 669 q 250 615 276 640 q 196 556 225 590 q 138 483 167 522 q 77 401 108 444 q 17 316 46 358 l 0 329 q 123 497 68 425 q 226 618 178 569 q 315 692 274 667 q 397 717 357 717 q 439 702 428 717 q 449 667 449 687 m 769 633 q 761 669 769 658 q 743 680 753 680 q 709 662 727 680 q 670 613 690 644 q 631 542 651 583 q 594 455 612 501 q 563 362 577 410 q 538 270 548 315 q 627 361 585 314 q 700 456 669 409 q 750 548 732 503 q 769 633 769 594 z "},"x":{"ha":749,"x_min":-160,"x_max":921,"o":"m -160 18 q -70 54 -114 25 q 21 130 -26 83 q 119 239 68 176 q 231 377 171 302 q 285 450 258 411 q 334 525 313 488 q 370 592 356 561 q 384 643 384 624 q 377 668 384 661 q 358 675 370 675 q 295 650 330 675 q 217 577 260 624 q 124 464 174 531 q 17 316 74 398 l 0 329 q 125 500 69 427 q 228 621 181 573 q 318 693 276 669 q 404 717 360 717 q 465 697 440 717 q 490 635 490 676 q 487 603 490 622 q 477 556 485 585 q 453 484 469 526 q 410 381 437 442 l 417 376 q 541 531 486 466 q 643 636 597 595 q 731 697 690 678 q 810 717 771 717 q 852 711 832 717 q 888 693 872 705 q 912 664 903 682 q 921 622 921 646 q 915 596 921 608 q 899 575 909 584 q 876 561 889 566 q 851 556 864 556 q 813 568 826 556 q 795 600 799 579 q 804 612 800 605 q 810 625 808 617 q 813 641 813 633 q 803 670 813 661 q 778 679 794 679 q 719 661 752 679 q 646 605 687 643 q 554 505 605 566 q 440 358 503 444 q 382 273 408 317 q 332 185 355 228 q 313 138 318 160 q 308 100 308 115 q 329 45 308 61 q 382 30 349 30 q 453 47 413 30 q 540 99 493 63 q 639 192 586 135 q 749 329 691 249 q 765 352 756 340 q 782 375 774 365 q 800 399 791 388 l 815 389 q 797 362 806 375 q 780 336 790 350 q 760 308 769 322 q 650 170 703 229 q 542 72 597 111 q 432 13 488 33 q 313 -7 375 -7 q 207 24 240 -7 q 174 114 174 54 q 181 168 174 139 q 199 228 188 197 q 226 293 211 260 q 258 360 242 326 l 251 364 q 129 213 185 279 q 23 100 73 147 q -71 27 -26 53 q -160 -6 -116 0 l -160 18 z "},"y":{"ha":761,"x_min":-226,"x_max":878,"o":"m -199 -271 q -173 -312 -199 -300 q -97 -324 -146 -324 q 10 -303 -42 -324 q 115 -236 62 -283 q 224 -114 168 -189 q 341 70 279 -38 q 428 223 389 155 q 494 339 468 290 l 489 342 q 449 294 474 326 q 389 223 424 263 q 313 142 355 184 q 222 61 270 99 q 131 -4 179 27 q 36 -64 83 -35 q -53 -119 -10 -92 q -128 -172 -96 -147 q -180 -222 -160 -197 q -199 -271 -199 -247 m 448 648 q 435 597 448 627 q 401 530 422 566 q 354 452 381 493 q 299 370 327 411 q 244 288 271 328 q 197 213 217 248 q 163 149 176 178 q 150 103 150 121 q 155 89 150 97 q 167 81 159 81 q 222 98 190 81 q 295 156 253 116 q 392 260 338 196 q 518 416 447 324 q 591 503 554 463 q 668 594 627 544 q 705 638 690 619 q 732 669 719 656 q 757 689 744 681 q 785 702 769 697 q 816 711 803 708 q 837 715 828 714 q 851 717 845 717 q 863 717 857 717 q 878 704 878 717 q 875 691 878 699 q 863 667 872 683 q 836 623 853 651 q 788 548 818 594 q 744 480 767 515 q 695 401 722 444 q 635 303 669 358 q 556 178 601 249 q 391 -56 472 42 q 230 -219 310 -155 q 68 -315 149 -284 q -97 -347 -12 -347 q -192 -326 -158 -347 q -226 -270 -226 -306 q -207 -220 -226 -246 q -158 -169 -188 -194 q -90 -119 -128 -144 q -16 -72 -53 -94 q 55 -28 22 -49 q 109 10 88 -7 l 107 13 q 83 0 95 6 q 57 -6 71 -6 q 19 5 31 -6 q 7 42 7 16 q 26 121 7 76 q 82 226 46 166 q 169 365 117 287 q 285 542 220 443 q 301 567 292 553 q 316 593 309 580 q 327 617 322 606 q 331 638 331 629 q 326 651 331 646 q 312 656 321 656 q 256 627 288 656 q 185 550 223 598 q 104 441 147 502 q 17 316 61 380 l 0 329 q 119 497 68 425 q 214 618 171 569 q 297 692 258 667 q 381 717 337 717 q 432 697 416 717 q 448 648 448 677 z "},"z":{"ha":620,"x_min":-340,"x_max":687,"o":"m 0 329 q 139 508 75 435 q 261 628 203 582 q 374 696 319 675 q 486 717 429 717 q 580 691 546 717 q 615 618 615 666 q 598 544 615 583 q 554 467 582 506 q 488 392 526 429 q 408 324 450 356 q 428 277 421 304 q 436 215 436 251 q 436 206 436 210 q 435 197 435 201 q 536 242 491 207 q 620 329 581 278 q 637 352 628 340 q 654 374 647 364 q 672 399 663 387 l 687 389 q 669 362 678 376 q 651 336 662 350 q 631 308 641 322 q 541 218 588 253 q 433 171 493 184 q 393 48 424 110 q 315 -72 363 -15 q 208 -180 268 -129 q 79 -267 147 -230 q -63 -325 10 -304 q -209 -347 -136 -347 q -307 -323 -274 -347 q -340 -258 -340 -299 q -306 -176 -340 -224 q -191 -73 -271 -129 q 18 48 -112 -16 q 339 183 148 113 q 361 245 353 216 q 368 296 369 274 q 241 229 305 254 q 122 204 176 204 q 68 217 90 204 q 47 253 47 231 q 62 297 47 276 q 110 335 78 318 q 191 362 142 351 q 305 372 239 372 q 384 446 348 409 q 445 518 419 483 q 484 582 470 552 q 499 633 499 611 q 487 669 500 655 q 445 683 474 683 q 363 664 407 683 q 266 602 319 645 q 152 488 214 558 q 17 317 90 418 l 0 329 m -215 -322 q -116 -301 -167 -322 q -12 -242 -65 -279 q 90 -158 40 -206 q 185 -56 140 -110 q 266 52 229 -3 q 327 157 302 107 q 25 29 148 90 q -173 -85 -97 -32 q -282 -181 -249 -137 q -315 -258 -315 -225 q -289 -306 -315 -290 q -215 -322 -263 -322 m 113 236 q 156 248 133 236 q 202 277 179 260 q 247 315 225 294 q 288 351 269 335 q 193 343 233 351 q 127 322 153 335 q 89 294 101 309 q 76 267 76 280 q 113 236 76 236 z "},"{":{"ha":513,"x_min":-77,"x_max":747,"o":"m 140 559 q 169 540 156 553 q 191 512 181 530 q 200 467 200 494 q 181 391 200 434 q 135 298 163 347 q 74 197 107 249 q 13 94 41 145 q -33 -2 -15 44 q -52 -85 -52 -49 q -45 -124 -52 -108 q -27 -148 -39 -139 q 0 -161 -16 -158 q 33 -165 15 -165 l 33 -187 q -46 -163 -17 -187 q -77 -85 -76 -139 q -58 0 -77 -47 q -12 98 -40 47 q 49 201 16 149 q 110 302 82 253 q 156 393 138 351 q 175 467 175 436 q 138 536 175 514 q 35 558 101 558 l 35 578 q 131 583 84 578 q 224 610 177 588 q 319 682 271 633 q 419 817 367 730 q 518 959 470 905 q 609 1042 567 1013 q 686 1081 651 1071 q 747 1091 722 1091 l 747 1070 q 692 1061 724 1070 q 619 1023 659 1051 q 533 944 578 995 q 438 809 487 892 q 384 726 411 762 q 330 665 356 691 q 280 621 304 639 q 235 592 256 603 q 140 564 185 566 l 140 559 z "},"|":{"ha":750,"x_min":530,"x_max":560,"o":"m 533 -186 l 530 1090 l 554 1090 l 560 -186 l 533 -186 z "},"}":{"ha":375,"x_min":-279,"x_max":553,"o":"m 453 567 q 422 585 435 573 q 400 613 410 596 q 390 656 390 630 q 400 708 390 681 q 426 764 410 735 q 459 822 442 793 q 493 880 477 851 q 518 937 508 909 q 528 990 528 965 q 522 1028 528 1013 q 504 1052 515 1043 q 477 1066 492 1062 q 443 1069 461 1069 l 443 1091 q 523 1067 493 1091 q 553 990 552 1043 q 543 935 553 963 q 518 877 533 906 q 484 818 502 848 q 451 761 467 789 q 425 706 435 733 q 415 656 415 680 q 448 593 415 611 q 546 575 480 575 l 546 555 q 405 515 472 555 q 275 408 338 474 q 157 258 213 342 q 49 87 100 174 q -51 -55 -3 -1 q -142 -137 -99 -108 q -219 -177 -184 -167 q -279 -187 -254 -187 l -279 -166 q -225 -157 -258 -166 q -151 -119 -192 -147 q -65 -40 -111 -91 q 29 95 -19 12 q 135 266 83 189 q 240 402 188 343 q 344 501 292 461 q 453 562 397 542 l 453 567 z "},"~":{"ha":858,"x_min":148,"x_max":724,"o":"m 148 382 q 205 451 178 422 q 259 500 232 481 q 315 530 286 520 q 379 540 344 540 q 433 526 409 540 q 476 496 456 513 q 514 466 496 480 q 551 453 532 453 q 580 457 565 453 q 614 473 595 461 q 655 506 632 485 q 706 560 677 527 l 724 544 q 660 472 690 505 q 602 415 630 440 q 546 377 574 391 q 491 364 519 364 q 440 381 465 364 q 392 417 415 397 q 348 454 369 438 q 308 471 327 471 q 280 469 293 471 q 251 457 267 467 q 215 426 235 447 q 167 370 195 406 l 148 382 z "},"":{"ha":375,"x_min":-272,"x_max":485,"o":"m 319 490 q 223 334 269 414 q 135 175 176 253 q 56 25 93 97 q -13 -110 19 -48 q -71 -219 -44 -172 q -117 -296 -97 -267 q -148 -325 -129 -315 q -184 -340 -166 -335 q -218 -345 -202 -344 q -242 -347 -234 -347 q -264 -342 -256 -347 q -271 -328 -272 -337 q -259 -299 -269 -316 q -149 -136 -213 -227 q -10 59 -85 -44 q 144 274 64 163 q 301 500 224 386 l 319 490 m 485 685 q 480 649 485 669 q 463 612 474 629 q 433 583 451 594 q 390 572 415 572 q 344 588 361 572 q 326 626 326 605 q 334 660 326 642 q 356 692 341 678 q 391 716 370 707 q 440 725 413 725 q 472 715 459 725 q 485 685 485 704 z "},"":{"ha":567,"x_min":15,"x_max":635,"o":"m 615 815 l 635 802 l 551 649 q 583 613 573 638 q 593 560 593 589 l 571 560 q 557 615 571 597 q 519 633 542 633 q 456 612 492 633 q 383 557 421 591 q 310 478 346 522 q 245 385 274 433 q 200 290 217 338 q 183 201 183 242 q 195 166 183 176 q 231 156 208 156 q 288 168 258 156 q 348 201 317 181 q 407 247 378 221 q 462 301 436 273 l 475 288 q 410 223 447 256 q 333 161 374 189 q 247 116 292 134 q 156 99 201 99 q 149 99 152 99 q 143 99 147 99 l 38 -85 l 15 -72 l 118 103 q 71 137 88 113 q 54 197 54 160 q 76 284 54 235 q 133 384 97 333 q 217 484 169 435 q 315 571 264 533 q 419 633 367 609 q 517 656 471 656 q 520 656 519 656 q 524 656 522 656 l 615 815 z "},"":{"ha":639,"x_min":-101,"x_max":620,"o":"m -101 51 q -91 94 -101 73 q -61 133 -81 116 q -11 161 -42 150 q 58 174 19 172 q 63 185 60 179 q 110 288 87 241 q 156 374 133 334 l 72 374 l 72 397 l 170 397 q 281 547 228 492 q 381 630 334 602 q 465 664 427 657 q 530 672 503 672 q 586 660 563 672 q 620 629 608 648 l 610 624 q 603 619 608 622 q 601 617 601 618 q 574 641 591 632 q 530 650 557 650 q 484 644 508 650 q 433 614 460 639 q 375 539 406 590 q 309 397 344 488 l 449 397 l 449 374 l 300 374 q 284 330 292 353 q 268 280 276 306 q 261 261 265 272 q 248 239 257 251 q 222 214 238 226 q 181 190 206 201 q 156 179 167 184 q 135 171 145 174 q 225 159 184 167 q 301 147 265 151 q 370 145 338 142 q 433 166 402 148 q 496 219 465 183 q 562 317 527 255 q 574 313 568 315 q 578 311 576 311 q 582 310 581 310 q 585 309 584 309 q 508 193 546 234 q 430 135 469 152 q 350 118 391 117 q 266 126 310 118 q 174 142 222 133 q 72 151 126 151 q -39 124 -3 151 q -78 51 -75 96 l -101 51 z "},"":{"ha":661,"x_min":-39,"x_max":651,"o":"m 213 560 q 316 620 261 598 q 422 642 371 642 q 490 629 462 642 q 534 593 518 616 l 638 671 l 651 653 l 544 574 q 553 526 553 553 q 541 455 553 490 q 506 386 528 419 q 454 324 484 353 q 391 270 424 294 l 456 172 l 438 159 l 372 258 q 281 213 328 228 q 193 197 235 197 q 98 226 133 197 l -26 133 l -39 151 l 83 242 q 62 311 62 269 q 72 374 62 342 q 100 436 82 406 q 141 494 117 466 q 194 546 165 522 l 132 640 l 151 653 l 213 560 m 89 312 q 96 276 89 292 q 116 247 103 259 q 149 228 129 235 q 193 221 168 221 q 267 233 228 221 q 342 266 306 245 q 413 317 379 288 q 472 380 447 346 q 511 450 497 413 q 526 525 526 488 q 502 591 526 566 q 422 616 477 616 q 348 604 386 616 q 272 570 309 592 q 202 519 235 549 q 143 457 169 490 q 103 386 118 423 q 89 312 89 349 z "},"":{"ha":686,"x_min":92,"x_max":752,"o":"m 422 358 q 415 352 418 355 q 409 347 411 349 l 405 343 l 367 271 l 504 271 l 504 248 l 356 248 l 303 146 q 265 116 292 128 q 185 94 237 103 q 149 92 161 90 q 134 100 138 94 q 133 113 131 106 q 141 128 136 121 l 216 248 l 92 248 l 92 271 l 230 271 l 285 358 l 156 358 l 156 381 l 278 381 l 183 618 q 182 628 181 624 q 187 634 183 631 q 201 638 191 638 l 276 638 q 288 634 283 638 q 295 628 292 631 q 301 618 298 624 l 395 369 l 735 658 q 742 649 739 652 q 752 639 749 640 l 449 381 l 567 381 l 567 358 l 422 358 z "},"":{"ha":645,"x_min":278,"x_max":308,"o":"m 281 -187 l 282 327 l 306 327 l 308 -187 l 281 -187 m 278 631 l 280 1090 l 304 1090 l 306 631 l 278 631 z "},"":{"ha":678,"x_min":-108,"x_max":699,"o":"m 676 645 q 671 674 676 660 q 657 698 667 688 q 632 715 647 709 q 593 722 616 722 q 550 712 569 722 q 515 687 530 703 q 493 651 501 672 q 485 607 485 630 q 496 548 485 576 q 522 491 508 520 q 547 432 535 463 q 558 368 558 402 q 537 281 558 318 q 478 218 515 243 q 391 179 441 192 q 285 164 342 166 q 290 129 290 146 q 270 49 290 85 q 216 -14 251 13 q 132 -54 181 -40 q 24 -68 83 -68 q -34 -57 -9 -68 q -75 -33 -58 -47 q -108 3 -94 -17 l -90 16 q -62 -15 -79 -2 q -27 -36 -49 -27 q 24 -46 -5 -46 q 120 -7 88 -46 q 152 106 152 32 q 145 161 152 135 q 128 212 138 187 q 112 262 119 237 q 105 315 105 288 q 124 395 105 360 q 176 456 144 431 q 252 495 209 481 q 340 508 294 508 q 372 505 356 508 q 366 529 368 517 q 365 556 365 542 q 384 636 365 601 q 435 695 403 671 q 508 731 467 719 q 593 743 549 743 q 640 735 620 743 q 673 713 660 726 q 692 682 686 699 q 699 645 699 664 l 676 645 m 421 344 q 417 384 421 366 q 407 418 413 402 q 393 449 401 435 q 380 480 386 464 q 340 487 363 487 q 294 478 315 487 q 258 454 273 469 q 234 416 242 438 q 225 365 225 393 q 231 320 225 342 q 245 275 237 297 q 264 231 254 253 q 280 186 273 208 q 335 199 309 188 q 380 228 360 209 q 410 277 399 248 q 421 344 421 306 z "},"":{"ha":326,"x_min":72,"x_max":501,"o":"m 72 833 q 78 861 72 842 q 99 900 85 880 q 137 935 114 919 q 193 950 160 950 q 216 942 205 950 q 227 913 227 933 q 218 880 227 897 q 193 848 210 863 q 153 824 177 833 q 99 814 129 814 q 80 818 88 814 q 72 833 72 822 m 342 865 q 350 890 342 873 q 374 925 358 907 q 415 956 390 942 q 472 969 440 969 q 484 968 478 969 q 493 966 489 968 q 499 958 497 963 q 501 942 501 952 q 493 907 501 926 q 470 872 485 888 q 433 843 456 855 q 379 832 410 832 q 352 840 363 832 q 342 865 342 847 z "},"":{"ha":883,"x_min":69,"x_max":881,"o":"m 71 190 q 95 329 69 262 q 164 454 120 396 q 268 561 208 513 q 394 644 327 610 q 533 698 461 679 q 672 717 604 717 q 760 703 721 717 q 826 664 799 690 q 867 603 853 639 q 881 524 881 567 q 856 390 880 456 q 790 264 831 324 q 692 155 748 205 q 574 69 637 106 q 445 13 512 33 q 315 -8 378 -8 q 210 7 255 -8 q 134 48 165 22 q 87 110 103 74 q 71 190 72 147 m 95 188 q 108 120 95 151 q 149 65 122 88 q 217 28 176 41 q 314 15 258 15 q 436 34 373 15 q 560 87 499 53 q 674 169 620 122 q 768 274 728 217 q 833 395 809 331 q 856 526 856 459 q 844 595 856 565 q 810 649 833 626 q 753 683 787 671 q 676 695 719 695 q 541 677 610 695 q 408 625 472 658 q 286 544 343 591 q 187 442 229 498 q 120 321 144 385 q 95 188 95 257 m 599 283 q 547 230 576 257 q 483 181 517 203 q 412 144 449 158 q 337 130 375 130 q 277 151 301 130 q 253 210 253 173 q 270 282 253 242 q 318 364 288 322 q 387 447 348 406 q 468 519 426 488 q 553 571 510 551 q 635 590 597 590 q 684 568 668 590 q 701 509 701 547 l 676 509 q 665 553 676 539 q 635 568 653 568 q 562 550 601 568 q 484 501 523 531 q 410 433 446 471 q 348 355 375 394 q 305 277 321 315 q 288 210 288 240 q 300 173 288 189 q 337 156 313 156 q 411 169 375 156 q 478 203 447 183 q 537 248 510 224 q 585 295 564 273 l 599 283 z "},"":{"ha":708,"x_min":235,"x_max":840,"o":"m 840 802 q 782 713 810 757 q 724 635 753 669 q 665 580 695 601 q 603 559 635 559 q 585 562 595 559 q 564 573 574 565 q 547 595 554 581 q 540 629 540 608 q 551 689 540 658 q 576 747 562 720 q 612 806 592 777 l 608 808 q 574 765 594 790 q 530 712 554 740 q 477 656 506 684 q 420 607 449 628 q 360 571 390 585 q 299 557 329 557 q 275 561 287 557 q 255 573 264 565 q 240 594 246 581 q 235 624 235 606 q 255 707 235 658 q 308 806 274 755 q 386 908 342 858 q 481 999 431 959 q 583 1064 531 1040 q 683 1089 635 1089 q 702 1086 692 1089 q 719 1078 712 1084 q 732 1062 727 1072 q 738 1035 738 1051 l 741 1035 l 766 1085 l 789 1087 q 720 959 751 1015 q 664 860 689 903 q 620 785 639 817 q 588 725 601 752 q 569 675 576 699 q 563 628 563 652 q 576 591 563 602 q 604 581 590 581 q 659 600 632 581 q 713 652 686 619 q 767 725 740 684 q 823 811 794 767 l 840 802 m 681 1068 q 590 1044 638 1068 q 495 981 542 1020 q 407 893 449 942 q 332 795 365 844 q 281 700 300 745 q 263 622 263 654 q 275 591 263 601 q 306 581 287 581 q 381 606 342 581 q 460 667 421 631 q 534 746 499 704 q 597 824 569 788 q 647 891 625 859 q 685 951 669 924 q 709 1001 701 979 q 717 1038 717 1024 q 710 1060 717 1051 q 681 1068 703 1068 z "},"":{"ha":528,"x_min":84,"x_max":496,"o":"m 426 177 l 256 359 l 478 567 l 496 549 l 292 358 l 444 194 l 426 177 m 254 177 l 84 359 l 306 567 l 324 549 l 120 358 l 272 194 l 254 177 z "},"":{"ha":706,"x_min":83,"x_max":626,"o":"m 83 376 l 626 376 l 626 352 l 489 107 l 465 119 l 597 352 l 83 352 l 83 376 z "},"":{"ha":978,"x_min":313,"x_max":1011,"o":"m 987 513 q 931 453 963 476 q 864 431 898 431 q 824 439 841 431 q 794 461 807 447 q 771 495 781 476 q 750 536 760 514 q 638 486 696 504 q 525 469 581 469 q 434 481 473 469 q 368 516 394 494 q 327 570 341 538 q 314 639 314 601 q 335 758 313 700 q 394 865 356 815 q 483 957 432 915 q 592 1028 535 998 q 711 1074 650 1058 q 832 1090 773 1090 q 908 1078 874 1090 q 964 1045 941 1067 q 999 993 987 1023 q 1011 926 1011 963 q 991 817 1010 870 q 940 715 972 763 q 865 624 908 666 q 774 551 822 583 q 791 513 783 531 q 810 483 799 496 q 833 463 820 470 q 864 456 846 456 q 919 475 894 456 q 965 526 945 494 l 987 513 m 643 958 q 700 970 671 965 q 749 975 729 975 q 832 956 801 975 q 863 899 863 937 q 844 840 863 868 q 794 789 825 811 q 723 754 763 767 q 640 738 683 740 q 685 700 666 720 q 719 658 704 679 q 744 615 733 637 q 765 573 756 593 q 851 643 810 603 q 922 728 892 683 q 969 825 952 774 q 987 927 987 875 q 977 985 987 959 q 947 1030 967 1011 q 899 1059 928 1049 q 833 1069 870 1069 q 719 1053 777 1069 q 606 1009 660 1038 q 502 940 551 980 q 416 852 453 900 q 359 750 380 804 q 338 638 338 695 q 349 580 338 607 q 383 533 360 553 q 442 502 406 513 q 525 490 477 490 q 632 508 577 490 q 741 558 688 526 q 717 608 730 582 q 686 658 704 633 q 645 705 669 683 q 590 746 622 728 q 565 769 574 754 q 532 708 549 738 q 501 654 515 678 q 477 612 488 630 q 463 588 467 594 q 459 587 463 588 q 449 587 454 587 l 434 587 l 643 958 m 660 942 q 647 918 656 933 q 628 884 639 903 q 606 842 618 865 q 580 796 593 819 q 594 770 582 780 q 628 760 606 760 q 703 770 666 760 q 770 800 740 781 q 817 844 799 819 q 835 899 835 869 q 813 942 835 929 q 749 955 791 955 q 707 951 731 955 q 660 942 682 947 z "},"":{"ha":684,"x_min":399,"x_max":811,"o":"m 399 871 l 811 871 l 811 847 l 399 847 l 399 871 z "},"":{"ha":460,"x_min":124,"x_max":378,"o":"m 124 717 q 134 766 124 743 q 161 807 144 790 q 202 834 178 824 q 251 844 225 844 q 301 834 278 844 q 341 807 324 824 q 368 766 358 790 q 378 717 378 743 q 368 667 378 690 q 341 627 358 644 q 301 600 324 610 q 251 590 278 590 q 202 600 225 590 q 161 627 178 610 q 134 667 144 644 q 124 717 124 690 m 147 717 q 156 676 147 695 q 178 642 164 656 q 211 619 192 627 q 251 610 230 610 q 292 619 273 610 q 325 642 311 627 q 347 676 339 656 q 356 717 356 695 q 347 758 356 738 q 325 792 339 777 q 292 815 311 806 q 251 823 273 823 q 211 815 230 823 q 178 792 192 806 q 156 758 164 777 q 147 717 147 738 z "},"":{"ha":685,"x_min":136,"x_max":520,"o":"m 136 449 l 319 449 l 319 615 l 344 615 l 344 449 l 520 449 l 520 426 l 344 426 l 344 276 l 319 276 l 319 426 l 136 426 l 136 449 m 136 176 l 520 176 l 520 153 l 136 153 l 136 176 z "},"":{"ha":666,"x_min":90,"x_max":718,"o":"m 90 440 q 142 501 113 472 q 208 555 171 531 q 282 605 244 580 q 357 657 320 631 q 426 711 394 684 q 484 768 459 739 q 524 828 509 797 q 538 891 538 858 q 526 924 538 913 q 492 934 514 934 q 416 910 456 934 q 336 849 376 887 q 257 763 296 811 q 182 665 217 715 l 169 676 q 273 811 223 753 q 370 908 322 869 q 463 966 417 947 q 556 986 509 986 q 605 980 583 986 q 641 963 626 974 q 663 937 656 951 q 671 906 671 923 q 650 845 671 876 q 594 785 629 815 q 512 724 558 754 q 415 662 466 693 q 311 600 364 631 q 212 536 259 568 l 215 532 q 259 556 237 545 q 307 566 281 566 q 355 556 333 566 q 396 535 376 547 q 432 513 415 523 q 465 503 449 503 q 513 517 488 503 q 562 555 537 531 q 613 609 588 578 q 665 676 639 641 q 678 694 671 685 q 691 713 685 704 l 706 732 l 718 724 q 703 702 711 713 q 689 681 697 692 q 674 660 681 670 q 603 566 640 612 q 530 485 566 521 q 459 428 494 450 q 396 407 425 407 q 349 422 369 407 q 310 456 328 438 q 274 490 292 474 q 233 505 256 505 q 210 500 221 505 q 189 484 199 496 q 169 453 179 473 q 148 403 159 434 q 124 416 134 410 q 106 428 113 422 q 90 440 97 434 z "},"":{"ha":750,"x_min":61,"x_max":754,"o":"m 754 916 q 726 836 754 874 q 654 764 698 797 q 556 703 610 731 q 451 655 502 675 l 453 649 q 472 653 462 651 q 491 656 480 654 q 516 657 502 657 q 569 650 544 657 q 611 627 593 642 q 638 589 628 613 q 648 533 648 565 q 627 425 648 479 q 569 322 606 372 q 485 230 533 273 q 385 156 438 188 q 277 107 332 125 q 173 89 223 89 q 120 97 142 89 q 86 118 99 105 q 67 149 73 132 q 61 185 61 166 q 66 231 61 207 q 78 280 70 255 l 98 274 q 86 228 90 251 q 82 184 82 205 q 86 157 82 170 q 101 133 90 143 q 128 116 111 122 q 172 109 146 109 q 248 125 208 109 q 325 170 287 142 q 396 239 363 199 q 455 324 429 278 q 495 420 480 369 q 510 522 510 471 q 491 590 510 568 q 442 613 472 613 q 402 603 426 613 q 358 583 379 594 q 306 555 333 571 q 298 575 301 565 q 292 595 294 586 q 288 616 290 606 q 450 679 385 642 q 553 756 515 716 q 607 833 591 795 q 622 901 622 872 q 610 933 622 923 q 576 944 597 944 q 492 920 535 944 q 405 859 448 897 q 320 773 361 821 q 243 675 278 724 l 230 685 q 336 820 284 762 q 438 917 388 878 q 538 976 488 956 q 640 996 588 996 q 724 976 694 996 q 754 916 754 956 z "},"":{"ha":258,"x_min":43,"x_max":350,"o":"m 301 1052 q 326 1031 315 1042 q 342 1009 335 1022 q 350 985 350 997 q 333 943 350 963 q 290 907 317 924 q 230 877 263 891 q 163 853 197 864 q 98 836 129 843 q 47 826 67 829 l 43 839 q 129 885 88 857 q 203 944 169 914 q 261 1004 236 975 q 301 1052 287 1033 z "},"":{"ha":792,"x_min":-215,"x_max":878,"o":"m 51 -6 q 18 5 30 -6 q 7 42 7 16 l 1 42 q -45 -94 -26 -33 q -82 -199 -64 -156 q -120 -267 -99 -243 q -173 -290 -141 -290 q -205 -278 -194 -290 q -215 -244 -215 -265 q -192 -177 -215 -212 l -8 92 l 353 655 q 381 676 363 667 q 419 690 399 685 q 461 698 440 696 q 494 701 481 701 q 512 697 506 701 q 518 682 518 692 q 515 670 518 676 q 501 651 511 663 q 457 590 483 625 q 404 515 432 556 q 346 431 376 474 q 288 345 316 388 q 235 263 260 302 q 191 191 210 223 q 161 135 172 158 q 150 103 150 112 q 152 92 150 97 q 163 87 155 87 q 210 112 176 87 q 293 182 244 138 q 399 287 341 226 q 516 418 456 348 q 591 503 554 463 q 668 594 627 544 q 707 640 690 622 q 736 671 723 659 q 761 691 749 683 q 785 702 772 698 q 814 710 802 708 q 835 715 826 713 q 851 716 844 716 q 863 717 857 717 q 878 704 878 717 q 875 691 878 699 q 862 667 872 683 q 835 623 853 651 q 788 548 817 594 l 558 182 q 519 117 532 141 q 506 76 506 93 q 516 49 506 57 q 545 41 527 41 q 569 45 558 41 q 593 60 581 50 q 618 87 605 71 q 649 127 632 103 l 792 329 q 808 352 799 340 q 825 375 817 365 q 843 399 834 388 l 858 389 q 840 362 849 375 q 823 336 833 350 q 803 308 813 322 l 655 98 q 620 54 638 74 q 582 21 602 35 q 538 0 562 8 q 485 -7 514 -7 q 416 13 437 -7 q 396 66 396 33 q 445 211 396 118 q 584 444 494 304 l 580 449 q 401 247 485 333 q 249 106 317 162 q 131 22 181 49 q 51 -6 80 -6 z "},"":{"ha":667,"x_min":-5,"x_max":904,"o":"m 281 172 q 241 163 261 166 q 201 160 220 160 q 131 171 162 160 q 80 200 101 181 q 48 245 59 219 q 38 303 38 272 q 57 403 38 353 q 111 499 77 453 q 189 585 144 545 q 283 654 233 625 q 386 700 333 683 q 488 717 438 717 l 496 717 l 904 717 l 904 692 l 772 692 l 184 -342 l 160 -330 l 744 692 l 607 692 l 19 -342 l -5 -330 l 281 172 z "},"":{"ha":488,"x_min":135,"x_max":329,"o":"m 135 306 q 143 341 135 317 q 169 390 151 365 q 216 434 188 415 q 286 453 245 453 q 315 442 301 453 q 329 407 329 431 q 318 365 329 387 q 287 325 308 343 q 236 295 266 307 q 167 283 206 283 q 145 288 156 283 q 135 306 135 292 z "},"":{"ha":549,"x_min":-127,"x_max":137,"o":"m 3 -70 q -3 -57 -2 -65 q 1 -43 -3 -49 q 16 -32 6 -36 q 44 -27 26 -27 q 76 -31 60 -27 q 107 -43 93 -34 q 128 -68 120 -52 q 137 -108 137 -83 q 127 -147 137 -125 q 97 -189 117 -169 q 42 -223 76 -209 q -39 -236 9 -236 q -80 -232 -63 -236 q -107 -219 -97 -227 q -122 -202 -117 -212 q -127 -182 -127 -192 q -114 -150 -127 -164 q -72 -136 -100 -136 q -53 -165 -68 -155 q -18 -179 -38 -176 q 23 -179 1 -183 q 63 -166 44 -176 q 93 -142 81 -156 q 105 -108 105 -127 q 96 -80 105 -91 q 73 -64 88 -69 q 41 -60 59 -59 q 3 -70 22 -62 z "},"":{"ha":543,"x_min":146,"x_max":572,"o":"m 440 898 q 428 910 440 910 q 387 892 415 910 q 323 843 359 875 q 245 764 287 810 q 163 660 204 718 l 146 674 q 277 830 213 769 q 395 927 341 892 q 490 976 449 963 q 553 990 531 990 q 572 973 572 990 q 562 918 572 952 q 527 827 552 884 q 459 685 502 769 q 348 478 415 600 q 330 449 338 460 q 312 430 321 438 q 293 419 303 423 q 272 411 283 415 q 252 406 265 409 q 224 400 239 403 q 195 395 209 397 q 173 393 181 393 q 159 396 165 393 q 153 406 153 399 q 160 426 153 414 q 272 607 226 532 q 349 733 318 682 q 398 815 380 785 q 425 863 416 846 q 437 888 435 881 q 440 898 440 894 z "},"":{"ha":543,"x_min":90,"x_max":628,"o":"m 266 490 q 349 510 308 490 q 428 564 390 531 q 499 640 466 597 q 555 727 531 683 q 593 816 579 772 q 606 893 606 859 q 592 948 606 931 q 554 966 578 966 q 492 945 527 966 q 419 890 456 924 q 345 811 381 856 q 281 719 309 767 q 235 623 253 671 q 218 535 218 575 q 231 500 218 510 q 266 490 243 490 m 628 893 q 613 804 628 853 q 568 703 597 754 q 499 603 539 652 q 410 516 458 554 q 306 455 361 478 q 191 432 250 432 q 117 458 145 432 q 90 530 90 483 q 111 617 90 568 q 169 717 133 666 q 252 817 205 768 q 351 904 299 866 q 454 966 402 942 q 553 990 506 990 q 588 982 574 990 q 611 960 602 974 q 624 929 620 947 q 628 893 628 912 z "},"":{"ha":569,"x_min":84,"x_max":496,"o":"m 153 567 l 324 385 l 101 177 l 84 194 l 288 385 l 136 549 l 153 567 m 326 567 l 496 385 l 274 177 l 256 194 l 460 385 l 308 549 l 326 567 z "},"":{"ha":1417,"x_min":104,"x_max":1347,"o":"m 929 667 q 955 625 946 650 q 964 563 964 599 q 949 478 964 522 q 904 386 934 435 q 828 278 874 336 q 724 150 783 220 l 729 145 q 759 160 742 153 q 791 170 773 165 q 829 175 809 175 q 862 170 847 175 q 891 159 877 166 q 917 143 904 152 q 941 125 929 134 q 1001 241 970 181 q 1060 355 1033 301 q 1108 448 1087 408 q 1138 506 1128 489 q 1156 525 1143 517 q 1185 540 1169 534 q 1216 550 1201 547 q 1242 553 1232 553 q 1261 538 1261 553 q 1257 519 1261 530 q 1242 481 1253 507 q 1216 421 1231 456 q 1182 344 1201 386 q 1143 258 1163 303 q 1102 169 1123 214 q 1063 83 1081 124 q 1131 101 1101 87 q 1187 139 1161 115 q 1236 194 1213 163 q 1287 263 1260 225 q 1300 282 1293 272 q 1314 301 1308 292 q 1328 322 1322 311 l 1347 311 q 1333 290 1340 301 q 1318 269 1326 280 q 1303 247 1310 258 q 1242 167 1270 201 q 1185 109 1215 133 q 1124 73 1156 85 q 1051 58 1092 60 q 1025 2 1038 28 q 1003 -44 1013 -24 q 987 -78 994 -64 q 978 -97 981 -92 q 952 -133 965 -119 q 927 -155 940 -147 q 899 -170 914 -164 q 865 -182 883 -176 q 828 -189 847 -187 q 799 -191 809 -191 q 785 -181 787 -191 q 787 -171 785 -177 q 795 -152 789 -165 q 814 -116 802 -139 q 846 -56 826 -94 l 930 103 q 882 137 907 122 q 826 152 858 152 q 771 142 794 152 q 730 113 748 131 q 699 68 713 94 q 674 12 686 42 q 645 17 658 13 q 621 26 633 20 q 599 41 608 31 q 763 231 697 150 q 867 373 828 312 q 923 478 906 433 q 939 563 939 524 q 931 616 939 594 q 910 651 924 638 l 929 667 m 398 898 q 387 910 398 910 q 345 892 373 910 q 281 843 317 875 q 204 764 245 810 q 121 660 163 718 l 104 674 q 235 830 172 769 q 353 927 299 892 q 448 976 407 963 q 511 990 489 990 q 530 973 530 990 q 520 918 530 952 q 485 827 510 884 q 417 685 460 769 q 306 478 374 600 q 288 449 297 460 q 270 430 279 438 q 251 419 261 423 q 230 411 242 415 q 210 406 224 409 q 182 400 197 403 q 153 395 167 397 q 131 393 139 393 q 117 396 123 393 q 111 406 111 399 q 119 426 111 414 q 230 607 184 532 q 307 733 276 682 q 356 815 338 785 q 384 863 374 846 q 395 888 393 881 q 398 898 398 894 m 941 1079 l 962 1067 l 235 -213 l 211 -201 l 941 1079 z "},"":{"ha":1417,"x_min":104,"x_max":1289,"o":"m 660 28 q 713 89 684 60 q 779 143 742 119 q 853 193 815 168 q 928 245 891 219 q 997 300 965 272 q 1055 356 1030 327 q 1094 416 1080 385 q 1109 479 1109 447 q 1097 512 1109 501 q 1063 522 1085 522 q 987 499 1026 522 q 907 437 947 475 q 827 351 867 399 q 753 253 788 303 l 740 265 q 843 399 794 341 q 941 496 893 457 q 1034 555 988 535 q 1127 574 1080 574 q 1175 568 1154 574 q 1211 551 1197 562 q 1234 525 1226 540 q 1242 494 1242 511 q 1221 434 1242 464 q 1165 373 1200 403 q 1083 312 1129 342 q 986 250 1037 281 q 882 188 935 219 q 783 124 830 156 l 786 120 q 830 144 808 133 q 878 154 851 154 q 925 144 903 154 q 967 123 947 135 q 1003 101 986 111 q 1036 92 1020 92 q 1083 106 1059 92 q 1133 143 1108 119 q 1184 198 1158 166 q 1235 265 1210 229 q 1249 283 1242 273 q 1262 301 1256 292 l 1276 320 l 1289 312 q 1274 290 1282 301 q 1260 269 1268 281 q 1244 248 1252 258 q 1174 155 1210 200 q 1101 74 1137 109 q 1030 17 1065 38 q 967 -5 996 -5 q 919 10 940 -5 q 881 44 899 26 q 845 78 863 63 q 803 93 826 93 q 781 89 792 93 q 760 73 770 84 q 740 42 750 61 q 719 -8 730 22 q 694 4 705 -2 q 676 16 684 10 q 660 28 667 22 m 398 898 q 387 910 398 910 q 345 892 373 910 q 281 843 317 875 q 204 764 245 810 q 121 660 163 718 l 104 674 q 235 830 172 769 q 353 927 299 892 q 448 976 407 963 q 511 990 489 990 q 530 973 530 990 q 520 918 530 952 q 485 827 510 884 q 417 685 460 769 q 306 478 374 600 q 288 449 297 460 q 270 430 279 438 q 251 419 261 423 q 230 411 242 415 q 210 406 224 409 q 182 400 197 403 q 153 395 167 397 q 131 393 139 393 q 117 396 123 393 q 111 406 111 399 q 119 426 111 414 q 230 607 184 532 q 307 733 276 682 q 356 815 338 785 q 384 863 374 846 q 395 888 393 881 q 398 898 398 894 m 941 1079 l 962 1067 l 235 -213 l 211 -201 l 941 1079 z "},"":{"ha":1417,"x_min":-182,"x_max":1347,"o":"m 929 667 q 955 625 946 650 q 964 563 964 599 q 949 478 964 522 q 904 386 934 435 q 828 278 874 336 q 724 150 783 220 l 729 145 q 759 160 742 153 q 791 170 773 165 q 829 175 809 175 q 862 170 847 175 q 891 159 877 166 q 917 143 904 152 q 941 125 929 134 q 1001 241 970 181 q 1060 355 1033 301 q 1108 448 1087 408 q 1138 506 1128 489 q 1156 525 1143 517 q 1185 540 1169 534 q 1216 550 1201 547 q 1242 553 1232 553 q 1261 538 1261 553 q 1257 519 1261 530 q 1242 481 1253 507 q 1216 421 1231 456 q 1182 344 1201 386 q 1143 258 1163 303 q 1102 169 1123 214 q 1063 83 1081 124 q 1131 101 1101 87 q 1187 139 1161 115 q 1236 194 1213 163 q 1287 263 1260 225 q 1300 282 1293 272 q 1314 301 1308 292 q 1328 322 1322 311 l 1347 311 q 1333 290 1340 301 q 1318 269 1326 280 q 1303 247 1310 258 q 1242 167 1270 201 q 1185 109 1215 133 q 1124 73 1156 85 q 1051 58 1092 60 q 1025 2 1038 28 q 1003 -44 1013 -24 q 987 -78 994 -64 q 978 -97 981 -92 q 952 -133 965 -119 q 927 -155 940 -147 q 899 -170 914 -164 q 865 -182 883 -176 q 828 -189 847 -187 q 799 -191 809 -191 q 785 -181 787 -191 q 787 -171 785 -177 q 795 -152 789 -165 q 814 -116 802 -139 q 846 -56 826 -94 l 930 103 q 882 137 907 122 q 826 152 858 152 q 771 142 794 152 q 730 113 748 131 q 699 68 713 94 q 674 12 686 42 q 645 17 658 13 q 621 26 633 20 q 599 41 608 31 q 763 231 697 150 q 867 373 828 312 q 923 478 906 433 q 939 563 939 524 q 931 616 939 594 q 910 651 924 638 l 929 667 m 511 916 q 483 836 511 874 q 411 764 455 797 q 313 703 367 731 q 208 655 259 675 l 210 649 q 228 653 219 651 q 248 656 237 654 q 273 657 259 657 q 326 650 301 657 q 368 627 350 642 q 395 589 385 613 q 405 533 405 565 q 384 425 405 479 q 326 322 363 372 q 242 230 290 273 q 142 156 194 188 q 34 107 89 125 q -70 89 -20 89 q -123 97 -101 89 q -157 118 -144 105 q -176 149 -170 132 q -182 185 -182 166 q -177 231 -182 207 q -165 280 -173 255 l -145 274 q -157 228 -153 251 q -161 184 -161 205 q -157 157 -161 170 q -142 133 -153 143 q -115 116 -132 122 q -72 109 -97 109 q 5 125 -35 109 q 82 170 44 142 q 153 239 119 199 q 211 324 186 278 q 252 420 237 369 q 267 522 267 471 q 248 590 267 568 q 199 613 229 613 q 159 603 183 613 q 115 583 136 594 q 63 555 90 571 q 55 575 58 565 q 49 595 51 586 q 44 616 47 606 q 207 679 142 642 q 310 756 272 716 q 364 833 348 795 q 379 901 379 872 q 367 933 379 923 q 333 944 354 944 q 249 920 292 944 q 161 859 205 897 q 77 773 118 821 q 0 675 35 724 l -13 685 q 93 820 41 762 q 195 917 144 878 q 295 976 245 956 q 397 996 345 996 q 481 976 451 996 q 511 916 511 956 m 941 1079 l 962 1067 l 235 -213 l 211 -201 l 941 1079 z "},"":{"ha":532,"x_min":-153,"x_max":619,"o":"m 251 382 q 285 425 267 402 q 325 468 303 448 q 370 501 346 488 q 424 514 395 514 q 485 494 460 514 q 510 431 510 474 q 487 334 510 378 q 427 252 464 290 q 342 178 390 213 q 244 109 294 144 q 147 39 194 75 q 61 -38 99 3 q 1 -127 24 -79 q -22 -232 -22 -174 q -12 -284 -22 -262 q 13 -320 -3 -306 q 51 -342 29 -335 q 99 -349 73 -349 q 162 -339 131 -349 q 219 -308 193 -328 q 265 -257 245 -287 q 294 -185 284 -226 l 313 -189 q 280 -267 302 -233 q 228 -324 258 -301 q 163 -360 198 -347 q 90 -372 127 -372 q -7 -360 38 -372 q -84 -322 -51 -347 q -134 -258 -116 -297 q -153 -169 -153 -220 q -125 -62 -153 -111 q -53 27 -98 -14 q 49 104 -8 69 q 166 171 106 139 q 282 234 225 203 q 384 295 340 264 q 457 360 429 326 q 484 431 484 393 q 467 479 484 465 q 423 492 450 492 q 349 461 387 492 q 269 371 310 429 l 251 382 m 619 685 q 614 649 619 669 q 597 612 608 629 q 567 583 585 594 q 524 572 549 572 q 478 588 495 572 q 460 626 460 605 q 468 660 460 642 q 490 692 475 678 q 525 716 504 707 q 574 725 547 725 q 606 715 593 725 q 619 685 619 704 z "},"":{"ha":1100,"x_min":-70,"x_max":1220,"o":"m 1159 1001 q 1194 989 1183 1001 q 1205 958 1205 977 q 1192 902 1205 943 q 1156 803 1178 862 q 1103 673 1133 745 q 1041 522 1074 600 q 974 364 1008 444 q 909 210 940 284 q 1013 251 964 221 q 1100 329 1063 281 q 1117 352 1108 340 q 1134 374 1126 364 q 1151 399 1143 387 l 1167 389 q 1149 362 1158 376 q 1131 336 1142 350 q 1111 308 1121 322 q 1015 225 1069 254 q 897 183 960 195 l 863 100 q 848 72 856 85 q 827 48 840 59 q 795 26 814 36 q 747 8 776 16 q 717 -1 728 2 q 697 -5 705 -3 q 683 -7 689 -6 q 672 -7 677 -7 q 654 6 654 -7 q 657 21 654 11 q 668 49 660 31 q 690 94 676 67 q 724 162 703 122 l 765 242 q 693 287 726 260 q 630 342 660 314 q 570 394 599 369 q 507 434 540 419 q 363 266 440 357 q 195 66 285 176 q 159 26 180 47 q 113 -12 138 6 q 61 -42 88 -31 q 9 -54 35 -54 q -49 -32 -28 -54 q -69 27 -70 -10 q -48 112 -67 65 q 7 209 -28 160 q 90 304 42 258 q 193 387 137 351 q 311 445 249 423 q 438 467 373 467 q 471 466 455 467 q 502 461 487 464 q 701 678 615 588 q 853 827 788 767 q 966 922 919 888 q 1049 974 1013 956 q 1110 996 1084 992 q 1159 1001 1136 1001 m 1102 940 q 1099 951 1102 947 q 1090 954 1095 954 q 1065 950 1081 954 q 1022 930 1049 946 q 952 882 994 914 q 851 795 911 851 q 712 657 792 740 q 527 456 632 574 q 608 423 572 444 q 675 377 644 402 q 733 326 706 352 q 784 280 759 301 q 893 493 846 400 q 976 655 941 585 q 1036 774 1012 725 q 1075 857 1060 824 q 1096 910 1090 890 q 1102 940 1102 929 m 181 85 q 343 278 267 190 q 485 442 418 367 q 462 448 474 446 q 438 449 450 449 q 317 427 376 449 q 203 369 257 405 q 105 288 150 333 q 26 197 59 243 q -25 106 -7 150 q -44 30 -44 63 q -31 -15 -44 1 q 12 -30 -19 -30 q 57 -19 33 -30 q 102 8 80 -8 q 144 45 124 25 q 181 85 165 66 m 1055 1262 q 1069 1227 1058 1249 q 1100 1181 1080 1206 q 1150 1130 1120 1156 q 1220 1081 1180 1103 l 1215 1065 q 1180 1075 1201 1069 q 1134 1086 1158 1080 q 1085 1102 1110 1093 q 1041 1122 1060 1110 q 1009 1149 1022 1134 q 997 1184 997 1164 q 1006 1219 997 1204 q 1026 1243 1015 1233 q 1055 1262 1038 1254 z "},"":{"ha":1100,"x_min":-70,"x_max":1346,"o":"m 1159 1001 q 1194 989 1183 1001 q 1205 958 1205 977 q 1192 902 1205 943 q 1156 803 1178 862 q 1103 673 1133 745 q 1041 522 1074 600 q 974 364 1008 444 q 909 210 940 284 q 1013 251 964 221 q 1100 329 1063 281 q 1117 352 1108 340 q 1134 374 1126 364 q 1151 399 1143 387 l 1167 389 q 1149 362 1158 376 q 1131 336 1142 350 q 1111 308 1121 322 q 1015 225 1069 254 q 897 183 960 195 l 863 100 q 848 72 856 85 q 827 48 840 59 q 795 26 814 36 q 747 8 776 16 q 717 -1 728 2 q 697 -5 705 -3 q 683 -7 689 -6 q 672 -7 677 -7 q 654 6 654 -7 q 657 21 654 11 q 668 49 660 31 q 690 94 676 67 q 724 162 703 122 l 765 242 q 693 287 726 260 q 630 342 660 314 q 570 394 599 369 q 507 434 540 419 q 363 266 440 357 q 195 66 285 176 q 159 26 180 47 q 113 -12 138 6 q 61 -42 88 -31 q 9 -54 35 -54 q -49 -32 -28 -54 q -69 27 -70 -10 q -48 112 -67 65 q 7 209 -28 160 q 90 304 42 258 q 193 387 137 351 q 311 445 249 423 q 438 467 373 467 q 471 466 455 467 q 502 461 487 464 q 701 678 615 588 q 853 827 788 767 q 966 922 919 888 q 1049 974 1013 956 q 1110 996 1084 992 q 1159 1001 1136 1001 m 1102 940 q 1099 951 1102 947 q 1090 954 1095 954 q 1065 950 1081 954 q 1022 930 1049 946 q 952 882 994 914 q 851 795 911 851 q 712 657 792 740 q 527 456 632 574 q 608 423 572 444 q 675 377 644 402 q 733 326 706 352 q 784 280 759 301 q 893 493 846 400 q 976 655 941 585 q 1036 774 1012 725 q 1075 857 1060 824 q 1096 910 1090 890 q 1102 940 1102 929 m 181 85 q 343 278 267 190 q 485 442 418 367 q 462 448 474 446 q 438 449 450 449 q 317 427 376 449 q 203 369 257 405 q 105 288 150 333 q 26 197 59 243 q -25 106 -7 150 q -44 30 -44 63 q -31 -15 -44 1 q 12 -30 -19 -30 q 57 -19 33 -30 q 102 8 80 -8 q 144 45 124 25 q 181 85 165 66 m 1297 1248 q 1322 1227 1310 1238 q 1338 1205 1331 1217 q 1346 1181 1346 1193 q 1328 1144 1346 1160 q 1284 1116 1311 1128 q 1225 1094 1258 1103 q 1164 1080 1193 1085 q 1111 1071 1134 1074 q 1081 1068 1089 1068 l 1077 1081 q 1157 1120 1122 1099 q 1217 1164 1191 1142 q 1263 1207 1244 1185 q 1297 1248 1283 1228 z "},"":{"ha":1100,"x_min":-70,"x_max":1332,"o":"m 1159 1001 q 1194 989 1183 1001 q 1205 958 1205 977 q 1192 902 1205 943 q 1156 803 1178 862 q 1103 673 1133 745 q 1041 522 1074 600 q 974 364 1008 444 q 909 210 940 284 q 1013 251 964 221 q 1100 329 1063 281 q 1117 352 1108 340 q 1134 374 1126 364 q 1151 399 1143 387 l 1167 389 q 1149 362 1158 376 q 1131 336 1142 350 q 1111 308 1121 322 q 1015 225 1069 254 q 897 183 960 195 l 863 100 q 848 72 856 85 q 827 48 840 59 q 795 26 814 36 q 747 8 776 16 q 717 -1 728 2 q 697 -5 705 -3 q 683 -7 689 -6 q 672 -7 677 -7 q 654 6 654 -7 q 657 21 654 11 q 668 49 660 31 q 690 94 676 67 q 724 162 703 122 l 765 242 q 693 287 726 260 q 630 342 660 314 q 570 394 599 369 q 507 434 540 419 q 363 266 440 357 q 195 66 285 176 q 159 26 180 47 q 113 -12 138 6 q 61 -42 88 -31 q 9 -54 35 -54 q -49 -32 -28 -54 q -69 27 -70 -10 q -48 112 -67 65 q 7 209 -28 160 q 90 304 42 258 q 193 387 137 351 q 311 445 249 423 q 438 467 373 467 q 471 466 455 467 q 502 461 487 464 q 701 678 615 588 q 853 827 788 767 q 966 922 919 888 q 1049 974 1013 956 q 1110 996 1084 992 q 1159 1001 1136 1001 m 1102 940 q 1099 951 1102 947 q 1090 954 1095 954 q 1065 950 1081 954 q 1022 930 1049 946 q 952 882 994 914 q 851 795 911 851 q 712 657 792 740 q 527 456 632 574 q 608 423 572 444 q 675 377 644 402 q 733 326 706 352 q 784 280 759 301 q 893 493 846 400 q 976 655 941 585 q 1036 774 1012 725 q 1075 857 1060 824 q 1096 910 1090 890 q 1102 940 1102 929 m 181 85 q 343 278 267 190 q 485 442 418 367 q 462 448 474 446 q 438 449 450 449 q 317 427 376 449 q 203 369 257 405 q 105 288 150 333 q 26 197 59 243 q -25 106 -7 150 q -44 30 -44 63 q -31 -15 -44 1 q 12 -30 -19 -30 q 57 -19 33 -30 q 102 8 80 -8 q 144 45 124 25 q 181 85 165 66 m 1290 1056 q 1284 1091 1290 1072 q 1269 1126 1278 1109 q 1248 1159 1260 1144 q 1226 1185 1237 1174 q 1157 1144 1185 1165 q 1109 1106 1128 1124 q 1077 1070 1090 1087 q 1057 1040 1065 1053 q 1037 1049 1045 1042 q 1023 1065 1029 1055 q 1017 1091 1017 1075 q 1028 1119 1017 1105 q 1059 1146 1040 1133 q 1102 1171 1078 1159 q 1150 1192 1126 1183 q 1197 1208 1174 1201 q 1235 1217 1219 1215 q 1263 1197 1247 1212 q 1295 1164 1280 1182 q 1321 1126 1310 1145 q 1332 1092 1332 1107 q 1320 1065 1332 1074 q 1290 1056 1308 1056 z "},"":{"ha":1100,"x_min":-70,"x_max":1438,"o":"m 1159 1001 q 1194 989 1183 1001 q 1205 958 1205 977 q 1192 902 1205 943 q 1156 803 1178 862 q 1103 673 1133 745 q 1041 522 1074 600 q 974 364 1008 444 q 909 210 940 284 q 1013 251 964 221 q 1100 329 1063 281 q 1117 352 1108 340 q 1134 374 1126 364 q 1151 399 1143 387 l 1167 389 q 1149 362 1158 376 q 1131 336 1142 350 q 1111 308 1121 322 q 1015 225 1069 254 q 897 183 960 195 l 863 100 q 848 72 856 85 q 827 48 840 59 q 795 26 814 36 q 747 8 776 16 q 717 -1 728 2 q 697 -5 705 -3 q 683 -7 689 -6 q 672 -7 677 -7 q 654 6 654 -7 q 657 21 654 11 q 668 49 660 31 q 690 94 676 67 q 724 162 703 122 l 765 242 q 693 287 726 260 q 630 342 660 314 q 570 394 599 369 q 507 434 540 419 q 363 266 440 357 q 195 66 285 176 q 159 26 180 47 q 113 -12 138 6 q 61 -42 88 -31 q 9 -54 35 -54 q -49 -32 -28 -54 q -69 27 -70 -10 q -48 112 -67 65 q 7 209 -28 160 q 90 304 42 258 q 193 387 137 351 q 311 445 249 423 q 438 467 373 467 q 471 466 455 467 q 502 461 487 464 q 701 678 615 588 q 853 827 788 767 q 966 922 919 888 q 1049 974 1013 956 q 1110 996 1084 992 q 1159 1001 1136 1001 m 1102 940 q 1099 951 1102 947 q 1090 954 1095 954 q 1065 950 1081 954 q 1022 930 1049 946 q 952 882 994 914 q 851 795 911 851 q 712 657 792 740 q 527 456 632 574 q 608 423 572 444 q 675 377 644 402 q 733 326 706 352 q 784 280 759 301 q 893 493 846 400 q 976 655 941 585 q 1036 774 1012 725 q 1075 857 1060 824 q 1096 910 1090 890 q 1102 940 1102 929 m 181 85 q 343 278 267 190 q 485 442 418 367 q 462 448 474 446 q 438 449 450 449 q 317 427 376 449 q 203 369 257 405 q 105 288 150 333 q 26 197 59 243 q -25 106 -7 150 q -44 30 -44 63 q -31 -15 -44 1 q 12 -30 -19 -30 q 57 -19 33 -30 q 102 8 80 -8 q 144 45 124 25 q 181 85 165 66 m 1438 1206 q 1399 1156 1417 1178 q 1363 1120 1381 1135 q 1323 1098 1344 1106 q 1277 1090 1302 1090 q 1233 1100 1253 1090 q 1195 1122 1213 1110 q 1159 1143 1176 1133 q 1124 1153 1142 1153 q 1101 1150 1114 1153 q 1073 1139 1089 1147 q 1039 1113 1058 1130 q 997 1066 1020 1095 l 983 1076 q 1033 1136 1011 1111 q 1078 1176 1056 1160 q 1125 1199 1100 1192 q 1181 1206 1149 1206 q 1226 1198 1208 1206 q 1260 1182 1244 1190 q 1289 1165 1275 1173 q 1319 1158 1302 1158 q 1343 1159 1332 1158 q 1367 1166 1355 1160 q 1394 1183 1380 1172 q 1426 1213 1408 1194 l 1438 1206 z "},"":{"ha":1100,"x_min":-70,"x_max":1403,"o":"m 1159 1001 q 1194 989 1183 1001 q 1205 958 1205 977 q 1192 902 1205 943 q 1156 803 1178 862 q 1103 673 1133 745 q 1041 522 1074 600 q 974 364 1008 444 q 909 210 940 284 q 1013 251 964 221 q 1100 329 1063 281 q 1117 352 1108 340 q 1134 374 1126 364 q 1151 399 1143 387 l 1167 389 q 1149 362 1158 376 q 1131 336 1142 350 q 1111 308 1121 322 q 1015 225 1069 254 q 897 183 960 195 l 863 100 q 848 72 856 85 q 827 48 840 59 q 795 26 814 36 q 747 8 776 16 q 717 -1 728 2 q 697 -5 705 -3 q 683 -7 689 -6 q 672 -7 677 -7 q 654 6 654 -7 q 657 21 654 11 q 668 49 660 31 q 690 94 676 67 q 724 162 703 122 l 765 242 q 693 287 726 260 q 630 342 660 314 q 570 394 599 369 q 507 434 540 419 q 363 266 440 357 q 195 66 285 176 q 159 26 180 47 q 113 -12 138 6 q 61 -42 88 -31 q 9 -54 35 -54 q -49 -32 -28 -54 q -69 27 -70 -10 q -48 112 -67 65 q 7 209 -28 160 q 90 304 42 258 q 193 387 137 351 q 311 445 249 423 q 438 467 373 467 q 471 466 455 467 q 502 461 487 464 q 701 678 615 588 q 853 827 788 767 q 966 922 919 888 q 1049 974 1013 956 q 1110 996 1084 992 q 1159 1001 1136 1001 m 1102 940 q 1099 951 1102 947 q 1090 954 1095 954 q 1065 950 1081 954 q 1022 930 1049 946 q 952 882 994 914 q 851 795 911 851 q 712 657 792 740 q 527 456 632 574 q 608 423 572 444 q 675 377 644 402 q 733 326 706 352 q 784 280 759 301 q 893 493 846 400 q 976 655 941 585 q 1036 774 1012 725 q 1075 857 1060 824 q 1096 910 1090 890 q 1102 940 1102 929 m 181 85 q 343 278 267 190 q 485 442 418 367 q 462 448 474 446 q 438 449 450 449 q 317 427 376 449 q 203 369 257 405 q 105 288 150 333 q 26 197 59 243 q -25 106 -7 150 q -44 30 -44 63 q -31 -15 -44 1 q 12 -30 -19 -30 q 57 -19 33 -30 q 102 8 80 -8 q 144 45 124 25 q 181 85 165 66 m 1271 1113 q 1277 1134 1271 1119 q 1298 1163 1284 1148 q 1332 1188 1311 1177 q 1379 1199 1352 1199 q 1396 1197 1389 1199 q 1403 1178 1403 1194 q 1397 1149 1403 1165 q 1378 1118 1390 1133 q 1346 1095 1365 1104 q 1302 1085 1327 1085 q 1280 1092 1288 1085 q 1271 1113 1271 1099 m 1046 1087 q 1051 1110 1046 1094 q 1069 1142 1057 1126 q 1101 1172 1081 1159 q 1147 1184 1120 1184 q 1166 1177 1157 1184 q 1175 1153 1175 1169 q 1168 1126 1175 1140 q 1147 1099 1160 1111 q 1114 1079 1133 1087 q 1069 1071 1094 1071 q 1053 1074 1060 1071 q 1046 1087 1046 1077 z "},"":{"ha":1100,"x_min":-70,"x_max":1335,"o":"m 1159 1001 q 1194 989 1183 1001 q 1205 958 1205 977 q 1192 902 1205 943 q 1156 803 1178 862 q 1103 673 1133 745 q 1041 522 1074 600 q 974 364 1008 444 q 909 210 940 284 q 1013 251 964 221 q 1100 329 1063 281 q 1117 352 1108 340 q 1134 374 1126 364 q 1151 399 1143 387 l 1167 389 q 1149 362 1158 376 q 1131 336 1142 350 q 1111 308 1121 322 q 1015 225 1069 254 q 897 183 960 195 l 863 100 q 848 72 856 85 q 827 48 840 59 q 795 26 814 36 q 747 8 776 16 q 717 -1 728 2 q 697 -5 705 -3 q 683 -7 689 -6 q 672 -7 677 -7 q 654 6 654 -7 q 657 21 654 11 q 668 49 660 31 q 690 94 676 67 q 724 162 703 122 l 765 242 q 693 287 726 260 q 630 342 660 314 q 570 394 599 369 q 507 434 540 419 q 363 266 440 357 q 195 66 285 176 q 159 26 180 47 q 113 -12 138 6 q 61 -42 88 -31 q 9 -54 35 -54 q -49 -32 -28 -54 q -69 27 -70 -10 q -48 112 -67 65 q 7 209 -28 160 q 90 304 42 258 q 193 387 137 351 q 311 445 249 423 q 438 467 373 467 q 471 466 455 467 q 502 461 487 464 q 701 678 615 588 q 853 827 788 767 q 966 922 919 888 q 1049 974 1013 956 q 1110 996 1084 992 q 1159 1001 1136 1001 m 1102 940 q 1099 951 1102 947 q 1090 954 1095 954 q 1065 950 1081 954 q 1022 930 1049 946 q 952 882 994 914 q 851 795 911 851 q 712 657 792 740 q 527 456 632 574 q 608 423 572 444 q 675 377 644 402 q 733 326 706 352 q 784 280 759 301 q 893 493 846 400 q 976 655 941 585 q 1036 774 1012 725 q 1075 857 1060 824 q 1096 910 1090 890 q 1102 940 1102 929 m 181 85 q 343 278 267 190 q 485 442 418 367 q 462 448 474 446 q 438 449 450 449 q 317 427 376 449 q 203 369 257 405 q 105 288 150 333 q 26 197 59 243 q -25 106 -7 150 q -44 30 -44 63 q -31 -15 -44 1 q 12 -30 -19 -30 q 57 -19 33 -30 q 102 8 80 -8 q 144 45 124 25 q 181 85 165 66 m 1103 1103 q 1114 1143 1103 1124 q 1143 1177 1124 1162 q 1188 1201 1163 1192 q 1244 1210 1214 1210 q 1288 1205 1270 1210 q 1315 1190 1305 1199 q 1330 1168 1326 1181 q 1335 1142 1335 1156 q 1325 1103 1335 1122 q 1296 1068 1315 1083 q 1251 1044 1278 1053 q 1193 1035 1225 1035 q 1150 1040 1167 1035 q 1122 1055 1133 1046 q 1107 1077 1112 1065 q 1103 1103 1103 1089 m 1166 1103 q 1177 1077 1166 1089 q 1210 1065 1188 1065 q 1245 1070 1228 1065 q 1277 1086 1263 1076 q 1301 1111 1292 1096 q 1310 1144 1310 1126 q 1297 1176 1310 1163 q 1252 1189 1284 1189 q 1218 1182 1234 1189 q 1191 1163 1203 1175 q 1173 1136 1180 1151 q 1166 1103 1166 1120 z "},"":{"ha":1457,"x_min":-1,"x_max":1710,"o":"m 1468 308 q 1384 194 1428 251 q 1285 93 1339 138 q 1168 21 1232 49 q 1026 -7 1103 -7 q 839 41 901 -7 q 778 179 778 88 q 792 269 778 222 q 714 291 751 278 q 643 317 677 303 q 576 344 608 331 q 512 364 544 356 q 394 225 455 298 q 265 69 333 151 q 228 28 249 50 q 182 -11 207 7 q 131 -42 158 -30 q 78 -54 104 -54 q 20 -32 41 -54 q 1 27 -1 -10 q 17 107 1 65 q 61 189 33 149 q 129 266 89 229 q 218 331 169 303 q 324 375 267 359 q 447 392 382 392 q 508 390 478 392 q 743 650 638 540 q 937 838 848 760 q 1104 965 1026 916 q 1258 1042 1182 1015 q 1413 1080 1334 1070 q 1582 1090 1491 1090 q 1639 1083 1615 1090 q 1679 1061 1663 1075 q 1703 1028 1695 1047 q 1710 987 1710 1009 q 1702 936 1710 963 q 1680 889 1694 910 q 1644 853 1665 867 q 1599 839 1624 839 q 1568 849 1580 839 q 1556 874 1556 860 q 1563 897 1556 885 q 1584 915 1570 909 q 1591 909 1588 912 q 1610 904 1598 904 q 1641 910 1626 904 q 1667 927 1656 916 q 1685 953 1678 938 q 1692 987 1692 968 q 1581 1073 1692 1073 q 1463 1049 1517 1073 q 1372 988 1410 1025 q 1312 904 1333 950 q 1291 815 1291 858 q 1299 755 1291 781 q 1374 770 1336 765 q 1450 776 1411 776 q 1510 761 1488 776 q 1533 719 1533 745 q 1525 690 1533 705 q 1499 665 1517 676 q 1451 647 1481 653 q 1379 640 1422 640 q 1291 652 1330 640 q 1223 686 1251 665 q 1108 591 1160 647 q 1017 472 1056 535 q 958 342 979 408 q 937 215 937 276 q 948 141 937 174 q 978 85 958 108 q 1024 50 997 62 q 1084 38 1051 38 q 1196 64 1144 38 q 1294 133 1248 91 q 1380 227 1340 175 q 1457 329 1421 279 q 1474 352 1465 340 q 1490 375 1483 365 q 1508 399 1499 388 l 1524 389 q 1506 362 1515 375 q 1488 336 1498 350 q 1468 308 1478 322 m 532 387 q 618 372 580 382 q 690 351 657 363 q 750 328 722 340 q 806 308 778 317 q 865 421 828 363 q 953 533 903 479 q 1064 634 1003 588 q 1194 715 1125 681 q 1165 799 1165 753 q 1182 875 1165 837 q 1232 948 1200 913 q 1310 1012 1265 983 q 1410 1061 1355 1042 q 1283 1030 1344 1051 q 1157 973 1221 1009 q 1026 886 1094 938 q 883 763 959 834 q 721 598 808 691 q 532 387 634 505 m 446 372 q 330 356 385 372 q 228 313 274 340 q 144 250 181 285 q 80 176 106 215 q 40 100 53 138 q 26 30 26 63 q 38 -15 26 1 q 81 -30 51 -30 q 126 -19 103 -30 q 172 8 149 -8 q 214 45 194 25 q 250 85 234 66 q 375 235 315 165 q 489 368 434 305 q 446 372 468 372 m 1428 667 q 1463 671 1447 667 q 1489 683 1478 676 q 1505 700 1499 690 q 1511 719 1511 710 q 1496 746 1511 735 q 1449 756 1481 756 q 1378 749 1413 756 q 1310 730 1344 742 q 1358 682 1328 698 q 1428 667 1389 667 z "},"":{"ha":669,"x_min":-40,"x_max":951,"o":"m 681 308 q 563 165 621 224 q 445 67 505 105 q 322 11 385 28 q 190 -7 259 -7 q 30 40 88 -7 q -28 178 -28 87 q -5 314 -28 241 q 59 463 18 387 q 158 615 101 539 q 281 761 215 691 q 421 891 347 831 q 570 996 494 951 q 720 1066 645 1040 q 863 1091 794 1091 q 928 1071 906 1091 q 951 1014 951 1051 q 945 970 951 994 q 928 921 940 946 q 899 872 917 896 q 859 831 882 849 q 808 801 837 813 q 747 790 780 790 q 704 802 722 790 q 687 840 687 814 q 698 881 687 861 q 730 912 709 901 q 740 901 734 906 q 754 895 746 898 q 772 892 762 892 q 841 901 811 892 q 890 927 870 910 q 920 966 910 944 q 930 1014 930 988 q 912 1057 930 1043 q 861 1071 894 1071 q 752 1047 810 1071 q 633 981 694 1023 q 513 882 573 939 q 399 760 453 826 q 298 623 344 694 q 216 480 251 551 q 162 341 182 409 q 142 215 142 273 q 151 142 142 175 q 176 86 159 110 q 220 50 193 63 q 284 38 247 38 q 359 52 317 38 q 450 98 401 66 q 550 183 498 131 q 656 310 603 235 l 669 329 q 684 350 676 338 q 701 373 693 362 q 715 391 709 383 q 721 399 721 399 l 736 389 q 718 362 727 375 q 700 336 710 350 q 681 308 690 322 m 90 -70 q 85 -57 85 -65 q 89 -43 84 -49 q 103 -32 93 -36 q 131 -27 113 -27 q 164 -31 147 -27 q 194 -43 181 -34 q 216 -68 208 -52 q 224 -108 224 -83 q 215 -147 224 -125 q 184 -189 205 -169 q 130 -223 163 -209 q 49 -236 97 -236 q 8 -232 24 -236 q -19 -219 -9 -227 q -35 -202 -30 -212 q -40 -182 -40 -192 q -26 -150 -40 -164 q 15 -136 -12 -136 q 34 -165 19 -155 q 69 -179 49 -176 q 110 -179 89 -183 q 150 -166 132 -176 q 181 -142 169 -156 q 192 -108 192 -127 q 184 -80 192 -91 q 161 -64 175 -69 q 128 -60 147 -59 q 90 -70 110 -62 z "},"":{"ha":640,"x_min":-39,"x_max":866,"o":"m 651 308 q 567 194 612 251 q 469 93 522 138 q 351 21 415 49 q 209 -7 287 -7 q 23 41 84 -7 q -39 179 -39 88 q -26 258 -39 217 q 10 343 -14 300 q 67 428 33 385 q 143 509 101 470 q 237 580 186 547 q 344 638 288 613 q 320 716 320 673 q 335 784 320 749 q 376 851 349 819 q 441 912 403 883 q 525 961 479 940 q 625 995 572 983 q 738 1007 679 1007 q 794 999 770 1007 q 835 978 819 992 q 858 945 851 964 q 866 903 866 926 q 858 853 866 879 q 835 805 850 827 q 800 769 820 783 q 754 756 779 756 q 724 766 735 756 q 712 790 712 776 q 719 814 712 802 q 740 831 726 826 q 747 826 743 828 q 766 821 753 821 q 796 827 781 821 q 822 843 811 833 q 840 869 833 854 q 847 903 847 885 q 737 990 847 990 q 619 966 672 990 q 527 904 565 942 q 468 821 489 867 q 447 732 447 775 q 454 674 447 701 q 528 688 490 683 q 606 693 566 693 q 666 677 643 693 q 688 636 688 662 q 680 607 688 622 q 654 581 672 592 q 607 563 636 570 q 535 556 578 556 q 443 570 483 556 q 374 606 403 583 q 270 525 317 572 q 190 425 223 478 q 138 318 156 372 q 120 215 120 263 q 131 141 120 174 q 161 85 142 108 q 208 50 181 62 q 267 38 235 38 q 379 64 327 38 q 477 133 431 91 q 564 227 523 175 q 640 329 604 279 q 657 352 648 340 q 674 375 666 365 q 692 399 683 388 l 707 389 q 689 362 698 375 q 671 336 681 350 q 651 308 661 322 m 694 1267 q 708 1233 697 1254 q 740 1186 719 1211 q 790 1135 760 1161 q 860 1087 819 1109 l 854 1070 q 819 1080 840 1075 q 774 1092 798 1085 q 725 1107 749 1099 q 681 1128 700 1116 q 649 1155 661 1140 q 636 1190 636 1169 q 645 1224 636 1210 q 665 1249 654 1239 q 694 1267 678 1260 m 584 583 q 618 588 603 583 q 644 600 633 592 q 661 617 655 607 q 667 636 667 626 q 651 663 667 652 q 604 673 636 673 q 532 667 567 673 q 465 649 498 660 q 513 599 482 615 q 584 583 544 583 z "},"":{"ha":640,"x_min":-39,"x_max":928,"o":"m 651 308 q 567 194 612 251 q 469 93 522 138 q 351 21 415 49 q 209 -7 287 -7 q 23 41 84 -7 q -39 179 -39 88 q -26 258 -39 217 q 10 343 -14 300 q 67 428 33 385 q 143 509 101 470 q 237 580 186 547 q 344 638 288 613 q 320 716 320 673 q 335 784 320 749 q 376 851 349 819 q 441 912 403 883 q 525 961 479 940 q 625 995 572 983 q 738 1007 679 1007 q 794 999 770 1007 q 835 978 819 992 q 858 945 851 964 q 866 903 866 926 q 858 853 866 879 q 835 805 850 827 q 800 769 820 783 q 754 756 779 756 q 724 766 735 756 q 712 790 712 776 q 719 814 712 802 q 740 831 726 826 q 747 826 743 828 q 766 821 753 821 q 796 827 781 821 q 822 843 811 833 q 840 869 833 854 q 847 903 847 885 q 737 990 847 990 q 619 966 672 990 q 527 904 565 942 q 468 821 489 867 q 447 732 447 775 q 454 674 447 701 q 528 688 490 683 q 606 693 566 693 q 666 677 643 693 q 688 636 688 662 q 680 607 688 622 q 654 581 672 592 q 607 563 636 570 q 535 556 578 556 q 443 570 483 556 q 374 606 403 583 q 270 525 317 572 q 190 425 223 478 q 138 318 156 372 q 120 215 120 263 q 131 141 120 174 q 161 85 142 108 q 208 50 181 62 q 267 38 235 38 q 379 64 327 38 q 477 133 431 91 q 564 227 523 175 q 640 329 604 279 q 657 352 648 340 q 674 375 666 365 q 692 399 683 388 l 707 389 q 689 362 698 375 q 671 336 681 350 q 651 308 661 322 m 880 1249 q 904 1228 893 1239 q 921 1206 913 1218 q 928 1181 928 1194 q 911 1145 928 1161 q 867 1117 894 1129 q 808 1095 840 1104 q 746 1080 776 1086 q 694 1072 717 1074 q 663 1069 672 1069 l 660 1082 q 739 1121 705 1100 q 800 1164 774 1142 q 846 1208 826 1186 q 880 1249 865 1229 m 584 583 q 618 588 603 583 q 644 600 633 592 q 661 617 655 607 q 667 636 667 626 q 651 663 667 652 q 604 673 636 673 q 532 667 567 673 q 465 649 498 660 q 513 599 482 615 q 584 583 544 583 z "},"":{"ha":640,"x_min":-39,"x_max":931,"o":"m 651 308 q 567 194 612 251 q 469 93 522 138 q 351 21 415 49 q 209 -7 287 -7 q 23 41 84 -7 q -39 179 -39 88 q -26 258 -39 217 q 10 343 -14 300 q 67 428 33 385 q 143 509 101 470 q 237 580 186 547 q 344 638 288 613 q 320 716 320 673 q 335 784 320 749 q 376 851 349 819 q 441 912 403 883 q 525 961 479 940 q 625 995 572 983 q 738 1007 679 1007 q 794 999 770 1007 q 835 978 819 992 q 858 945 851 964 q 866 903 866 926 q 858 853 866 879 q 835 805 850 827 q 800 769 820 783 q 754 756 779 756 q 724 766 735 756 q 712 790 712 776 q 719 814 712 802 q 740 831 726 826 q 747 826 743 828 q 766 821 753 821 q 796 827 781 821 q 822 843 811 833 q 840 869 833 854 q 847 903 847 885 q 737 990 847 990 q 619 966 672 990 q 527 904 565 942 q 468 821 489 867 q 447 732 447 775 q 454 674 447 701 q 528 688 490 683 q 606 693 566 693 q 666 677 643 693 q 688 636 688 662 q 680 607 688 622 q 654 581 672 592 q 607 563 636 570 q 535 556 578 556 q 443 570 483 556 q 374 606 403 583 q 270 525 317 572 q 190 425 223 478 q 138 318 156 372 q 120 215 120 263 q 131 141 120 174 q 161 85 142 108 q 208 50 181 62 q 267 38 235 38 q 379 64 327 38 q 477 133 431 91 q 564 227 523 175 q 640 329 604 279 q 657 352 648 340 q 674 375 666 365 q 692 399 683 388 l 707 389 q 689 362 698 375 q 671 336 681 350 q 651 308 661 322 m 889 1063 q 883 1097 889 1079 q 866 1130 876 1114 q 844 1160 856 1146 q 822 1185 833 1174 q 756 1146 781 1165 q 714 1111 730 1128 q 688 1080 697 1095 q 671 1051 679 1065 q 651 1061 659 1054 q 637 1077 643 1067 q 631 1103 631 1087 q 641 1130 631 1117 q 668 1155 651 1142 q 707 1177 685 1167 q 751 1195 728 1187 q 794 1209 773 1203 q 831 1217 815 1215 q 860 1198 842 1212 q 893 1167 877 1184 q 919 1132 908 1150 q 931 1099 931 1114 q 918 1072 931 1081 q 889 1063 906 1063 m 584 583 q 618 588 603 583 q 644 600 633 592 q 661 617 655 607 q 667 636 667 626 q 651 663 667 652 q 604 673 636 673 q 532 667 567 673 q 465 649 498 660 q 513 599 482 615 q 584 583 544 583 z "},"":{"ha":640,"x_min":-39,"x_max":984,"o":"m 651 308 q 567 194 612 251 q 469 93 522 138 q 351 21 415 49 q 209 -7 287 -7 q 23 41 84 -7 q -39 179 -39 88 q -26 258 -39 217 q 10 343 -14 300 q 67 428 33 385 q 143 509 101 470 q 237 580 186 547 q 344 638 288 613 q 320 716 320 673 q 335 784 320 749 q 376 851 349 819 q 441 912 403 883 q 525 961 479 940 q 625 995 572 983 q 738 1007 679 1007 q 794 999 770 1007 q 835 978 819 992 q 858 945 851 964 q 866 903 866 926 q 858 853 866 879 q 835 805 850 827 q 800 769 820 783 q 754 756 779 756 q 724 766 735 756 q 712 790 712 776 q 719 814 712 802 q 740 831 726 826 q 747 826 743 828 q 766 821 753 821 q 796 827 781 821 q 822 843 811 833 q 840 869 833 854 q 847 903 847 885 q 737 990 847 990 q 619 966 672 990 q 527 904 565 942 q 468 821 489 867 q 447 732 447 775 q 454 674 447 701 q 528 688 490 683 q 606 693 566 693 q 666 677 643 693 q 688 636 688 662 q 680 607 688 622 q 654 581 672 592 q 607 563 636 570 q 535 556 578 556 q 443 570 483 556 q 374 606 403 583 q 270 525 317 572 q 190 425 223 478 q 138 318 156 372 q 120 215 120 263 q 131 141 120 174 q 161 85 142 108 q 208 50 181 62 q 267 38 235 38 q 379 64 327 38 q 477 133 431 91 q 564 227 523 175 q 640 329 604 279 q 657 352 648 340 q 674 375 666 365 q 692 399 683 388 l 707 389 q 689 362 698 375 q 671 336 681 350 q 651 308 661 322 m 584 583 q 618 588 603 583 q 644 600 633 592 q 661 617 655 607 q 667 636 667 626 q 651 663 667 652 q 604 673 636 673 q 532 667 567 673 q 465 649 498 660 q 513 599 482 615 q 584 583 544 583 m 852 1113 q 859 1134 852 1119 q 879 1163 865 1148 q 913 1188 892 1177 q 960 1199 933 1199 q 977 1197 970 1199 q 984 1178 984 1194 q 978 1149 984 1165 q 959 1118 972 1133 q 927 1095 947 1104 q 883 1085 908 1085 q 861 1092 869 1085 q 852 1113 852 1099 m 627 1087 q 633 1110 627 1094 q 650 1142 638 1126 q 682 1172 663 1159 q 728 1184 701 1184 q 747 1177 738 1184 q 756 1153 756 1169 q 749 1126 756 1140 q 728 1099 742 1111 q 695 1079 715 1087 q 650 1071 675 1071 q 634 1074 641 1071 q 627 1087 627 1077 z "},"":{"ha":751,"x_min":-7,"x_max":1215,"o":"m 763 308 q 713 243 739 276 q 650 182 686 210 q 564 131 613 153 q 444 98 514 109 q 286 -6 369 28 q 113 -40 203 -40 q 20 -27 48 -40 q -7 15 -7 -14 q 7 45 -7 28 q 56 75 20 61 q 154 98 92 88 q 313 107 216 107 l 319 107 q 332 125 326 116 q 346 146 339 135 l 726 749 q 798 844 758 801 q 598 825 684 843 q 453 774 511 807 q 366 694 395 741 q 337 588 337 647 q 342 551 337 567 q 360 526 348 535 q 343 499 354 507 q 314 492 333 492 q 274 511 290 492 q 259 563 259 531 q 294 681 259 626 q 399 776 329 735 q 573 841 469 817 q 817 865 678 865 q 973 973 889 937 q 1141 1010 1057 1010 q 1197 993 1180 1010 q 1215 955 1215 977 q 1190 906 1215 926 q 1127 872 1166 885 q 1038 853 1088 859 q 936 846 988 847 q 924 828 930 837 q 913 809 918 819 l 583 275 q 467 122 529 185 q 574 158 530 135 q 651 209 619 181 q 707 269 683 238 q 751 329 730 300 q 768 352 759 340 q 785 375 777 365 q 803 399 794 388 l 818 389 q 800 362 809 375 q 782 336 792 350 q 763 308 772 322 m 19 15 q 37 -11 19 -2 q 86 -19 55 -19 q 138 -16 112 -19 q 192 0 165 -12 q 248 32 219 11 q 304 88 276 53 q 159 80 215 88 q 72 61 103 72 q 30 37 41 49 q 19 15 19 24 m 1196 955 q 1183 981 1196 971 q 1145 990 1171 990 q 1092 981 1118 990 q 1041 955 1065 972 q 993 915 1016 938 q 950 865 971 892 q 1036 872 992 866 q 1115 888 1080 877 q 1173 915 1151 899 q 1196 955 1196 931 m 927 1261 q 941 1226 930 1248 q 972 1180 952 1205 q 1022 1129 992 1155 q 1092 1081 1052 1103 l 1087 1064 q 1052 1074 1073 1069 q 1006 1086 1031 1079 q 957 1101 982 1092 q 913 1122 933 1110 q 881 1148 894 1133 q 869 1183 869 1163 q 878 1218 869 1203 q 898 1242 887 1233 q 927 1261 910 1253 z "},"":{"ha":751,"x_min":-7,"x_max":1236,"o":"m 763 308 q 713 243 739 276 q 650 182 686 210 q 564 131 613 153 q 444 98 514 109 q 286 -6 369 28 q 113 -40 203 -40 q 20 -27 48 -40 q -7 15 -7 -14 q 7 45 -7 28 q 56 75 20 61 q 154 98 92 88 q 313 107 216 107 l 319 107 q 332 125 326 116 q 346 146 339 135 l 726 749 q 798 844 758 801 q 598 825 684 843 q 453 774 511 807 q 366 694 395 741 q 337 588 337 647 q 342 551 337 567 q 360 526 348 535 q 343 499 354 507 q 314 492 333 492 q 274 511 290 492 q 259 563 259 531 q 294 681 259 626 q 399 776 329 735 q 573 841 469 817 q 817 865 678 865 q 973 973 889 937 q 1141 1010 1057 1010 q 1197 993 1180 1010 q 1215 955 1215 977 q 1190 906 1215 926 q 1127 872 1166 885 q 1038 853 1088 859 q 936 846 988 847 q 924 828 930 837 q 913 809 918 819 l 583 275 q 467 122 529 185 q 574 158 530 135 q 651 209 619 181 q 707 269 683 238 q 751 329 730 300 q 768 352 759 340 q 785 375 777 365 q 803 399 794 388 l 818 389 q 800 362 809 375 q 782 336 792 350 q 763 308 772 322 m 19 15 q 37 -11 19 -2 q 86 -19 55 -19 q 138 -16 112 -19 q 192 0 165 -12 q 248 32 219 11 q 304 88 276 53 q 159 80 215 88 q 72 61 103 72 q 30 37 41 49 q 19 15 19 24 m 1196 955 q 1183 981 1196 971 q 1145 990 1171 990 q 1092 981 1118 990 q 1041 955 1065 972 q 993 915 1016 938 q 950 865 971 892 q 1036 872 992 866 q 1115 888 1080 877 q 1173 915 1151 899 q 1196 955 1196 931 m 1188 1249 q 1212 1228 1201 1239 q 1228 1206 1221 1218 q 1236 1181 1236 1194 q 1219 1145 1236 1161 q 1175 1117 1201 1129 q 1116 1095 1148 1104 q 1054 1080 1083 1086 q 1002 1072 1024 1074 q 971 1069 979 1069 l 967 1082 q 1047 1121 1013 1100 q 1108 1164 1081 1142 q 1153 1208 1134 1186 q 1188 1249 1173 1229 z "},"":{"ha":751,"x_min":-7,"x_max":1235,"o":"m 763 308 q 713 243 739 276 q 650 182 686 210 q 564 131 613 153 q 444 98 514 109 q 286 -6 369 28 q 113 -40 203 -40 q 20 -27 48 -40 q -7 15 -7 -14 q 7 45 -7 28 q 56 75 20 61 q 154 98 92 88 q 313 107 216 107 l 319 107 q 332 125 326 116 q 346 146 339 135 l 726 749 q 798 844 758 801 q 598 825 684 843 q 453 774 511 807 q 366 694 395 741 q 337 588 337 647 q 342 551 337 567 q 360 526 348 535 q 343 499 354 507 q 314 492 333 492 q 274 511 290 492 q 259 563 259 531 q 294 681 259 626 q 399 776 329 735 q 573 841 469 817 q 817 865 678 865 q 973 973 889 937 q 1141 1010 1057 1010 q 1197 993 1180 1010 q 1215 955 1215 977 q 1190 906 1215 926 q 1127 872 1166 885 q 1038 853 1088 859 q 936 846 988 847 q 924 828 930 837 q 913 809 918 819 l 583 275 q 467 122 529 185 q 574 158 530 135 q 651 209 619 181 q 707 269 683 238 q 751 329 730 300 q 768 352 759 340 q 785 375 777 365 q 803 399 794 388 l 818 389 q 800 362 809 375 q 782 336 792 350 q 763 308 772 322 m 19 15 q 37 -11 19 -2 q 86 -19 55 -19 q 138 -16 112 -19 q 192 0 165 -12 q 248 32 219 11 q 304 88 276 53 q 159 80 215 88 q 72 61 103 72 q 30 37 41 49 q 19 15 19 24 m 1194 1063 q 1188 1097 1194 1079 q 1171 1130 1181 1114 q 1149 1160 1161 1146 q 1127 1185 1138 1174 q 1060 1146 1086 1165 q 1018 1111 1035 1128 q 993 1080 1002 1095 q 976 1051 984 1065 q 956 1061 964 1054 q 942 1077 948 1067 q 935 1103 935 1087 q 946 1130 935 1117 q 973 1155 956 1142 q 1012 1177 990 1167 q 1056 1195 1033 1187 q 1099 1209 1078 1203 q 1135 1217 1119 1215 q 1165 1198 1147 1212 q 1198 1167 1182 1184 q 1224 1132 1213 1150 q 1235 1099 1235 1114 q 1223 1072 1235 1081 q 1194 1063 1211 1063 m 1196 955 q 1183 981 1196 971 q 1145 990 1171 990 q 1092 981 1118 990 q 1041 955 1065 972 q 993 915 1016 938 q 950 865 971 892 q 1036 872 992 866 q 1115 888 1080 877 q 1173 915 1151 899 q 1196 955 1196 931 z "},"":{"ha":751,"x_min":-7,"x_max":1276,"o":"m 763 308 q 713 243 739 276 q 650 182 686 210 q 564 131 613 153 q 444 98 514 109 q 286 -6 369 28 q 113 -40 203 -40 q 20 -27 48 -40 q -7 15 -7 -14 q 7 45 -7 28 q 56 75 20 61 q 154 98 92 88 q 313 107 216 107 l 319 107 q 332 125 326 116 q 346 146 339 135 l 726 749 q 798 844 758 801 q 598 825 684 843 q 453 774 511 807 q 366 694 395 741 q 337 588 337 647 q 342 551 337 567 q 360 526 348 535 q 343 499 354 507 q 314 492 333 492 q 274 511 290 492 q 259 563 259 531 q 294 681 259 626 q 399 776 329 735 q 573 841 469 817 q 817 865 678 865 q 973 973 889 937 q 1141 1010 1057 1010 q 1197 993 1180 1010 q 1215 955 1215 977 q 1190 906 1215 926 q 1127 872 1166 885 q 1038 853 1088 859 q 936 846 988 847 q 924 828 930 837 q 913 809 918 819 l 583 275 q 467 122 529 185 q 574 158 530 135 q 651 209 619 181 q 707 269 683 238 q 751 329 730 300 q 768 352 759 340 q 785 375 777 365 q 803 399 794 388 l 818 389 q 800 362 809 375 q 782 336 792 350 q 763 308 772 322 m 19 15 q 37 -11 19 -2 q 86 -19 55 -19 q 138 -16 112 -19 q 192 0 165 -12 q 248 32 219 11 q 304 88 276 53 q 159 80 215 88 q 72 61 103 72 q 30 37 41 49 q 19 15 19 24 m 1196 955 q 1183 981 1196 971 q 1145 990 1171 990 q 1092 981 1118 990 q 1041 955 1065 972 q 993 915 1016 938 q 950 865 971 892 q 1036 872 992 866 q 1115 888 1080 877 q 1173 915 1151 899 q 1196 955 1196 931 m 1144 1113 q 1151 1134 1144 1119 q 1171 1163 1158 1148 q 1205 1188 1185 1177 q 1253 1199 1226 1199 q 1269 1197 1263 1199 q 1276 1178 1276 1194 q 1270 1149 1276 1165 q 1251 1118 1264 1133 q 1220 1095 1239 1104 q 1176 1085 1201 1085 q 1153 1092 1162 1085 q 1144 1113 1144 1099 m 919 1087 q 925 1110 919 1094 q 943 1142 931 1126 q 974 1172 955 1159 q 1021 1184 994 1184 q 1040 1177 1031 1184 q 1049 1153 1049 1169 q 1041 1126 1049 1140 q 1020 1099 1034 1111 q 987 1079 1007 1087 q 942 1071 967 1071 q 926 1074 933 1071 q 919 1087 919 1077 z "},"":{"ha":1319,"x_min":0,"x_max":1408,"o":"m 1318 291 q 1247 211 1289 250 q 1145 141 1204 172 q 1009 91 1087 110 q 831 72 931 72 q 805 72 819 72 q 775 73 791 72 q 607 12 689 33 q 453 -9 525 -9 q 415 -6 433 -9 q 383 3 397 -3 q 362 20 369 9 q 354 47 354 31 q 361 68 354 57 q 385 88 367 78 q 435 102 403 97 q 517 108 467 108 q 555 107 533 108 q 603 105 577 106 q 658 101 629 103 q 714 97 686 99 q 848 189 781 135 q 977 305 915 242 q 1091 438 1038 368 q 1184 582 1144 508 q 1245 728 1223 655 q 1268 872 1268 802 q 1251 966 1268 925 q 1206 1035 1235 1007 q 1137 1077 1176 1063 q 1051 1091 1097 1091 q 892 1062 976 1091 q 722 983 808 1033 q 549 865 635 933 q 386 719 464 797 q 241 557 308 641 q 125 390 174 472 q 48 229 76 307 q 20 85 20 151 q 35 32 20 49 q 69 15 49 15 q 109 20 88 15 q 154 43 130 26 q 207 92 178 60 q 269 179 235 125 q 341 289 297 224 q 438 434 384 354 l 283 434 l 283 458 l 455 458 q 616 696 531 569 q 785 951 701 823 q 805 972 792 963 q 835 986 817 981 q 859 991 844 988 q 889 995 874 993 q 917 998 904 997 q 934 999 930 999 q 947 997 942 999 q 951 986 951 994 q 949 977 951 983 q 942 967 946 972 l 607 458 l 865 458 l 865 434 l 591 434 l 435 197 q 348 95 392 135 q 259 32 304 55 q 169 1 215 10 q 78 -7 124 -7 q 49 -2 63 -7 q 24 13 35 2 q 7 39 13 23 q 0 79 0 56 q 27 223 0 144 q 103 386 55 301 q 219 558 152 471 q 366 725 286 644 q 533 876 445 806 q 713 1000 622 947 q 896 1082 805 1052 q 1073 1113 988 1113 q 1323 1044 1238 1113 q 1408 835 1408 975 q 1385 688 1408 761 q 1321 544 1362 614 q 1223 408 1280 474 q 1101 284 1167 342 q 961 177 1035 226 q 813 91 888 128 l 832 91 q 1005 110 929 91 q 1137 160 1080 129 q 1235 230 1194 190 q 1305 309 1276 269 l 1319 329 q 1336 352 1327 340 q 1353 375 1345 365 q 1371 399 1362 388 l 1386 389 q 1368 362 1377 375 q 1350 336 1360 350 q 1331 308 1340 322 l 1318 291 m 517 88 q 443 84 471 88 q 400 74 415 81 q 381 60 385 68 q 376 45 376 53 q 397 18 376 26 q 453 9 418 9 q 563 27 504 9 q 683 78 621 45 q 589 85 634 82 q 517 88 544 88 z "},"":{"ha":1331,"x_min":-139,"x_max":2271,"o":"m 2122 1126 q 1999 1106 2065 1126 q 1860 1050 1933 1086 q 1710 966 1787 1015 q 1556 859 1633 917 q 1402 737 1478 801 q 1254 606 1326 672 q 1229 465 1247 538 q 1182 324 1210 392 q 1117 196 1154 256 q 1036 91 1081 135 q 942 19 992 46 q 835 -7 891 -7 q 792 6 808 -7 q 776 45 776 19 q 802 120 776 72 q 875 231 828 168 q 986 366 922 293 q 1127 516 1050 439 q 1135 587 1132 551 q 1138 658 1138 623 q 1125 823 1138 752 q 1085 945 1113 894 q 907 713 1001 829 q 715 490 813 597 q 518 290 617 383 q 324 128 419 197 q 142 20 229 60 q -17 -19 56 -19 q -73 -12 -50 -19 q -110 7 -96 -5 q -132 36 -125 19 q -139 74 -139 53 q -134 99 -139 87 q -122 122 -130 112 q -102 138 -113 132 q -78 144 -91 144 q -55 136 -66 144 q -41 121 -44 129 q -67 74 -67 105 q -63 53 -67 63 q -50 37 -59 44 q -25 26 -40 30 q 14 22 -9 22 q 161 60 80 22 q 332 163 242 97 q 517 319 422 229 q 709 515 613 410 q 897 735 805 619 q 1073 967 990 850 q 955 1064 1029 1034 q 768 1094 881 1094 q 642 1081 702 1094 q 531 1042 582 1067 q 438 983 479 1017 q 367 908 397 949 q 322 823 338 868 q 306 732 306 778 q 313 677 306 703 q 336 631 320 651 q 376 601 351 612 q 435 590 401 590 q 496 613 478 590 q 523 596 515 607 q 531 567 531 585 q 511 527 531 542 q 460 512 491 512 q 389 527 422 512 q 333 571 357 543 q 297 638 310 599 q 283 724 283 677 q 300 825 283 776 q 349 917 317 874 q 424 997 380 960 q 523 1059 469 1033 q 642 1099 578 1085 q 776 1114 706 1114 q 904 1106 842 1114 q 1019 1078 966 1098 q 1117 1027 1073 1059 q 1193 949 1161 996 q 1242 838 1224 902 q 1259 690 1259 774 q 1257 640 1259 666 q 1407 771 1329 707 q 1563 892 1484 835 q 1719 998 1641 949 q 1871 1081 1797 1046 q 2013 1136 1945 1116 q 2140 1156 2081 1156 q 2193 1151 2169 1156 q 2234 1136 2217 1147 q 2261 1110 2251 1126 q 2271 1070 2271 1094 q 2255 1022 2271 1039 q 2214 1005 2238 1005 q 2191 1012 2202 1005 q 2177 1028 2181 1019 q 2201 1077 2201 1047 q 2182 1113 2201 1099 q 2122 1126 2163 1126 m 835 14 q 927 52 883 14 q 1010 154 972 90 q 1077 302 1049 218 q 1122 477 1106 385 q 992 338 1051 405 q 891 213 933 270 q 825 113 849 156 q 801 44 801 69 q 811 20 801 27 q 835 14 820 14 m 1808 1206 q 1770 1156 1788 1178 q 1733 1120 1752 1135 q 1694 1098 1715 1106 q 1648 1090 1673 1090 q 1604 1100 1624 1090 q 1566 1122 1584 1110 q 1530 1143 1547 1133 q 1495 1153 1513 1153 q 1472 1150 1485 1153 q 1444 1139 1460 1147 q 1410 1113 1428 1130 q 1368 1066 1391 1095 l 1354 1076 q 1404 1136 1382 1111 q 1449 1176 1426 1160 q 1495 1199 1471 1192 q 1551 1206 1520 1206 q 1597 1198 1578 1206 q 1631 1182 1615 1190 q 1659 1165 1646 1173 q 1690 1158 1673 1158 q 1714 1159 1703 1158 q 1738 1166 1726 1160 q 1765 1183 1751 1172 q 1797 1213 1779 1194 l 1808 1206 z "},"":{"ha":803,"x_min":-26,"x_max":904,"o":"m 465 927 q 412 836 446 886 q 339 729 378 787 q 258 606 299 671 q 184 470 217 541 q 131 321 151 399 q 110 162 110 244 q 116 102 110 129 q 135 55 122 74 q 168 23 148 35 q 215 12 188 12 q 299 38 253 12 q 396 110 346 65 q 498 216 446 155 q 597 345 549 276 q 688 487 645 414 q 761 630 730 560 q 810 765 792 701 q 828 878 828 828 q 805 958 828 931 q 731 985 781 985 q 657 969 696 985 q 579 928 617 954 q 506 865 541 901 q 443 786 470 828 q 401 697 417 744 q 385 604 385 651 q 392 544 385 567 q 411 507 399 521 q 439 489 423 494 q 470 483 454 483 q 491 485 478 483 q 510 497 503 487 q 527 479 518 490 q 537 450 537 467 q 524 420 537 433 q 482 407 511 407 q 430 423 453 407 q 393 466 408 440 q 370 526 378 492 q 362 593 362 559 q 379 697 362 646 q 425 794 397 748 q 492 879 454 840 q 573 946 531 918 q 658 990 615 974 q 741 1006 701 1006 q 814 990 783 1006 q 865 944 844 973 q 894 875 885 915 q 904 789 904 835 q 891 663 904 729 q 853 530 878 597 q 791 397 828 463 q 709 272 755 331 q 606 161 663 212 q 486 73 550 110 q 349 14 422 35 q 199 -7 277 -7 q 106 6 147 -7 q 35 45 64 19 q -10 111 6 72 q -26 205 -26 151 q 2 340 -26 272 q 77 472 31 407 q 178 600 122 538 q 287 720 233 663 q 385 832 340 778 q 455 932 431 885 l 465 927 m 737 1275 q 751 1240 740 1262 q 782 1194 762 1219 q 832 1143 802 1169 q 902 1094 862 1117 l 897 1078 q 861 1088 883 1083 q 816 1100 840 1093 q 767 1115 792 1106 q 723 1135 742 1124 q 691 1162 703 1147 q 678 1197 678 1177 q 688 1232 678 1217 q 708 1256 697 1247 q 737 1275 720 1267 z "},"":{"ha":803,"x_min":-26,"x_max":956,"o":"m 465 927 q 412 836 446 886 q 339 729 378 787 q 258 606 299 671 q 184 470 217 541 q 131 321 151 399 q 110 162 110 244 q 116 102 110 129 q 135 55 122 74 q 168 23 148 35 q 215 12 188 12 q 299 38 253 12 q 396 110 346 65 q 498 216 446 155 q 597 345 549 276 q 688 487 645 414 q 761 630 730 560 q 810 765 792 701 q 828 878 828 828 q 805 958 828 931 q 731 985 781 985 q 657 969 696 985 q 579 928 617 954 q 506 865 541 901 q 443 786 470 828 q 401 697 417 744 q 385 604 385 651 q 392 544 385 567 q 411 507 399 521 q 439 489 423 494 q 470 483 454 483 q 491 485 478 483 q 510 497 503 487 q 527 479 518 490 q 537 450 537 467 q 524 420 537 433 q 482 407 511 407 q 430 423 453 407 q 393 466 408 440 q 370 526 378 492 q 362 593 362 559 q 379 697 362 646 q 425 794 397 748 q 492 879 454 840 q 573 946 531 918 q 658 990 615 974 q 741 1006 701 1006 q 814 990 783 1006 q 865 944 844 973 q 894 875 885 915 q 904 789 904 835 q 891 663 904 729 q 853 530 878 597 q 791 397 828 463 q 709 272 755 331 q 606 161 663 212 q 486 73 550 110 q 349 14 422 35 q 199 -7 277 -7 q 106 6 147 -7 q 35 45 64 19 q -10 111 6 72 q -26 205 -26 151 q 2 340 -26 272 q 77 472 31 407 q 178 600 122 538 q 287 720 233 663 q 385 832 340 778 q 455 932 431 885 l 465 927 m 907 1253 q 931 1233 920 1244 q 948 1211 940 1223 q 956 1186 956 1199 q 938 1150 956 1166 q 894 1122 921 1134 q 835 1100 867 1109 q 773 1085 803 1091 q 721 1076 744 1079 q 690 1074 699 1074 l 687 1087 q 766 1126 732 1105 q 827 1169 801 1147 q 873 1213 853 1191 q 907 1253 892 1234 z "},"":{"ha":803,"x_min":-26,"x_max":913,"o":"m 465 927 q 412 836 446 886 q 339 729 378 787 q 258 606 299 671 q 184 470 217 541 q 131 321 151 399 q 110 162 110 244 q 116 102 110 129 q 135 55 122 74 q 168 23 148 35 q 215 12 188 12 q 299 38 253 12 q 396 110 346 65 q 498 216 446 155 q 597 345 549 276 q 688 487 645 414 q 761 630 730 560 q 810 765 792 701 q 828 878 828 828 q 805 958 828 931 q 731 985 781 985 q 657 969 696 985 q 579 928 617 954 q 506 865 541 901 q 443 786 470 828 q 401 697 417 744 q 385 604 385 651 q 392 544 385 567 q 411 507 399 521 q 439 489 423 494 q 470 483 454 483 q 491 485 478 483 q 510 497 503 487 q 527 479 518 490 q 537 450 537 467 q 524 420 537 433 q 482 407 511 407 q 430 423 453 407 q 393 466 408 440 q 370 526 378 492 q 362 593 362 559 q 379 697 362 646 q 425 794 397 748 q 492 879 454 840 q 573 946 531 918 q 658 990 615 974 q 741 1006 701 1006 q 814 990 783 1006 q 865 944 844 973 q 894 875 885 915 q 904 789 904 835 q 891 663 904 729 q 853 530 878 597 q 791 397 828 463 q 709 272 755 331 q 606 161 663 212 q 486 73 550 110 q 349 14 422 35 q 199 -7 277 -7 q 106 6 147 -7 q 35 45 64 19 q -10 111 6 72 q -26 205 -26 151 q 2 340 -26 272 q 77 472 31 407 q 178 600 122 538 q 287 720 233 663 q 385 832 340 778 q 455 932 431 885 l 465 927 m 872 1063 q 865 1097 872 1079 q 849 1130 859 1114 q 827 1160 839 1146 q 805 1185 815 1174 q 738 1146 764 1165 q 696 1111 713 1128 q 671 1080 680 1095 q 653 1051 662 1065 q 633 1061 642 1054 q 619 1077 626 1067 q 613 1103 613 1087 q 624 1130 613 1117 q 651 1155 634 1142 q 690 1177 668 1167 q 733 1195 711 1187 q 776 1209 756 1203 q 813 1217 797 1215 q 842 1198 825 1212 q 875 1167 860 1184 q 902 1132 891 1150 q 913 1099 913 1114 q 901 1072 913 1081 q 872 1063 889 1063 z "},"":{"ha":803,"x_min":-26,"x_max":1040,"o":"m 465 927 q 412 836 446 886 q 339 729 378 787 q 258 606 299 671 q 184 470 217 541 q 131 321 151 399 q 110 162 110 244 q 116 102 110 129 q 135 55 122 74 q 168 23 148 35 q 215 12 188 12 q 299 38 253 12 q 396 110 346 65 q 498 216 446 155 q 597 345 549 276 q 688 487 645 414 q 761 630 730 560 q 810 765 792 701 q 828 878 828 828 q 805 958 828 931 q 731 985 781 985 q 657 969 696 985 q 579 928 617 954 q 506 865 541 901 q 443 786 470 828 q 401 697 417 744 q 385 604 385 651 q 392 544 385 567 q 411 507 399 521 q 439 489 423 494 q 470 483 454 483 q 491 485 478 483 q 510 497 503 487 q 527 479 518 490 q 537 450 537 467 q 524 420 537 433 q 482 407 511 407 q 430 423 453 407 q 393 466 408 440 q 370 526 378 492 q 362 593 362 559 q 379 697 362 646 q 425 794 397 748 q 492 879 454 840 q 573 946 531 918 q 658 990 615 974 q 741 1006 701 1006 q 814 990 783 1006 q 865 944 844 973 q 894 875 885 915 q 904 789 904 835 q 891 663 904 729 q 853 530 878 597 q 791 397 828 463 q 709 272 755 331 q 606 161 663 212 q 486 73 550 110 q 349 14 422 35 q 199 -7 277 -7 q 106 6 147 -7 q 35 45 64 19 q -10 111 6 72 q -26 205 -26 151 q 2 340 -26 272 q 77 472 31 407 q 178 600 122 538 q 287 720 233 663 q 385 832 340 778 q 455 932 431 885 l 465 927 m 1040 1206 q 1001 1156 1019 1178 q 965 1120 983 1135 q 925 1098 946 1106 q 879 1090 904 1090 q 835 1100 856 1090 q 797 1122 815 1110 q 761 1143 778 1133 q 726 1153 744 1153 q 703 1150 716 1153 q 675 1139 691 1147 q 641 1113 660 1130 q 599 1066 622 1095 l 585 1076 q 635 1136 613 1111 q 680 1176 658 1160 q 727 1199 702 1192 q 783 1206 751 1206 q 828 1198 810 1206 q 862 1182 847 1190 q 891 1165 877 1173 q 922 1158 904 1158 q 945 1159 934 1158 q 969 1166 957 1160 q 996 1183 982 1172 q 1028 1213 1010 1194 l 1040 1206 z "},"":{"ha":803,"x_min":-26,"x_max":984,"o":"m 465 927 q 412 836 446 886 q 339 729 378 787 q 258 606 299 671 q 184 470 217 541 q 131 321 151 399 q 110 162 110 244 q 116 102 110 129 q 135 55 122 74 q 168 23 148 35 q 215 12 188 12 q 299 38 253 12 q 396 110 346 65 q 498 216 446 155 q 597 345 549 276 q 688 487 645 414 q 761 630 730 560 q 810 765 792 701 q 828 878 828 828 q 805 958 828 931 q 731 985 781 985 q 657 969 696 985 q 579 928 617 954 q 506 865 541 901 q 443 786 470 828 q 401 697 417 744 q 385 604 385 651 q 392 544 385 567 q 411 507 399 521 q 439 489 423 494 q 470 483 454 483 q 491 485 478 483 q 510 497 503 487 q 527 479 518 490 q 537 450 537 467 q 524 420 537 433 q 482 407 511 407 q 430 423 453 407 q 393 466 408 440 q 370 526 378 492 q 362 593 362 559 q 379 697 362 646 q 425 794 397 748 q 492 879 454 840 q 573 946 531 918 q 658 990 615 974 q 741 1006 701 1006 q 814 990 783 1006 q 865 944 844 973 q 894 875 885 915 q 904 789 904 835 q 891 663 904 729 q 853 530 878 597 q 791 397 828 463 q 709 272 755 331 q 606 161 663 212 q 486 73 550 110 q 349 14 422 35 q 199 -7 277 -7 q 106 6 147 -7 q 35 45 64 19 q -10 111 6 72 q -26 205 -26 151 q 2 340 -26 272 q 77 472 31 407 q 178 600 122 538 q 287 720 233 663 q 385 832 340 778 q 455 932 431 885 l 465 927 m 852 1113 q 859 1134 852 1119 q 879 1163 865 1148 q 913 1188 892 1177 q 960 1199 933 1199 q 977 1197 970 1199 q 984 1178 984 1194 q 978 1149 984 1165 q 959 1118 972 1133 q 927 1095 947 1104 q 883 1085 908 1085 q 861 1092 869 1085 q 852 1113 852 1099 m 627 1087 q 633 1110 627 1094 q 650 1142 638 1126 q 682 1172 663 1159 q 728 1184 701 1184 q 747 1177 738 1184 q 756 1153 756 1169 q 749 1126 756 1140 q 728 1099 742 1111 q 695 1079 715 1087 q 650 1071 675 1071 q 634 1074 641 1071 q 627 1087 627 1077 z "},"":{"ha":555,"x_min":104,"x_max":451,"o":"m 290 347 l 422 188 l 404 169 l 272 329 l 122 183 l 104 201 l 256 349 l 139 490 l 157 508 l 274 367 l 433 522 l 451 503 l 290 347 z "},"":{"ha":810,"x_min":-19,"x_max":968,"o":"m 841 1165 l 862 1152 l 826 1090 q 889 1068 863 1086 q 934 1021 916 1049 q 960 955 951 992 q 968 874 968 917 q 952 744 968 814 q 908 601 937 674 q 838 454 879 527 q 744 313 796 381 q 631 187 692 245 q 502 85 570 128 q 359 18 433 42 q 206 -7 284 -7 l 203 -7 l 135 -128 l 111 -115 l 174 -6 q 93 10 128 -3 q 32 48 57 23 q -6 112 7 74 q -19 205 -19 151 q 0 327 -19 266 q 50 448 19 388 q 123 564 82 507 q 209 675 165 622 q 298 778 253 729 q 382 870 343 827 q 450 949 421 913 q 494 1013 480 985 l 505 1007 q 452 920 488 970 q 374 808 417 870 q 285 674 331 747 q 202 519 239 601 q 141 348 165 438 q 117 161 117 258 q 120 115 117 138 q 132 73 124 92 q 154 39 140 53 q 187 17 167 24 l 787 1069 q 714 1052 752 1068 q 638 1009 675 1036 q 566 946 600 982 q 505 869 531 910 q 464 781 479 827 q 449 690 449 735 l 426 690 q 445 790 428 740 q 492 884 463 840 q 558 966 521 928 q 636 1031 595 1003 q 719 1074 677 1058 q 799 1092 761 1090 l 841 1165 m 222 12 q 309 41 260 12 q 412 122 358 71 q 523 240 466 172 q 633 384 579 308 q 733 541 686 460 q 816 698 781 622 q 872 843 851 775 q 892 964 892 912 q 873 1036 892 1010 q 815 1069 854 1063 l 214 12 l 222 12 z "},"":{"ha":903,"x_min":-47,"x_max":1213,"o":"m 766 98 q 731 54 749 74 q 693 21 713 35 q 649 0 673 8 q 596 -7 625 -7 q 525 11 548 -7 q 502 64 502 28 q 502 85 502 74 q 506 110 502 95 q 517 147 509 125 q 543 203 526 169 q 587 284 560 237 q 656 398 615 332 q 753 551 697 465 q 885 751 810 638 l 881 756 q 687 533 774 631 q 531 358 601 435 q 406 224 461 281 q 307 127 351 167 q 226 61 263 87 q 157 20 190 35 q 93 0 124 6 q 28 -6 62 -6 q -25 15 -3 -6 q -47 72 -47 35 q -25 165 -47 112 q 32 277 -3 217 q 112 402 67 338 q 204 531 157 467 q 296 656 251 595 q 376 768 341 717 q 433 860 411 820 q 454 923 454 900 q 431 974 454 960 q 365 987 408 987 q 291 977 328 987 q 220 949 254 967 q 156 907 185 931 q 104 856 126 883 q 69 800 82 829 q 57 743 57 772 q 61 702 57 719 q 73 674 65 685 q 89 656 80 663 q 108 647 99 650 q 95 604 108 621 q 57 588 82 588 q 34 591 45 588 q 13 603 22 594 q -2 627 3 612 q -8 665 -8 642 q 7 750 -8 708 q 51 832 23 792 q 119 906 80 872 q 206 965 158 940 q 306 1004 253 990 q 417 1019 360 1019 q 536 990 499 1019 q 572 916 572 962 q 552 849 572 890 q 498 757 531 808 q 421 647 464 706 q 333 528 378 589 q 245 407 288 467 q 168 293 202 347 q 114 192 135 238 q 94 114 94 147 q 96 98 94 106 q 104 83 99 90 q 117 72 109 76 q 136 68 125 68 q 158 68 147 68 q 186 75 169 69 q 227 98 203 82 q 286 144 251 113 q 371 223 322 175 q 487 343 420 272 q 641 514 554 415 q 838 743 727 613 q 876 788 858 766 q 913 833 894 810 q 952 883 931 857 q 996 940 972 909 q 1031 985 1016 967 q 1060 1016 1047 1003 q 1086 1035 1073 1028 q 1115 1047 1099 1042 q 1147 1056 1133 1053 q 1169 1060 1160 1059 q 1185 1062 1178 1062 q 1197 1062 1192 1062 q 1213 1049 1213 1062 q 1210 1036 1213 1044 q 1198 1012 1207 1028 q 1170 968 1188 996 q 1123 893 1153 940 q 1067 808 1101 860 q 993 694 1033 756 q 908 563 952 631 q 819 427 863 494 q 736 299 776 360 q 665 190 696 238 q 628 121 639 149 q 617 76 617 93 q 627 49 617 57 q 656 41 638 41 q 680 45 669 41 q 704 60 692 50 q 730 87 716 71 q 760 127 743 103 l 903 329 q 919 352 910 340 q 936 375 928 365 q 954 399 945 388 l 969 389 q 951 362 960 375 q 934 336 944 350 q 914 308 924 322 l 766 98 m 797 1265 q 810 1231 799 1252 q 842 1184 822 1209 q 892 1133 862 1159 q 962 1085 922 1107 l 956 1068 q 921 1078 942 1073 q 876 1090 900 1083 q 827 1105 851 1097 q 783 1126 802 1114 q 751 1152 763 1138 q 738 1188 738 1167 q 747 1222 738 1208 q 767 1247 756 1237 q 797 1265 780 1258 z "},"":{"ha":903,"x_min":-47,"x_max":1213,"o":"m 766 98 q 731 54 749 74 q 693 21 713 35 q 649 0 673 8 q 596 -7 625 -7 q 525 11 548 -7 q 502 64 502 28 q 502 85 502 74 q 506 110 502 95 q 517 147 509 125 q 543 203 526 169 q 587 284 560 237 q 656 398 615 332 q 753 551 697 465 q 885 751 810 638 l 881 756 q 687 533 774 631 q 531 358 601 435 q 406 224 461 281 q 307 127 351 167 q 226 61 263 87 q 157 20 190 35 q 93 0 124 6 q 28 -6 62 -6 q -25 15 -3 -6 q -47 72 -47 35 q -25 165 -47 112 q 32 277 -3 217 q 112 402 67 338 q 204 531 157 467 q 296 656 251 595 q 376 768 341 717 q 433 860 411 820 q 454 923 454 900 q 431 974 454 960 q 365 987 408 987 q 291 977 328 987 q 220 949 254 967 q 156 907 185 931 q 104 856 126 883 q 69 800 82 829 q 57 743 57 772 q 61 702 57 719 q 73 674 65 685 q 89 656 80 663 q 108 647 99 650 q 95 604 108 621 q 57 588 82 588 q 34 591 45 588 q 13 603 22 594 q -2 627 3 612 q -8 665 -8 642 q 7 750 -8 708 q 51 832 23 792 q 119 906 80 872 q 206 965 158 940 q 306 1004 253 990 q 417 1019 360 1019 q 536 990 499 1019 q 572 916 572 962 q 552 849 572 890 q 498 757 531 808 q 421 647 464 706 q 333 528 378 589 q 245 407 288 467 q 168 293 202 347 q 114 192 135 238 q 94 114 94 147 q 96 98 94 106 q 104 83 99 90 q 117 72 109 76 q 136 68 125 68 q 158 68 147 68 q 186 75 169 69 q 227 98 203 82 q 286 144 251 113 q 371 223 322 175 q 487 343 420 272 q 641 514 554 415 q 838 743 727 613 q 876 788 858 766 q 913 833 894 810 q 952 883 931 857 q 996 940 972 909 q 1031 985 1016 967 q 1060 1016 1047 1003 q 1086 1035 1073 1028 q 1115 1047 1099 1042 q 1147 1056 1133 1053 q 1169 1060 1160 1059 q 1185 1062 1178 1062 q 1197 1062 1192 1062 q 1213 1049 1213 1062 q 1210 1036 1213 1044 q 1198 1012 1207 1028 q 1170 968 1188 996 q 1123 893 1153 940 q 1067 808 1101 860 q 993 694 1033 756 q 908 563 952 631 q 819 427 863 494 q 736 299 776 360 q 665 190 696 238 q 628 121 639 149 q 617 76 617 93 q 627 49 617 57 q 656 41 638 41 q 680 45 669 41 q 704 60 692 50 q 730 87 716 71 q 760 127 743 103 l 903 329 q 919 352 910 340 q 936 375 928 365 q 954 399 945 388 l 969 389 q 951 362 960 375 q 934 336 944 350 q 914 308 924 322 l 766 98 m 990 1251 q 1014 1231 1003 1242 q 1031 1209 1023 1221 q 1038 1184 1038 1197 q 1021 1148 1038 1164 q 977 1119 1003 1132 q 918 1098 950 1107 q 856 1083 885 1089 q 804 1074 826 1077 q 773 1072 781 1072 l 769 1085 q 849 1124 815 1103 q 910 1167 883 1145 q 956 1210 936 1189 q 990 1251 975 1232 z "},"":{"ha":903,"x_min":-47,"x_max":1213,"o":"m 962 1063 q 956 1097 962 1079 q 939 1130 949 1114 q 917 1160 929 1146 q 895 1185 906 1174 q 828 1146 854 1165 q 786 1111 803 1128 q 761 1080 770 1095 q 744 1051 752 1065 q 724 1061 732 1054 q 710 1077 716 1067 q 703 1103 703 1087 q 714 1130 703 1117 q 741 1155 724 1142 q 780 1177 758 1167 q 824 1195 801 1187 q 867 1209 846 1203 q 903 1217 888 1215 q 933 1198 915 1212 q 966 1167 950 1184 q 992 1132 981 1150 q 1003 1099 1003 1114 q 991 1072 1003 1081 q 962 1063 979 1063 m 766 98 q 731 54 749 74 q 693 21 713 35 q 649 0 673 8 q 596 -7 625 -7 q 525 11 548 -7 q 502 64 502 28 q 502 85 502 74 q 506 110 502 95 q 517 147 509 125 q 543 203 526 169 q 587 284 560 237 q 656 398 615 332 q 753 551 697 465 q 885 751 810 638 l 881 756 q 687 533 774 631 q 531 358 601 435 q 406 224 461 281 q 307 127 351 167 q 226 61 263 87 q 157 20 190 35 q 93 0 124 6 q 28 -6 62 -6 q -25 15 -3 -6 q -47 72 -47 35 q -25 165 -47 112 q 32 277 -3 217 q 112 402 67 338 q 204 531 157 467 q 296 656 251 595 q 376 768 341 717 q 433 860 411 820 q 454 923 454 900 q 431 974 454 960 q 365 987 408 987 q 291 977 328 987 q 220 949 254 967 q 156 907 185 931 q 104 856 126 883 q 69 800 82 829 q 57 743 57 772 q 61 702 57 719 q 73 674 65 685 q 89 656 80 663 q 108 647 99 650 q 95 604 108 621 q 57 588 82 588 q 34 591 45 588 q 13 603 22 594 q -2 627 3 612 q -8 665 -8 642 q 7 750 -8 708 q 51 832 23 792 q 119 906 80 872 q 206 965 158 940 q 306 1004 253 990 q 417 1019 360 1019 q 536 990 499 1019 q 572 916 572 962 q 552 849 572 890 q 498 757 531 808 q 421 647 464 706 q 333 528 378 589 q 245 407 288 467 q 168 293 202 347 q 114 192 135 238 q 94 114 94 147 q 96 98 94 106 q 104 83 99 90 q 117 72 109 76 q 136 68 125 68 q 158 68 147 68 q 186 75 169 69 q 227 98 203 82 q 286 144 251 113 q 371 223 322 175 q 487 343 420 272 q 641 514 554 415 q 838 743 727 613 q 876 788 858 766 q 913 833 894 810 q 952 883 931 857 q 996 940 972 909 q 1031 985 1016 967 q 1060 1016 1047 1003 q 1086 1035 1073 1028 q 1115 1047 1099 1042 q 1147 1056 1133 1053 q 1169 1060 1160 1059 q 1185 1062 1178 1062 q 1197 1062 1192 1062 q 1213 1049 1213 1062 q 1210 1036 1213 1044 q 1198 1012 1207 1028 q 1170 968 1188 996 q 1123 893 1153 940 q 1067 808 1101 860 q 993 694 1033 756 q 908 563 952 631 q 819 427 863 494 q 736 299 776 360 q 665 190 696 238 q 628 121 639 149 q 617 76 617 93 q 627 49 617 57 q 656 41 638 41 q 680 45 669 41 q 704 60 692 50 q 730 87 716 71 q 760 127 743 103 l 903 329 q 919 352 910 340 q 936 375 928 365 q 954 399 945 388 l 969 389 q 951 362 960 375 q 934 336 944 350 q 914 308 924 322 l 766 98 z "},"":{"ha":903,"x_min":-47,"x_max":1213,"o":"m 697 1087 q 702 1110 697 1094 q 720 1142 708 1126 q 751 1172 732 1159 q 798 1184 771 1184 q 817 1177 808 1184 q 826 1153 826 1169 q 818 1126 826 1140 q 798 1099 811 1111 q 764 1079 784 1087 q 719 1071 744 1071 q 703 1074 710 1071 q 697 1087 697 1077 m 922 1113 q 928 1134 922 1119 q 948 1163 935 1148 q 982 1188 962 1177 q 1030 1199 1003 1199 q 1047 1197 1040 1199 q 1053 1178 1053 1194 q 1047 1149 1053 1165 q 1028 1118 1041 1133 q 997 1095 1016 1104 q 953 1085 978 1085 q 930 1092 939 1085 q 922 1113 922 1099 m 766 98 q 731 54 749 74 q 693 21 713 35 q 649 0 673 8 q 596 -7 625 -7 q 525 11 548 -7 q 502 64 502 28 q 502 85 502 74 q 506 110 502 95 q 517 147 509 125 q 543 203 526 169 q 587 284 560 237 q 656 398 615 332 q 753 551 697 465 q 885 751 810 638 l 881 756 q 687 533 774 631 q 531 358 601 435 q 406 224 461 281 q 307 127 351 167 q 226 61 263 87 q 157 20 190 35 q 93 0 124 6 q 28 -6 62 -6 q -25 15 -3 -6 q -47 72 -47 35 q -25 165 -47 112 q 32 277 -3 217 q 112 402 67 338 q 204 531 157 467 q 296 656 251 595 q 376 768 341 717 q 433 860 411 820 q 454 923 454 900 q 431 974 454 960 q 365 987 408 987 q 291 977 328 987 q 220 949 254 967 q 156 907 185 931 q 104 856 126 883 q 69 800 82 829 q 57 743 57 772 q 61 702 57 719 q 73 674 65 685 q 89 656 80 663 q 108 647 99 650 q 95 604 108 621 q 57 588 82 588 q 34 591 45 588 q 13 603 22 594 q -2 627 3 612 q -8 665 -8 642 q 7 750 -8 708 q 51 832 23 792 q 119 906 80 872 q 206 965 158 940 q 306 1004 253 990 q 417 1019 360 1019 q 536 990 499 1019 q 572 916 572 962 q 552 849 572 890 q 498 757 531 808 q 421 647 464 706 q 333 528 378 589 q 245 407 288 467 q 168 293 202 347 q 114 192 135 238 q 94 114 94 147 q 96 98 94 106 q 104 83 99 90 q 117 72 109 76 q 136 68 125 68 q 158 68 147 68 q 186 75 169 69 q 227 98 203 82 q 286 144 251 113 q 371 223 322 175 q 487 343 420 272 q 641 514 554 415 q 838 743 727 613 q 876 788 858 766 q 913 833 894 810 q 952 883 931 857 q 996 940 972 909 q 1031 985 1016 967 q 1060 1016 1047 1003 q 1086 1035 1073 1028 q 1115 1047 1099 1042 q 1147 1056 1133 1053 q 1169 1060 1160 1059 q 1185 1062 1178 1062 q 1197 1062 1192 1062 q 1213 1049 1213 1062 q 1210 1036 1213 1044 q 1198 1012 1207 1028 q 1170 968 1188 996 q 1123 893 1153 940 q 1067 808 1101 860 q 993 694 1033 756 q 908 563 952 631 q 819 427 863 494 q 736 299 776 360 q 665 190 696 238 q 628 121 639 149 q 617 76 617 93 q 627 49 617 57 q 656 41 638 41 q 680 45 669 41 q 704 60 692 50 q 730 87 716 71 q 760 127 743 103 l 903 329 q 919 352 910 340 q 936 375 928 365 q 954 399 945 388 l 969 389 q 951 362 960 375 q 934 336 944 350 q 914 308 924 322 l 766 98 z "},"":{"ha":946,"x_min":-47,"x_max":1259,"o":"m 944 291 q 814 161 890 216 q 649 66 737 107 q 506 -107 581 -30 q 357 -237 432 -183 q 207 -319 281 -290 q 63 -347 132 -347 q -19 -325 8 -347 q -47 -265 -47 -302 q -26 -200 -47 -228 q 29 -148 -6 -172 q 114 -104 65 -124 q 220 -65 163 -84 q 341 -26 277 -46 q 469 17 404 -6 q 487 43 478 30 q 505 70 496 56 q 532 112 513 82 q 578 183 551 142 q 638 274 605 224 q 705 376 670 324 q 774 482 740 429 q 839 580 808 534 q 894 664 869 626 q 933 723 919 701 l 929 728 q 735 506 822 603 q 580 334 649 409 q 456 205 510 260 q 359 113 402 151 q 283 52 317 76 q 219 16 249 29 q 164 -1 190 3 q 109 -6 137 -6 q 40 15 64 -6 q 15 72 15 35 q 36 164 15 112 q 90 275 56 216 q 167 399 124 335 q 255 527 210 463 q 342 650 299 590 q 419 762 385 710 q 473 853 453 813 q 494 916 494 893 q 471 967 494 953 q 405 980 448 980 q 331 970 368 980 q 259 942 294 960 q 195 900 225 924 q 143 849 165 876 q 109 793 122 822 q 97 736 97 765 q 101 695 97 712 q 112 667 105 678 q 129 649 119 656 q 148 640 138 643 q 135 597 148 614 q 97 581 122 581 q 73 584 85 581 q 52 596 62 588 q 37 620 43 605 q 31 658 31 635 q 47 743 31 701 q 91 825 63 785 q 159 899 119 865 q 245 958 198 933 q 346 997 292 983 q 456 1012 399 1012 q 575 983 539 1012 q 612 909 612 955 q 592 839 612 881 q 541 747 573 797 q 467 640 508 697 q 384 524 426 583 q 300 407 341 465 q 227 295 259 349 q 175 195 194 242 q 156 114 156 149 q 158 98 156 106 q 166 83 160 90 q 179 72 171 76 q 198 68 187 68 q 231 72 212 68 q 280 94 249 76 q 359 153 311 113 q 478 265 406 193 q 650 447 550 337 q 886 715 750 556 q 924 760 906 738 q 960 806 942 782 q 1000 855 979 829 q 1044 913 1020 881 q 1080 958 1064 940 q 1110 988 1096 976 q 1137 1007 1124 1000 q 1166 1019 1150 1015 q 1197 1028 1185 1026 q 1218 1033 1210 1031 q 1232 1034 1226 1034 q 1244 1034 1238 1034 q 1259 1022 1259 1034 q 1256 1008 1259 1016 q 1244 984 1253 1001 q 1217 940 1235 968 q 1169 865 1199 912 q 1113 778 1147 832 q 1035 660 1078 725 q 946 523 993 595 q 854 382 899 451 q 768 249 809 312 q 698 138 728 185 q 686 120 692 128 q 674 102 680 111 q 816 191 750 141 q 931 309 882 242 l 946 329 q 963 352 953 340 q 979 375 972 365 q 997 399 988 388 l 1013 389 q 994 362 1003 375 q 977 336 987 350 q 957 308 967 322 l 944 291 m -21 -262 q 58 -324 -21 -324 q 144 -307 100 -324 q 238 -252 189 -290 q 339 -155 286 -215 q 451 -11 392 -96 q 331 -50 390 -32 q 220 -86 272 -69 q 123 -123 167 -104 q 47 -162 79 -141 q -3 -207 15 -183 q -21 -262 -21 -232 m 1056 1253 q 1081 1233 1069 1244 q 1097 1211 1090 1223 q 1105 1186 1105 1199 q 1088 1150 1105 1166 q 1043 1122 1070 1134 q 984 1100 1017 1109 q 923 1085 952 1091 q 870 1076 893 1079 q 840 1074 848 1074 l 836 1087 q 916 1126 881 1105 q 976 1169 950 1147 q 1022 1213 1003 1191 q 1056 1253 1042 1234 z "}}}
